<svg viewBox="0 0 600 400" xmlns="http://www.w3.org/2000/svg">
<g transform="translate(72, 364)">
<g>
<g>
<circle cx="98.51941826611885" cy="-111.65534070160136" fill="#35C788" r="5"/>
<circle cx="236.44660383868523" cy="-97.6984231139012" fill="#35C788" r="5"/>
<circle cx="394.0776730644754" cy="-153.5260934647019" fill="#35C788" r="5"/>
<circle cx="275.8543711451328" cy="-111.65534070160136" fill="#35C788" r="5"/>
<circle cx="256.150487491909" cy="-181.4399286401022" fill="#35C788" r="5"/>
<circle cx="39.40776730644754" cy="-293.09526934170356" fill="#35C788" r="5"/>
<circle cx="137.9271855725664" cy="-167.48301105240205" fill="#35C788" r="5"/>
<circle cx="19.70388365322377" cy="-223.31068140320272" fill="#35C788" r="5"/>
<circle cx="374.37378941125166" cy="-167.48301105240205" fill="#35C788" r="5"/>
<circle cx="413.7815567176992" cy="-69.78458793850085" fill="#35C788" r="5"/>
<circle cx="137.9271855725664" cy="-265.18143416630323" fill="#35C788" r="5"/>
<circle cx="59.11165095967131" cy="-97.6984231139012" fill="#35C788" r="5"/>
<circle cx="39.40776730644754" cy="-181.4399286401022" fill="#35C788" r="5"/>
<circle cx="137.9271855725664" cy="-55.82767035080068" fill="#35C788" r="5"/>
<circle cx="118.22330191934262" cy="-321.00910451710394" fill="#35C788" r="5"/>
<circle cx="19.70388365322377" cy="-13.95691758770017" fill="#35C788" r="5"/>
<circle cx="98.51941826611885" cy="-27.91383517540034" fill="#35C788" r="5"/>
<circle cx="374.37378941125166" cy="-167.48301105240205" fill="#35C788" r="5"/>
<circle cx="374.37378941125166" cy="-97.6984231139012" fill="#35C788" r="5"/>
<circle cx="98.51941826611885" cy="-125.61225828930154" fill="#35C788" r="5"/>
<circle cx="157.63106922579016" cy="-293.09526934170356" fill="#35C788" r="5"/>
<circle cx="394.0776730644754" cy="-27.91383517540034" fill="#35C788" r="5"/>
<circle cx="374.37378941125166" cy="-139.5691758770017" fill="#35C788" r="5"/>
<circle cx="453.18932402414674" cy="-307.0521869294038" fill="#35C788" r="5"/>
<circle cx="453.18932402414674" cy="-97.6984231139012" fill="#35C788" r="5"/>
<circle cx="334.9660221048041" cy="-223.31068140320272" fill="#35C788" r="5"/>
<circle cx="39.40776730644754" cy="-181.4399286401022" fill="#35C788" r="5"/>
<circle cx="413.7815567176992" cy="-97.6984231139012" fill="#35C788" r="5"/>
<circle cx="354.6699057580279" cy="-125.61225828930154" fill="#35C788" r="5"/>
<circle cx="236.44660383868523" cy="-265.18143416630323" fill="#35C788" r="5"/>
<circle cx="374.37378941125166" cy="-97.6984231139012" fill="#35C788" r="5"/>
<circle cx="137.9271855725664" cy="-265.18143416630323" fill="#35C788" r="5"/>
<circle cx="19.70388365322377" cy="-153.5260934647019" fill="#35C788" r="5"/>
<circle cx="118.22330191934262" cy="-279.1383517540034" fill="#35C788" r="5"/>
<circle cx="354.6699057580279" cy="-321.00910451710394" fill="#35C788" r="5"/>
<circle cx="137.9271855725664" cy="-251.22451657860307" fill="#35C788" r="5"/>
<circle cx="354.6699057580279" cy="-293.09526934170356" fill="#35C788" r="5"/>
<circle cx="197.0388365322377" cy="-181.4399286401022" fill="#35C788" r="5"/>
<circle cx="157.63106922579016" cy="-125.61225828930154" fill="#35C788" r="5"/>
<circle cx="374.37378941125166" cy="-265.18143416630323" fill="#35C788" r="5"/>
<circle cx="39.40776730644754" cy="-265.18143416630323" fill="#35C788" r="5"/>
<circle cx="78.81553461289508" cy="-139.5691758770017" fill="#35C788" r="5"/>
<circle cx="118.22330191934262" cy="-209.35376381550256" fill="#35C788" r="5"/>
<circle cx="413.7815567176992" cy="-83.74150552620102" fill="#35C788" r="5"/>
<circle cx="334.9660221048041" cy="-279.1383517540034" fill="#35C788" r="5"/>
<circle cx="177.33495287901394" cy="-167.48301105240205" fill="#35C788" r="5"/>
<circle cx="413.7815567176992" cy="-153.5260934647019" fill="#35C788" r="5"/>
<circle cx="98.51941826611885" cy="-251.22451657860307" fill="#35C788" r="5"/>
<circle cx="256.150487491909" cy="-55.82767035080068" fill="#35C788" r="5"/>
<circle cx="256.150487491909" cy="-195.3968462278024" fill="#35C788" r="5"/>
<circle cx="334.9660221048041" cy="-153.5260934647019" fill="#35C788" r="5"/>
<circle cx="453.18932402414674" cy="-69.78458793850085" fill="#35C788" r="5"/>
<circle cx="236.44660383868523" cy="-69.78458793850085" fill="#35C788" r="5"/>
<circle cx="433.48544037092296" cy="-251.22451657860307" fill="#35C788" r="5"/>
<circle cx="177.33495287901394" cy="-195.3968462278024" fill="#35C788" r="5"/>
<circle cx="197.0388365322377" cy="-209.35376381550256" fill="#35C788" r="5"/>
<circle cx="236.44660383868523" cy="-195.3968462278024" fill="#35C788" r="5"/>
<circle cx="197.0388365322377" cy="-69.78458793850085" fill="#35C788" r="5"/>
<circle cx="157.63106922579016" cy="-181.4399286401022" fill="#35C788" r="5"/>
<circle cx="236.44660383868523" cy="-139.5691758770017" fill="#35C788" r="5"/>
<circle cx="197.0388365322377" cy="-13.95691758770017" fill="#35C788" r="5"/>
<circle cx="157.63106922579016" cy="-279.1383517540034" fill="#35C788" r="5"/>
<circle cx="177.33495287901394" cy="-125.61225828930154" fill="#35C788" r="5"/>
<circle cx="78.81553461289508" cy="-69.78458793850085" fill="#35C788" r="5"/>
<circle cx="19.70388365322377" cy="-181.4399286401022" fill="#35C788" r="5"/>
<circle cx="433.48544037092296" cy="-69.78458793850085" fill="#35C788" r="5"/>
<circle cx="295.55825479835653" cy="-251.22451657860307" fill="#35C788" r="5"/>
<circle cx="315.2621384515803" cy="-55.82767035080068" fill="#35C788" r="5"/>
<circle cx="137.9271855725664" cy="-97.6984231139012" fill="#35C788" r="5"/>
<circle cx="157.63106922579016" cy="-41.87075276310051" fill="#35C788" r="5"/>
<circle cx="137.9271855725664" cy="-167.48301105240205" fill="#35C788" r="5"/>
<circle cx="157.63106922579016" cy="-55.82767035080068" fill="#35C788" r="5"/>
<circle cx="334.9660221048041" cy="-237.2675989909029" fill="#35C788" r="5"/>
<circle cx="137.9271855725664" cy="-195.3968462278024" fill="#35C788" r="5"/>
<circle cx="137.9271855725664" cy="-41.87075276310051" fill="#35C788" r="5"/>
<circle cx="78.81553461289508" cy="-125.61225828930154" fill="#35C788" r="5"/>
<circle cx="413.7815567176992" cy="-111.65534070160136" fill="#35C788" r="5"/>
<circle cx="137.9271855725664" cy="-125.61225828930154" fill="#35C788" r="5"/>
<circle cx="315.2621384515803" cy="-167.48301105240205" fill="#35C788" r="5"/>
<circle cx="177.33495287901394" cy="-251.22451657860307" fill="#35C788" r="5"/>
<circle cx="157.63106922579016" cy="-223.31068140320272" fill="#35C788" r="5"/>
<circle cx="157.63106922579016" cy="-209.35376381550256" fill="#35C788" r="5"/>
<circle cx="374.37378941125166" cy="-279.1383517540034" fill="#35C788" r="5"/>
<circle cx="157.63106922579016" cy="-223.31068140320272" fill="#35C788" r="5"/>
<circle cx="236.44660383868523" cy="-27.91383517540034" fill="#35C788" r="5"/>
<circle cx="59.11165095967131" cy="-195.3968462278024" fill="#35C788" r="5"/>
<circle cx="216.74272018546148" cy="-13.95691758770017" fill="#35C788" r="5"/>
<circle cx="236.44660383868523" cy="-209.35376381550256" fill="#35C788" r="5"/>
<circle cx="374.37378941125166" cy="-195.3968462278024" fill="#35C788" r="5"/>
<circle cx="197.0388365322377" cy="-293.09526934170356" fill="#35C788" r="5"/>
<circle cx="315.2621384515803" cy="-223.31068140320272" fill="#35C788" r="5"/>
<circle cx="216.74272018546148" cy="-97.6984231139012" fill="#35C788" r="5"/>
<circle cx="413.7815567176992" cy="-13.95691758770017" fill="#35C788" r="5"/>
<circle cx="118.22330191934262" cy="-223.31068140320272" fill="#35C788" r="5"/>
<circle cx="394.0776730644754" cy="-307.0521869294038" fill="#35C788" r="5"/>
<circle cx="315.2621384515803" cy="-139.5691758770017" fill="#35C788" r="5"/>
<circle cx="236.44660383868523" cy="-55.82767035080068" fill="#35C788" r="5"/>
<circle cx="118.22330191934262" cy="-279.1383517540034" fill="#35C788" r="5"/>
<circle cx="453.18932402414674" cy="-13.95691758770017" fill="#35C788" r="5"/>
<circle cx="98.51941826611885" cy="-237.2675989909029" fill="#35C788" r="5"/>
<circle cx="295.55825479835653" cy="-181.4399286401022" fill="#35C788" r="5"/>
<circle cx="137.9271855725664" cy="-111.65534070160136" fill="#35C788" r="5"/>
<circle cx="256.150487491909" cy="-321.00910451710394" fill="#35C788" r="5"/>
<circle cx="394.0776730644754" cy="-279.1383517540034" fill="#35C788" r="5"/>
<circle cx="256.150487491909" cy="-223.31068140320272" fill="#35C788" r="5"/>
<circle cx="137.9271855725664" cy="-41.87075276310051" fill="#35C788" r="5"/>
<circle cx="39.40776730644754" cy="-27.91383517540034" fill="#35C788" r="5"/>
<circle cx="177.33495287901394" cy="-69.78458793850085" fill="#35C788" r="5"/>
<circle cx="236.44660383868523" cy="-237.2675989909029" fill="#35C788" r="5"/>
<circle cx="177.33495287901394" cy="-167.48301105240205" fill="#35C788" r="5"/>
<circle cx="157.63106922579016" cy="-195.3968462278024" fill="#35C788" r="5"/>
<circle cx="295.55825479835653" cy="-97.6984231139012" fill="#35C788" r="5"/>
<circle cx="334.9660221048041" cy="-69.78458793850085" fill="#35C788" r="5"/>
<circle cx="98.51941826611885" cy="-223.31068140320272" fill="#35C788" r="5"/>
<circle cx="236.44660383868523" cy="-237.2675989909029" fill="#35C788" r="5"/>
<circle cx="137.9271855725664" cy="-167.48301105240205" fill="#35C788" r="5"/>
<circle cx="216.74272018546148" cy="-139.5691758770017" fill="#35C788" r="5"/>
<circle cx="275.8543711451328" cy="-223.31068140320272" fill="#35C788" r="5"/>
<circle cx="177.33495287901394" cy="-181.4399286401022" fill="#35C788" r="5"/>
<circle cx="374.37378941125166" cy="-55.82767035080068" fill="#35C788" r="5"/>
<circle cx="216.74272018546148" cy="-167.48301105240205" fill="#35C788" r="5"/>
<circle cx="19.70388365322377" cy="-293.09526934170356" fill="#35C788" r="5"/>
<circle cx="39.40776730644754" cy="-69.78458793850085" fill="#35C788" r="5"/>
<circle cx="177.33495287901394" cy="-111.65534070160136" fill="#35C788" r="5"/>
<circle cx="374.37378941125166" cy="-69.78458793850085" fill="#35C788" r="5"/>
<circle cx="394.0776730644754" cy="-13.95691758770017" fill="#35C788" r="5"/>
<circle cx="275.8543711451328" cy="-41.87075276310051" fill="#35C788" r="5"/>
<circle cx="236.44660383868523" cy="-41.87075276310051" fill="#35C788" r="5"/>
<circle cx="236.44660383868523" cy="-27.91383517540034" fill="#35C788" r="5"/>
<circle cx="177.33495287901394" cy="-181.4399286401022" fill="#35C788" r="5"/>
<circle cx="98.51941826611885" cy="-307.0521869294038" fill="#35C788" r="5"/>
<circle cx="334.9660221048041" cy="-307.0521869294038" fill="#35C788" r="5"/>
<circle cx="197.0388365322377" cy="-321.00910451710394" fill="#35C788" r="5"/>
<circle cx="177.33495287901394" cy="-41.87075276310051" fill="#35C788" r="5"/>
<circle cx="137.9271855725664" cy="-111.65534070160136" fill="#35C788" r="5"/>
<circle cx="98.51941826611885" cy="-97.6984231139012" fill="#35C788" r="5"/>
<circle cx="19.70388365322377" cy="-279.1383517540034" fill="#35C788" r="5"/>
<circle cx="354.6699057580279" cy="-181.4399286401022" fill="#35C788" r="5"/>
<circle cx="394.0776730644754" cy="-167.48301105240205" fill="#35C788" r="5"/>
<circle cx="374.37378941125166" cy="-209.35376381550256" fill="#35C788" r="5"/>
<circle cx="236.44660383868523" cy="-69.78458793850085" fill="#35C788" r="5"/>
<circle cx="374.37378941125166" cy="-293.09526934170356" fill="#35C788" r="5"/>
<circle cx="453.18932402414674" cy="-27.91383517540034" fill="#35C788" r="5"/>
<circle cx="59.11165095967131" cy="-251.22451657860307" fill="#35C788" r="5"/>
<circle cx="275.8543711451328" cy="-209.35376381550256" fill="#35C788" r="5"/>
<circle cx="98.51941826611885" cy="-27.91383517540034" fill="#35C788" r="5"/>
<circle cx="216.74272018546148" cy="-111.65534070160136" fill="#35C788" r="5"/>
<circle cx="315.2621384515803" cy="-293.09526934170356" fill="#35C788" r="5"/>
<circle cx="236.44660383868523" cy="-265.18143416630323" fill="#35C788" r="5"/>
<circle cx="78.81553461289508" cy="-125.61225828930154" fill="#35C788" r="5"/>
<circle cx="295.55825479835653" cy="-195.3968462278024" fill="#35C788" r="5"/>
<circle cx="295.55825479835653" cy="-139.5691758770017" fill="#35C788" r="5"/>
<circle cx="394.0776730644754" cy="-265.18143416630323" fill="#35C788" r="5"/>
<circle cx="236.44660383868523" cy="-307.0521869294038" fill="#35C788" r="5"/>
<circle cx="236.44660383868523" cy="-111.65534070160136" fill="#35C788" r="5"/>
<circle cx="78.81553461289508" cy="-167.48301105240205" fill="#35C788" r="5"/>
<circle cx="39.40776730644754" cy="-41.87075276310051" fill="#35C788" r="5"/>
<circle cx="118.22330191934262" cy="-167.48301105240205" fill="#35C788" r="5"/>
<circle cx="98.51941826611885" cy="-13.95691758770017" fill="#35C788" r="5"/>
<circle cx="216.74272018546148" cy="-111.65534070160136" fill="#35C788" r="5"/>
<circle cx="137.9271855725664" cy="-83.74150552620102" fill="#35C788" r="5"/>
<circle cx="256.150487491909" cy="-237.2675989909029" fill="#35C788" r="5"/>
<circle cx="334.9660221048041" cy="-13.95691758770017" fill="#35C788" r="5"/>
<circle cx="374.37378941125166" cy="-265.18143416630323" fill="#35C788" r="5"/>
<circle cx="256.150487491909" cy="-251.22451657860307" fill="#35C788" r="5"/>
<circle cx="413.7815567176992" cy="-41.87075276310051" fill="#35C788" r="5"/>
<circle cx="177.33495287901394" cy="-125.61225828930154" fill="#35C788" r="5"/>
<circle cx="275.8543711451328" cy="-139.5691758770017" fill="#35C788" r="5"/>
<circle cx="157.63106922579016" cy="-125.61225828930154" fill="#35C788" r="5"/>
<circle cx="315.2621384515803" cy="-265.18143416630323" fill="#35C788" r="5"/>
<circle cx="19.70388365322377" cy="-41.87075276310051" fill="#35C788" r="5"/>
<circle cx="315.2621384515803" cy="-279.1383517540034" fill="#35C788" r="5"/>
<circle cx="39.40776730644754" cy="-279.1383517540034" fill="#35C788" r="5"/>
<circle cx="315.2621384515803" cy="-41.87075276310051" fill="#35C788" r="5"/>
<circle cx="98.51941826611885" cy="-223.31068140320272" fill="#35C788" r="5"/>
<circle cx="433.48544037092296" cy="-13.95691758770017" fill="#35C788" r="5"/>
<circle cx="354.6699057580279" cy="-83.74150552620102" fill="#35C788" r="5"/>
<circle cx="197.0388365322377" cy="-321.00910451710394" fill="#35C788" r="5"/>
<circle cx="137.9271855725664" cy="-41.87075276310051" fill="#35C788" r="5"/>
<circle cx="315.2621384515803" cy="-69.78458793850085" fill="#35C788" r="5"/>
<circle cx="334.9660221048041" cy="-321.00910451710394" fill="#35C788" r="5"/>
<circle cx="236.44660383868523" cy="-97.6984231139012" fill="#35C788" r="5"/>
<circle cx="315.2621384515803" cy="-111.65534070160136" fill="#35C788" r="5"/>
<circle cx="256.150487491909" cy="-279.1383517540034" fill="#35C788" r="5"/>
<circle cx="59.11165095967131" cy="-265.18143416630323" fill="#35C788" r="5"/>
<circle cx="98.51941826611885" cy="-293.09526934170356" fill="#35C788" r="5"/>
<circle cx="315.2621384515803" cy="-223.31068140320272" fill="#35C788" r="5"/>
<circle cx="433.48544037092296" cy="-307.0521869294038" fill="#35C788" r="5"/>
<circle cx="413.7815567176992" cy="-279.1383517540034" fill="#35C788" r="5"/>
<circle cx="78.81553461289508" cy="-251.22451657860307" fill="#35C788" r="5"/>
<circle cx="256.150487491909" cy="-139.5691758770017" fill="#35C788" r="5"/>
<circle cx="59.11165095967131" cy="-139.5691758770017" fill="#35C788" r="5"/>
<circle cx="453.18932402414674" cy="-195.3968462278024" fill="#35C788" r="5"/>
<circle cx="275.8543711451328" cy="-209.35376381550256" fill="#35C788" r="5"/>
<circle cx="256.150487491909" cy="-209.35376381550256" fill="#35C788" r="5"/>
<circle cx="157.63106922579016" cy="-167.48301105240205" fill="#35C788" r="5"/>
<circle cx="216.74272018546148" cy="-83.74150552620102" fill="#35C788" r="5"/>
<circle cx="413.7815567176992" cy="-321.00910451710394" fill="#35C788" r="5"/>
<circle cx="275.8543711451328" cy="-251.22451657860307" fill="#35C788" r="5"/>
<circle cx="118.22330191934262" cy="-195.3968462278024" fill="#35C788" r="5"/>
<circle cx="354.6699057580279" cy="-251.22451657860307" fill="#35C788" r="5"/>
<circle cx="78.81553461289508" cy="-321.00910451710394" fill="#35C788" r="5"/>
<circle cx="78.81553461289508" cy="-111.65534070160136" fill="#35C788" r="5"/>
<circle cx="374.37378941125166" cy="-69.78458793850085" fill="#35C788" r="5"/>
<circle cx="157.63106922579016" cy="-167.48301105240205" fill="#35C788" r="5"/>
<circle cx="157.63106922579016" cy="-27.91383517540034" fill="#35C788" r="5"/>
<circle cx="256.150487491909" cy="-237.2675989909029" fill="#35C788" r="5"/>
<circle cx="453.18932402414674" cy="-251.22451657860307" fill="#35C788" r="5"/>
<circle cx="295.55825479835653" cy="-139.5691758770017" fill="#35C788" r="5"/>
<circle cx="315.2621384515803" cy="-167.48301105240205" fill="#35C788" r="5"/>
<circle cx="413.7815567176992" cy="-237.2675989909029" fill="#35C788" r="5"/>
<circle cx="197.0388365322377" cy="-83.74150552620102" fill="#35C788" r="5"/>
<circle cx="275.8543711451328" cy="-139.5691758770017" fill="#35C788" r="5"/>
<circle cx="177.33495287901394" cy="-223.31068140320272" fill="#35C788" r="5"/>
<circle cx="137.9271855725664" cy="-265.18143416630323" fill="#35C788" r="5"/>
<circle cx="19.70388365322377" cy="-139.5691758770017" fill="#35C788" r="5"/>
<circle cx="374.37378941125166" cy="-139.5691758770017" fill="#35C788" r="5"/>
<circle cx="39.40776730644754" cy="-167.48301105240205" fill="#35C788" r="5"/>
<circle cx="216.74272018546148" cy="-27.91383517540034" fill="#35C788" r="5"/>
<circle cx="433.48544037092296" cy="-265.18143416630323" fill="#35C788" r="5"/>
<circle cx="354.6699057580279" cy="-55.82767035080068" fill="#35C788" r="5"/>
<circle cx="394.0776730644754" cy="-307.0521869294038" fill="#35C788" r="5"/>
<circle cx="157.63106922579016" cy="-27.91383517540034" fill="#35C788" r="5"/>
<circle cx="216.74272018546148" cy="-209.35376381550256" fill="#35C788" r="5"/>
<circle cx="137.9271855725664" cy="-125.61225828930154" fill="#35C788" r="5"/>
<circle cx="118.22330191934262" cy="-83.74150552620102" fill="#35C788" r="5"/>
<circle cx="236.44660383868523" cy="-223.31068140320272" fill="#35C788" r="5"/>
<circle cx="354.6699057580279" cy="-41.87075276310051" fill="#35C788" r="5"/>
<circle cx="157.63106922579016" cy="-111.65534070160136" fill="#35C788" r="5"/>
<circle cx="236.44660383868523" cy="-55.82767035080068" fill="#35C788" r="5"/>
<circle cx="197.0388365322377" cy="-237.2675989909029" fill="#35C788" r="5"/>
<circle cx="413.7815567176992" cy="-251.22451657860307" fill="#35C788" r="5"/>
<circle cx="118.22330191934262" cy="-209.35376381550256" fill="#35C788" r="5"/>
<circle cx="197.0388365322377" cy="-293.09526934170356" fill="#35C788" r="5"/>
<circle cx="98.51941826611885" cy="-293.09526934170356" fill="#35C788" r="5"/>
<circle cx="334.9660221048041" cy="-209.35376381550256" fill="#35C788" r="5"/>
<circle cx="334.9660221048041" cy="-97.6984231139012" fill="#35C788" r="5"/>
<circle cx="177.33495287901394" cy="-321.00910451710394" fill="#35C788" r="5"/>
<circle cx="39.40776730644754" cy="-69.78458793850085" fill="#35C788" r="5"/>
<circle cx="394.0776730644754" cy="-167.48301105240205" fill="#35C788" r="5"/>
<circle cx="236.44660383868523" cy="-125.61225828930154" fill="#35C788" r="5"/>
<circle cx="394.0776730644754" cy="-83.74150552620102" fill="#35C788" r="5"/>
<circle cx="197.0388365322377" cy="-83.74150552620102" fill="#35C788" r="5"/>
<circle cx="275.8543711451328" cy="-279.1383517540034" fill="#35C788" r="5"/>
<circle cx="197.0388365322377" cy="-279.1383517540034" fill="#35C788" r="5"/>
<circle cx="137.9271855725664" cy="-41.87075276310051" fill="#35C788" r="5"/>
<circle cx="78.81553461289508" cy="-125.61225828930154" fill="#35C788" r="5"/>
<circle cx="59.11165095967131" cy="-125.61225828930154" fill="#35C788" r="5"/>
<circle cx="197.0388365322377" cy="-167.48301105240205" fill="#35C788" r="5"/>
<circle cx="177.33495287901394" cy="-293.09526934170356" fill="#35C788" r="5"/>
<circle cx="433.48544037092296" cy="-13.95691758770017" fill="#35C788" r="5"/>
<circle cx="315.2621384515803" cy="-167.48301105240205" fill="#35C788" r="5"/>
<circle cx="374.37378941125166" cy="-279.1383517540034" fill="#35C788" r="5"/>
<circle cx="334.9660221048041" cy="-307.0521869294038" fill="#35C788" r="5"/>
<circle cx="275.8543711451328" cy="-13.95691758770017" fill="#35C788" r="5"/>
<circle cx="394.0776730644754" cy="-237.2675989909029" fill="#35C788" r="5"/>
<circle cx="433.48544037092296" cy="-293.09526934170356" fill="#35C788" r="5"/>
<circle cx="197.0388365322377" cy="-153.5260934647019" fill="#35C788" r="5"/>
<circle cx="177.33495287901394" cy="-153.5260934647019" fill="#35C788" r="5"/>
<circle cx="137.9271855725664" cy="-153.5260934647019" fill="#35C788" r="5"/>
<circle cx="394.0776730644754" cy="-195.3968462278024" fill="#35C788" r="5"/>
<circle cx="177.33495287901394" cy="-181.4399286401022" fill="#35C788" r="5"/>
<circle cx="157.63106922579016" cy="-209.35376381550256" fill="#35C788" r="5"/>
<circle cx="197.0388365322377" cy="-195.3968462278024" fill="#35C788" r="5"/>
<circle cx="118.22330191934262" cy="-181.4399286401022" fill="#35C788" r="5"/>
<circle cx="78.81553461289508" cy="-111.65534070160136" fill="#35C788" r="5"/>
<circle cx="413.7815567176992" cy="-27.91383517540034" fill="#35C788" r="5"/>
<circle cx="118.22330191934262" cy="-139.5691758770017" fill="#35C788" r="5"/>
<circle cx="354.6699057580279" cy="-209.35376381550256" fill="#35C788" r="5"/>
<circle cx="157.63106922579016" cy="-139.5691758770017" fill="#35C788" r="5"/>
<circle cx="78.81553461289508" cy="-181.4399286401022" fill="#35C788" r="5"/>
<circle cx="394.0776730644754" cy="-111.65534070160136" fill="#35C788" r="5"/>
<circle cx="236.44660383868523" cy="-167.48301105240205" fill="#35C788" r="5"/>
<circle cx="59.11165095967131" cy="-167.48301105240205" fill="#35C788" r="5"/>
<circle cx="334.9660221048041" cy="-195.3968462278024" fill="#35C788" r="5"/>
<circle cx="374.37378941125166" cy="-153.5260934647019" fill="#35C788" r="5"/>
<circle cx="157.63106922579016" cy="-209.35376381550256" fill="#35C788" r="5"/>
<circle cx="433.48544037092296" cy="-181.4399286401022" fill="#35C788" r="5"/>
<circle cx="98.51941826611885" cy="-41.87075276310051" fill="#35C788" r="5"/>
<circle cx="453.18932402414674" cy="-209.35376381550256" fill="#35C788" r="5"/>
<circle cx="78.81553461289508" cy="-279.1383517540034" fill="#35C788" r="5"/>
<circle cx="118.22330191934262" cy="-307.0521869294038" fill="#35C788" r="5"/>
<circle cx="433.48544037092296" cy="-69.78458793850085" fill="#35C788" r="5"/>
<circle cx="334.9660221048041" cy="-41.87075276310051" fill="#35C788" r="5"/>
<circle cx="394.0776730644754" cy="-111.65534070160136" fill="#35C788" r="5"/>
<circle cx="275.8543711451328" cy="-41.87075276310051" fill="#35C788" r="5"/>
<circle cx="197.0388365322377" cy="-307.0521869294038" fill="#35C788" r="5"/>
<circle cx="118.22330191934262" cy="-83.74150552620102" fill="#35C788" r="5"/>
<circle cx="59.11165095967131" cy="-97.6984231139012" fill="#35C788" r="5"/>
<circle cx="98.51941826611885" cy="-279.1383517540034" fill="#35C788" r="5"/>
<circle cx="354.6699057580279" cy="-237.2675989909029" fill="#35C788" r="5"/>
<circle cx="157.63106922579016" cy="-55.82767035080068" fill="#35C788" r="5"/>
<circle cx="453.18932402414674" cy="-195.3968462278024" fill="#35C788" r="5"/>
<circle cx="197.0388365322377" cy="-153.5260934647019" fill="#35C788" r="5"/>
<circle cx="157.63106922579016" cy="-41.87075276310051" fill="#35C788" r="5"/>
<circle cx="453.18932402414674" cy="-293.09526934170356" fill="#35C788" r="5"/>
<circle cx="315.2621384515803" cy="-321.00910451710394" fill="#35C788" r="5"/>
<circle cx="394.0776730644754" cy="-41.87075276310051" fill="#35C788" r="5"/>
<circle cx="334.9660221048041" cy="-181.4399286401022" fill="#35C788" r="5"/>
<circle cx="157.63106922579016" cy="-321.00910451710394" fill="#35C788" r="5"/>
<circle cx="98.51941826611885" cy="-69.78458793850085" fill="#35C788" r="5"/>
<circle cx="453.18932402414674" cy="-265.18143416630323" fill="#35C788" r="5"/>
<circle cx="59.11165095967131" cy="-181.4399286401022" fill="#35C788" r="5"/>
<circle cx="177.33495287901394" cy="-279.1383517540034" fill="#35C788" r="5"/>
<circle cx="275.8543711451328" cy="-139.5691758770017" fill="#35C788" r="5"/>
<circle cx="118.22330191934262" cy="-321.00910451710394" fill="#35C788" r="5"/>
<circle cx="197.0388365322377" cy="-69.78458793850085" fill="#35C788" r="5"/>
<circle cx="19.70388365322377" cy="-55.82767035080068" fill="#35C788" r="5"/>
<circle cx="98.51941826611885" cy="-153.5260934647019" fill="#35C788" r="5"/>
<circle cx="374.37378941125166" cy="-223.31068140320272" fill="#35C788" r="5"/>
<circle cx="295.55825479835653" cy="-83.74150552620102" fill="#35C788" r="5"/>
<circle cx="137.9271855725664" cy="-195.3968462278024" fill="#35C788" r="5"/>
<circle cx="295.55825479835653" cy="-181.4399286401022" fill="#35C788" r="5"/>
<circle cx="453.18932402414674" cy="-13.95691758770017" fill="#35C788" r="5"/>
<circle cx="315.2621384515803" cy="-293.09526934170356" fill="#35C788" r="5"/>
<circle cx="177.33495287901394" cy="-279.1383517540034" fill="#35C788" r="5"/>
<circle cx="374.37378941125166" cy="-167.48301105240205" fill="#35C788" r="5"/>
<circle cx="236.44660383868523" cy="-251.22451657860307" fill="#35C788" r="5"/>
<circle cx="256.150487491909" cy="-41.87075276310051" fill="#35C788" r="5"/>
<circle cx="394.0776730644754" cy="-251.22451657860307" fill="#35C788" r="5"/>
<circle cx="394.0776730644754" cy="-139.5691758770017" fill="#35C788" r="5"/>
<circle cx="39.40776730644754" cy="-13.95691758770017" fill="#35C788" r="5"/>
<circle cx="98.51941826611885" cy="-167.48301105240205" fill="#35C788" r="5"/>
<circle cx="157.63106922579016" cy="-111.65534070160136" fill="#35C788" r="5"/>
<circle cx="394.0776730644754" cy="-55.82767035080068" fill="#35C788" r="5"/>
<circle cx="59.11165095967131" cy="-237.2675989909029" fill="#35C788" r="5"/>
<circle cx="374.37378941125166" cy="-125.61225828930154" fill="#35C788" r="5"/>
<circle cx="295.55825479835653" cy="-13.95691758770017" fill="#35C788" r="5"/>
<circle cx="98.51941826611885" cy="-237.2675989909029" fill="#35C788" r="5"/>
<circle cx="295.55825479835653" cy="-307.0521869294038" fill="#35C788" r="5"/>
<circle cx="433.48544037092296" cy="-321.00910451710394" fill="#35C788" r="5"/>
<circle cx="157.63106922579016" cy="-265.18143416630323" fill="#35C788" r="5"/>
<circle cx="236.44660383868523" cy="-307.0521869294038" fill="#35C788" r="5"/>
<circle cx="98.51941826611885" cy="-83.74150552620102" fill="#35C788" r="5"/>
<circle cx="433.48544037092296" cy="-125.61225828930154" fill="#35C788" r="5"/>
<circle cx="19.70388365322377" cy="-181.4399286401022" fill="#35C788" r="5"/>
<circle cx="256.150487491909" cy="-293.09526934170356" fill="#35C788" r="5"/>
<circle cx="256.150487491909" cy="-139.5691758770017" fill="#35C788" r="5"/>
<circle cx="413.7815567176992" cy="-293.09526934170356" fill="#35C788" r="5"/>
<circle cx="78.81553461289508" cy="-41.87075276310051" fill="#35C788" r="5"/>
<circle cx="177.33495287901394" cy="-69.78458793850085" fill="#35C788" r="5"/>
<circle cx="334.9660221048041" cy="-41.87075276310051" fill="#35C788" r="5"/>
<circle cx="98.51941826611885" cy="-13.95691758770017" fill="#35C788" r="5"/>
<circle cx="315.2621384515803" cy="-55.82767035080068" fill="#35C788" r="5"/>
<circle cx="334.9660221048041" cy="-41.87075276310051" fill="#35C788" r="5"/>
<circle cx="19.70388365322377" cy="-279.1383517540034" fill="#35C788" r="5"/>
<circle cx="98.51941826611885" cy="-265.18143416630323" fill="#35C788" r="5"/>
<circle cx="78.81553461289508" cy="-97.6984231139012" fill="#35C788" r="5"/>
<circle cx="256.150487491909" cy="-27.91383517540034" fill="#35C788" r="5"/>
<circle cx="315.2621384515803" cy="-153.5260934647019" fill="#35C788" r="5"/>
<circle cx="334.9660221048041" cy="-223.31068140320272" fill="#35C788" r="5"/>
<circle cx="98.51941826611885" cy="-181.4399286401022" fill="#35C788" r="5"/>
<circle cx="374.37378941125166" cy="-139.5691758770017" fill="#35C788" r="5"/>
<circle cx="118.22330191934262" cy="-265.18143416630323" fill="#35C788" r="5"/>
<circle cx="197.0388365322377" cy="-209.35376381550256" fill="#35C788" r="5"/>
<circle cx="197.0388365322377" cy="-27.91383517540034" fill="#35C788" r="5"/>
<circle cx="275.8543711451328" cy="-223.31068140320272" fill="#35C788" r="5"/>
<circle cx="256.150487491909" cy="-153.5260934647019" fill="#35C788" r="5"/>
<circle cx="275.8543711451328" cy="-167.48301105240205" fill="#35C788" r="5"/>
<circle cx="236.44660383868523" cy="-223.31068140320272" fill="#35C788" r="5"/>
<circle cx="256.150487491909" cy="-307.0521869294038" fill="#35C788" r="5"/>
<circle cx="334.9660221048041" cy="-307.0521869294038" fill="#35C788" r="5"/>
<circle cx="295.55825479835653" cy="-307.0521869294038" fill="#35C788" r="5"/>
<circle cx="354.6699057580279" cy="-181.4399286401022" fill="#35C788" r="5"/>
<circle cx="98.51941826611885" cy="-13.95691758770017" fill="#35C788" r="5"/>
<circle cx="19.70388365322377" cy="-153.5260934647019" fill="#35C788" r="5"/>
<circle cx="59.11165095967131" cy="-27.91383517540034" fill="#35C788" r="5"/>
<circle cx="315.2621384515803" cy="-195.3968462278024" fill="#35C788" r="5"/>
<circle cx="453.18932402414674" cy="-13.95691758770017" fill="#35C788" r="5"/>
<circle cx="98.51941826611885" cy="-55.82767035080068" fill="#35C788" r="5"/>
<circle cx="157.63106922579016" cy="-265.18143416630323" fill="#35C788" r="5"/>
<circle cx="413.7815567176992" cy="-251.22451657860307" fill="#35C788" r="5"/>
<circle cx="295.55825479835653" cy="-181.4399286401022" fill="#35C788" r="5"/>
<circle cx="118.22330191934262" cy="-97.6984231139012" fill="#35C788" r="5"/>
<circle cx="59.11165095967131" cy="-69.78458793850085" fill="#35C788" r="5"/>
<circle cx="256.150487491909" cy="-181.4399286401022" fill="#35C788" r="5"/>
<circle cx="236.44660383868523" cy="-181.4399286401022" fill="#35C788" r="5"/>
<circle cx="394.0776730644754" cy="-293.09526934170356" fill="#35C788" r="5"/>
<circle cx="98.51941826611885" cy="-237.2675989909029" fill="#35C788" r="5"/>
<circle cx="98.51941826611885" cy="-307.0521869294038" fill="#35C788" r="5"/>
<circle cx="413.7815567176992" cy="-13.95691758770017" fill="#35C788" r="5"/>
<circle cx="275.8543711451328" cy="-97.6984231139012" fill="#35C788" r="5"/>
<circle cx="177.33495287901394" cy="-69.78458793850085" fill="#35C788" r="5"/>
<circle cx="315.2621384515803" cy="-265.18143416630323" fill="#35C788" r="5"/>
<circle cx="315.2621384515803" cy="-321.00910451710394" fill="#35C788" r="5"/>
<circle cx="433.48544037092296" cy="-111.65534070160136" fill="#35C788" r="5"/>
<circle cx="295.55825479835653" cy="-237.2675989909029" fill="#35C788" r="5"/>
<circle cx="78.81553461289508" cy="-69.78458793850085" fill="#35C788" r="5"/>
<circle cx="216.74272018546148" cy="-279.1383517540034" fill="#35C788" r="5"/>
<circle cx="59.11165095967131" cy="-167.48301105240205" fill="#35C788" r="5"/>
<circle cx="374.37378941125166" cy="-321.00910451710394" fill="#35C788" r="5"/>
<circle cx="39.40776730644754" cy="-153.5260934647019" fill="#35C788" r="5"/>
<circle cx="315.2621384515803" cy="-209.35376381550256" fill="#35C788" r="5"/>
<circle cx="19.70388365322377" cy="-209.35376381550256" fill="#35C788" r="5"/>
<circle cx="98.51941826611885" cy="-97.6984231139012" fill="#35C788" r="5"/>
<circle cx="19.70388365322377" cy="-153.5260934647019" fill="#35C788" r="5"/>
<circle cx="315.2621384515803" cy="-195.3968462278024" fill="#35C788" r="5"/>
<circle cx="433.48544037092296" cy="-237.2675989909029" fill="#35C788" r="5"/>
<circle cx="453.18932402414674" cy="-209.35376381550256" fill="#35C788" r="5"/>
<circle cx="118.22330191934262" cy="-41.87075276310051" fill="#35C788" r="5"/>
<circle cx="98.51941826611885" cy="-181.4399286401022" fill="#35C788" r="5"/>
<circle cx="295.55825479835653" cy="-167.48301105240205" fill="#35C788" r="5"/>
<circle cx="334.9660221048041" cy="-223.31068140320272" fill="#35C788" r="5"/>
<circle cx="78.81553461289508" cy="-41.87075276310051" fill="#35C788" r="5"/>
<circle cx="354.6699057580279" cy="-97.6984231139012" fill="#35C788" r="5"/>
<circle cx="78.81553461289508" cy="-181.4399286401022" fill="#35C788" r="5"/>
<circle cx="315.2621384515803" cy="-195.3968462278024" fill="#35C788" r="5"/>
<circle cx="59.11165095967131" cy="-27.91383517540034" fill="#35C788" r="5"/>
<circle cx="59.11165095967131" cy="-27.91383517540034" fill="#35C788" r="5"/>
<circle cx="39.40776730644754" cy="-125.61225828930154" fill="#35C788" r="5"/>
<circle cx="295.55825479835653" cy="-223.31068140320272" fill="#35C788" r="5"/>
<circle cx="374.37378941125166" cy="-209.35376381550256" fill="#35C788" r="5"/>
<circle cx="236.44660383868523" cy="-209.35376381550256" fill="#35C788" r="5"/>
<circle cx="98.51941826611885" cy="-125.61225828930154" fill="#35C788" r="5"/>
<circle cx="256.150487491909" cy="-97.6984231139012" fill="#35C788" r="5"/>
<circle cx="433.48544037092296" cy="-139.5691758770017" fill="#35C788" r="5"/>
<circle cx="39.40776730644754" cy="-195.3968462278024" fill="#35C788" r="5"/>
<circle cx="315.2621384515803" cy="-195.3968462278024" fill="#35C788" r="5"/>
<circle cx="453.18932402414674" cy="-223.31068140320272" fill="#35C788" r="5"/>
<circle cx="394.0776730644754" cy="-265.18143416630323" fill="#35C788" r="5"/>
<circle cx="118.22330191934262" cy="-223.31068140320272" fill="#35C788" r="5"/>
<circle cx="413.7815567176992" cy="-223.31068140320272" fill="#35C788" r="5"/>
<circle cx="275.8543711451328" cy="-97.6984231139012" fill="#35C788" r="5"/>
<circle cx="413.7815567176992" cy="-223.31068140320272" fill="#35C788" r="5"/>
<circle cx="453.18932402414674" cy="-265.18143416630323" fill="#35C788" r="5"/>
<circle cx="98.51941826611885" cy="-223.31068140320272" fill="#35C788" r="5"/>
<circle cx="197.0388365322377" cy="-237.2675989909029" fill="#35C788" r="5"/>
<circle cx="98.51941826611885" cy="-125.61225828930154" fill="#35C788" r="5"/>
<circle cx="197.0388365322377" cy="-265.18143416630323" fill="#35C788" r="5"/>
<circle cx="157.63106922579016" cy="-209.35376381550256" fill="#35C788" r="5"/>
<circle cx="197.0388365322377" cy="-307.0521869294038" fill="#35C788" r="5"/>
<circle cx="315.2621384515803" cy="-209.35376381550256" fill="#35C788" r="5"/>
<circle cx="354.6699057580279" cy="-195.3968462278024" fill="#35C788" r="5"/>
<circle cx="453.18932402414674" cy="-209.35376381550256" fill="#35C788" r="5"/>
<circle cx="354.6699057580279" cy="-27.91383517540034" fill="#35C788" r="5"/>
<circle cx="374.37378941125166" cy="-279.1383517540034" fill="#35C788" r="5"/>
<circle cx="19.70388365322377" cy="-125.61225828930154" fill="#35C788" r="5"/>
<circle cx="374.37378941125166" cy="-41.87075276310051" fill="#35C788" r="5"/>
<circle cx="354.6699057580279" cy="-167.48301105240205" fill="#35C788" r="5"/>
<circle cx="433.48544037092296" cy="-139.5691758770017" fill="#35C788" r="5"/>
<circle cx="118.22330191934262" cy="-181.4399286401022" fill="#35C788" r="5"/>
<circle cx="334.9660221048041" cy="-13.95691758770017" fill="#35C788" r="5"/>
<circle cx="98.51941826611885" cy="-237.2675989909029" fill="#35C788" r="5"/>
<circle cx="236.44660383868523" cy="-13.95691758770017" fill="#35C788" r="5"/>
<circle cx="275.8543711451328" cy="-279.1383517540034" fill="#35C788" r="5"/>
<circle cx="354.6699057580279" cy="-209.35376381550256" fill="#35C788" r="5"/>
<circle cx="39.40776730644754" cy="-97.6984231139012" fill="#35C788" r="5"/>
<circle cx="19.70388365322377" cy="-181.4399286401022" fill="#35C788" r="5"/>
<circle cx="394.0776730644754" cy="-97.6984231139012" fill="#35C788" r="5"/>
<circle cx="394.0776730644754" cy="-265.18143416630323" fill="#35C788" r="5"/>
<circle cx="374.37378941125166" cy="-27.91383517540034" fill="#35C788" r="5"/>
<circle cx="118.22330191934262" cy="-153.5260934647019" fill="#35C788" r="5"/>
<circle cx="197.0388365322377" cy="-167.48301105240205" fill="#35C788" r="5"/>
<circle cx="197.0388365322377" cy="-83.74150552620102" fill="#35C788" r="5"/>
<circle cx="334.9660221048041" cy="-307.0521869294038" fill="#35C788" r="5"/>
<circle cx="98.51941826611885" cy="-41.87075276310051" fill="#35C788" r="5"/>
<circle cx="59.11165095967131" cy="-307.0521869294038" fill="#35C788" r="5"/>
<circle cx="98.51941826611885" cy="-321.00910451710394" fill="#35C788" r="5"/>
<circle cx="39.40776730644754" cy="-181.4399286401022" fill="#35C788" r="5"/>
<circle cx="275.8543711451328" cy="-181.4399286401022" fill="#35C788" r="5"/>
<circle cx="177.33495287901394" cy="-265.18143416630323" fill="#35C788" r="5"/>
<circle cx="19.70388365322377" cy="-83.74150552620102" fill="#35C788" r="5"/>
<circle cx="453.18932402414674" cy="-223.31068140320272" fill="#35C788" r="5"/>
<circle cx="177.33495287901394" cy="-265.18143416630323" fill="#35C788" r="5"/>
<circle cx="453.18932402414674" cy="-83.74150552620102" fill="#35C788" r="5"/>
<circle cx="197.0388365322377" cy="-41.87075276310051" fill="#35C788" r="5"/>
<circle cx="413.7815567176992" cy="-251.22451657860307" fill="#35C788" r="5"/>
<circle cx="394.0776730644754" cy="-139.5691758770017" fill="#35C788" r="5"/>
<circle cx="137.9271855725664" cy="-251.22451657860307" fill="#35C788" r="5"/>
<circle cx="295.55825479835653" cy="-69.78458793850085" fill="#35C788" r="5"/>
<circle cx="216.74272018546148" cy="-237.2675989909029" fill="#35C788" r="5"/>
<circle cx="118.22330191934262" cy="-265.18143416630323" fill="#35C788" r="5"/>
<circle cx="197.0388365322377" cy="-209.35376381550256" fill="#35C788" r="5"/>
<circle cx="98.51941826611885" cy="-293.09526934170356" fill="#35C788" r="5"/>
<circle cx="177.33495287901394" cy="-125.61225828930154" fill="#35C788" r="5"/>
<circle cx="177.33495287901394" cy="-83.74150552620102" fill="#35C788" r="5"/>
<circle cx="433.48544037092296" cy="-41.87075276310051" fill="#35C788" r="5"/>
<circle cx="354.6699057580279" cy="-139.5691758770017" fill="#35C788" r="5"/>
<circle cx="334.9660221048041" cy="-237.2675989909029" fill="#35C788" r="5"/>
<circle cx="59.11165095967131" cy="-279.1383517540034" fill="#35C788" r="5"/>
<circle cx="197.0388365322377" cy="-167.48301105240205" fill="#35C788" r="5"/>
<circle cx="236.44660383868523" cy="-13.95691758770017" fill="#35C788" r="5"/>
<circle cx="216.74272018546148" cy="-209.35376381550256" fill="#35C788" r="5"/>
<circle cx="78.81553461289508" cy="-279.1383517540034" fill="#35C788" r="5"/>
<circle cx="19.70388365322377" cy="-321.00910451710394" fill="#35C788" r="5"/>
<circle cx="334.9660221048041" cy="-41.87075276310051" fill="#35C788" r="5"/>
<circle cx="256.150487491909" cy="-111.65534070160136" fill="#35C788" r="5"/>
<circle cx="177.33495287901394" cy="-237.2675989909029" fill="#35C788" r="5"/>
<circle cx="453.18932402414674" cy="-13.95691758770017" fill="#35C788" r="5"/>
<circle cx="334.9660221048041" cy="-265.18143416630323" fill="#35C788" r="5"/>
<circle cx="236.44660383868523" cy="-27.91383517540034" fill="#35C788" r="5"/>
<circle cx="315.2621384515803" cy="-55.82767035080068" fill="#35C788" r="5"/>
<circle cx="19.70388365322377" cy="-111.65534070160136" fill="#35C788" r="5"/>
<circle cx="39.40776730644754" cy="-293.09526934170356" fill="#35C788" r="5"/>
<circle cx="275.8543711451328" cy="-307.0521869294038" fill="#35C788" r="5"/>
<circle cx="197.0388365322377" cy="-27.91383517540034" fill="#35C788" r="5"/>
<circle cx="334.9660221048041" cy="-55.82767035080068" fill="#35C788" r="5"/>
<circle cx="137.9271855725664" cy="-307.0521869294038" fill="#35C788" r="5"/>
<circle cx="334.9660221048041" cy="-265.18143416630323" fill="#35C788" r="5"/>
<circle cx="59.11165095967131" cy="-69.78458793850085" fill="#35C788" r="5"/>
<circle cx="98.51941826611885" cy="-111.65534070160136" fill="#35C788" r="5"/>
</g>
</g>
<g>
<g>
<path d="M98.51942,-111.65534 L98.51942,-111.65534 L236.44661,-97.698425 L394.07767,-153.5261 L275.85437,-111.65534 L256.15048,-181.43993 L39.40777,-293.09528 L137.92719,-167.48302 L19.703884,-223.31068 L374.37378,-167.48302 L413.78156,-69.78459 L137.92719,-265.18143 L59.111652,-97.698425 L39.40777,-181.43993 L137.92719,-55.82767 L118.223305,-321.0091 L19.703884,-13.956918 L98.51942,-27.913836 L374.37378,-167.48302 L374.37378,-97.698425 L98.51942,-125.61226 L157.63107,-293.09528 L394.07767,-27.913836 L374.37378,-139.56918 L453.18933,-307.0522 L453.18933,-97.698425 L334.96603,-223.31068 L39.40777,-181.43993 L413.78156,-97.698425 L354.6699,-125.61226 L236.44661,-265.18143 L374.37378,-97.698425 L137.92719,-265.18143 L19.703884,-153.5261 L118.223305,-279.13837 L354.6699,-321.0091 L137.92719,-251.22452 L354.6699,-293.09528 L197.03883,-181.43993 L157.63107,-125.61226 L374.37378,-265.18143 L39.40777,-265.18143 L78.81554,-139.56918 L118.223305,-209.35376 L413.78156,-83.74151 L334.96603,-279.13837 L177.33495,-167.48302 L413.78156,-153.5261 L98.51942,-251.22452 L256.15048,-55.82767 L256.15048,-195.39685 L334.96603,-153.5261 L453.18933,-69.78459 L236.44661,-69.78459 L433.48544,-251.22452 L177.33495,-195.39685 L197.03883,-209.35376 L236.44661,-195.39685 L197.03883,-69.78459 L157.63107,-181.43993 L236.44661,-139.56918 L197.03883,-13.956918 L157.63107,-279.13837 L177.33495,-125.61226 L78.81554,-69.78459 L19.703884,-181.43993 L433.48544,-69.78459 L295.55826,-251.22452 L315.26215,-55.82767 L137.92719,-97.698425 L157.63107,-41.870754 L137.92719,-167.48302 L157.63107,-55.82767 L334.96603,-237.2676 L137.92719,-195.39685 L137.92719,-41.870754 L78.81554,-125.61226 L413.78156,-111.65534 L137.92719,-125.61226 L315.26215,-167.48302 L177.33495,-251.22452 L157.63107,-223.31068 L157.63107,-209.35376 L374.37378,-279.13837 L157.63107,-223.31068 L236.44661,-27.913836 L59.111652,-195.39685 L216.74272,-13.956918 L236.44661,-209.35376 L374.37378,-195.39685 L197.03883,-293.09528 L315.26215,-223.31068 L216.74272,-97.698425 L413.78156,-13.956918 L118.223305,-223.31068 L394.07767,-307.0522 L315.26215,-139.56918 L236.44661,-55.82767 L118.223305,-279.13837 L453.18933,-13.956918 L98.51942,-237.2676 L295.55826,-181.43993 L137.92719,-111.65534 L256.15048,-321.0091 L394.07767,-279.13837 L256.15048,-223.31068 L137.92719,-41.870754 L39.40777,-27.913836 L177.33495,-69.78459 L236.44661,-237.2676 L177.33495,-167.48302 L157.63107,-195.39685 L295.55826,-97.698425 L334.96603,-69.78459 L98.51942,-223.31068 L236.44661,-237.2676 L137.92719,-167.48302 L216.74272,-139.56918 L275.85437,-223.31068 L177.33495,-181.43993 L374.37378,-55.82767 L216.74272,-167.48302 L19.703884,-293.09528 L39.40777,-69.78459 L177.33495,-111.65534 L374.37378,-69.78459 L394.07767,-13.956918 L275.85437,-41.870754 L236.44661,-41.870754 L236.44661,-27.913836 L177.33495,-181.43993 L98.51942,-307.0522 L334.96603,-307.0522 L197.03883,-321.0091 L177.33495,-41.870754 L137.92719,-111.65534 L98.51942,-97.698425 L19.703884,-279.13837 L354.6699,-181.43993 L394.07767,-167.48302 L374.37378,-209.35376 L236.44661,-69.78459 L374.37378,-293.09528 L453.18933,-27.913836 L59.111652,-251.22452 L275.85437,-209.35376 L98.51942,-27.913836 L216.74272,-111.65534 L315.26215,-293.09528 L236.44661,-265.18143 L78.81554,-125.61226 L295.55826,-195.39685 L295.55826,-139.56918 L394.07767,-265.18143 L236.44661,-307.0522 L236.44661,-111.65534 L78.81554,-167.48302 L39.40777,-41.870754 L118.223305,-167.48302 L98.51942,-13.956918 L216.74272,-111.65534 L137.92719,-83.74151 L256.15048,-237.2676 L334.96603,-13.956918 L374.37378,-265.18143 L256.15048,-251.22452 L413.78156,-41.870754 L177.33495,-125.61226 L275.85437,-139.56918 L157.63107,-125.61226 L315.26215,-265.18143 L19.703884,-41.870754 L315.26215,-279.13837 L39.40777,-279.13837 L315.26215,-41.870754 L98.51942,-223.31068 L433.48544,-13.956918 L354.6699,-83.74151 L197.03883,-321.0091 L137.92719,-41.870754 L315.26215,-69.78459 L334.96603,-321.0091 L236.44661,-97.698425 L315.26215,-111.65534 L256.15048,-279.13837 L59.111652,-265.18143 L98.51942,-293.09528 L315.26215,-223.31068 L433.48544,-307.0522 L413.78156,-279.13837 L78.81554,-251.22452 L256.15048,-139.56918 L59.111652,-139.56918 L453.18933,-195.39685 L275.85437,-209.35376 L256.15048,-209.35376 L157.63107,-167.48302 L216.74272,-83.74151 L413.78156,-321.0091 L275.85437,-251.22452 L118.223305,-195.39685 L354.6699,-251.22452 L78.81554,-321.0091 L78.81554,-111.65534 L374.37378,-69.78459 L157.63107,-167.48302 L157.63107,-27.913836 L256.15048,-237.2676 L453.18933,-251.22452 L295.55826,-139.56918 L315.26215,-167.48302 L413.78156,-237.2676 L197.03883,-83.74151 L275.85437,-139.56918 L177.33495,-223.31068 L137.92719,-265.18143 L19.703884,-139.56918 L374.37378,-139.56918 L39.40777,-167.48302 L216.74272,-27.913836 L433.48544,-265.18143 L354.6699,-55.82767 L394.07767,-307.0522 L157.63107,-27.913836 L216.74272,-209.35376 L137.92719,-125.61226 L118.223305,-83.74151 L236.44661,-223.31068 L354.6699,-41.870754 L157.63107,-111.65534 L236.44661,-55.82767 L197.03883,-237.2676 L413.78156,-251.22452 L118.223305,-209.35376 L197.03883,-293.09528 L98.51942,-293.09528 L334.96603,-209.35376 L334.96603,-97.698425 L177.33495,-321.0091 L39.40777,-69.78459 L394.07767,-167.48302 L236.44661,-125.61226 L394.07767,-83.74151 L197.03883,-83.74151 L275.85437,-279.13837 L197.03883,-279.13837 L137.92719,-41.870754 L78.81554,-125.61226 L59.111652,-125.61226 L197.03883,-167.48302 L177.33495,-293.09528 L433.48544,-13.956918 L315.26215,-167.48302 L374.37378,-279.13837 L334.96603,-307.0522 L275.85437,-13.956918 L394.07767,-237.2676 L433.48544,-293.09528 L197.03883,-153.5261 L177.33495,-153.5261 L137.92719,-153.5261 L394.07767,-195.39685 L177.33495,-181.43993 L157.63107,-209.35376 L197.03883,-195.39685 L118.223305,-181.43993 L78.81554,-111.65534 L413.78156,-27.913836 L118.223305,-139.56918 L354.6699,-209.35376 L157.63107,-139.56918 L78.81554,-181.43993 L394.07767,-111.65534 L236.44661,-167.48302 L59.111652,-167.48302 L334.96603,-195.39685 L374.37378,-153.5261 L157.63107,-209.35376 L433.48544,-181.43993 L98.51942,-41.870754 L453.18933,-209.35376 L78.81554,-279.13837 L118.223305,-307.0522 L433.48544,-69.78459 L334.96603,-41.870754 L394.07767,-111.65534 L275.85437,-41.870754 L197.03883,-307.0522 L118.223305,-83.74151 L59.111652,-97.698425 L98.51942,-279.13837 L354.6699,-237.2676 L157.63107,-55.82767 L453.18933,-195.39685 L197.03883,-153.5261 L157.63107,-41.870754 L453.18933,-293.09528 L315.26215,-321.0091 L394.07767,-41.870754 L334.96603,-181.43993 L157.63107,-321.0091 L98.51942,-69.78459 L453.18933,-265.18143 L59.111652,-181.43993 L177.33495,-279.13837 L275.85437,-139.56918 L118.223305,-321.0091 L197.03883,-69.78459 L19.703884,-55.82767 L98.51942,-153.5261 L374.37378,-223.31068 L295.55826,-83.74151 L137.92719,-195.39685 L295.55826,-181.43993 L453.18933,-13.956918 L315.26215,-293.09528 L177.33495,-279.13837 L374.37378,-167.48302 L236.44661,-251.22452 L256.15048,-41.870754 L394.07767,-251.22452 L394.07767,-139.56918 L39.40777,-13.956918 L98.51942,-167.48302 L157.63107,-111.65534 L394.07767,-55.82767 L59.111652,-237.2676 L374.37378,-125.61226 L295.55826,-13.956918 L98.51942,-237.2676 L295.55826,-307.0522 L433.48544,-321.0091 L157.63107,-265.18143 L236.44661,-307.0522 L98.51942,-83.74151 L433.48544,-125.61226 L19.703884,-181.43993 L256.15048,-293.09528 L256.15048,-139.56918 L413.78156,-293.09528 L78.81554,-41.870754 L177.33495,-69.78459 L334.96603,-41.870754 L98.51942,-13.956918 L315.26215,-55.82767 L334.96603,-41.870754 L19.703884,-279.13837 L98.51942,-265.18143 L78.81554,-97.698425 L256.15048,-27.913836 L315.26215,-153.5261 L334.96603,-223.31068 L98.51942,-181.43993 L374.37378,-139.56918 L118.223305,-265.18143 L197.03883,-209.35376 L197.03883,-27.913836 L275.85437,-223.31068 L256.15048,-153.5261 L275.85437,-167.48302 L236.44661,-223.31068 L256.15048,-307.0522 L334.96603,-307.0522 L295.55826,-307.0522 L354.6699,-181.43993 L98.51942,-13.956918 L19.703884,-153.5261 L59.111652,-27.913836 L315.26215,-195.39685 L453.18933,-13.956918 L98.51942,-55.82767 L157.63107,-265.18143 L413.78156,-251.22452 L295.55826,-181.43993 L118.223305,-97.698425 L59.111652,-69.78459 L256.15048,-181.43993 L236.44661,-181.43993 L394.07767,-293.09528 L98.51942,-237.2676 L98.51942,-307.0522 L413.78156,-13.956918 L275.85437,-97.698425 L177.33495,-69.78459 L315.26215,-265.18143 L315.26215,-321.0091 L433.48544,-111.65534 L295.55826,-237.2676 L78.81554,-69.78459 L216.74272,-279.13837 L59.111652,-167.48302 L374.37378,-321.0091 L39.40777,-153.5261 L315.26215,-209.35376 L19.703884,-209.35376 L98.51942,-97.698425 L19.703884,-153.5261 L315.26215,-195.39685 L433.48544,-237.2676 L453.18933,-209.35376 L118.223305,-41.870754 L98.51942,-181.43993 L295.55826,-167.48302 L334.96603,-223.31068 L78.81554,-41.870754 L354.6699,-97.698425 L78.81554,-181.43993 L315.26215,-195.39685 L59.111652,-27.913836 L59.111652,-27.913836 L39.40777,-125.61226 L295.55826,-223.31068 L374.37378,-209.35376 L236.44661,-209.35376 L98.51942,-125.61226 L256.15048,-97.698425 L433.48544,-139.56918 L39.40777,-195.39685 L315.26215,-195.39685 L453.18933,-223.31068 L394.07767,-265.18143 L118.223305,-223.31068 L413.78156,-223.31068 L275.85437,-97.698425 L413.78156,-223.31068 L453.18933,-265.18143 L98.51942,-223.31068 L197.03883,-237.2676 L98.51942,-125.61226 L197.03883,-265.18143 L157.63107,-209.35376 L197.03883,-307.0522 L315.26215,-209.35376 L354.6699,-195.39685 L453.18933,-209.35376 L354.6699,-27.913836 L374.37378,-279.13837 L19.703884,-125.61226 L374.37378,-41.870754 L354.6699,-167.48302 L433.48544,-139.56918 L118.223305,-181.43993 L334.96603,-13.956918 L98.51942,-237.2676 L236.44661,-13.956918 L275.85437,-279.13837 L354.6699,-209.35376 L39.40777,-97.698425 L19.703884,-181.43993 L394.07767,-97.698425 L394.07767,-265.18143 L374.37378,-27.913836 L118.223305,-153.5261 L197.03883,-167.48302 L197.03883,-83.74151 L334.96603,-307.0522 L98.51942,-41.870754 L59.111652,-307.0522 L98.51942,-321.0091 L39.40777,-181.43993 L275.85437,-181.43993 L177.33495,-265.18143 L19.703884,-83.74151 L453.18933,-223.31068 L177.33495,-265.18143 L453.18933,-83.74151 L197.03883,-41.870754 L413.78156,-251.22452 L394.07767,-139.56918 L137.92719,-251.22452 L295.55826,-69.78459 L216.74272,-237.2676 L118.223305,-265.18143 L197.03883,-209.35376 L98.51942,-293.09528 L177.33495,-125.61226 L177.33495,-83.74151 L433.48544,-41.870754 L354.6699,-139.56918 L334.96603,-237.2676 L59.111652,-279.13837 L197.03883,-167.48302 L236.44661,-13.956918 L216.74272,-209.35376 L78.81554,-279.13837 L19.703884,-321.0091 L334.96603,-41.870754 L256.15048,-111.65534 L177.33495,-237.2676 L453.18933,-13.956918 L334.96603,-265.18143 L236.44661,-27.913836 L315.26215,-55.82767 L19.703884,-111.65534 L39.40777,-293.09528 L275.85437,-307.0522 L197.03883,-27.913836 L334.96603,-55.82767 L137.92719,-307.0522 L334.96603,-265.18143 L59.111652,-69.78459 L98.51942,-111.65534" fill="none" stroke="#35C788" stroke-linejoin="round" stroke-width="2"/>
</g>
</g>
<g>
<g>
<line stroke="black" stroke-width="1" x1="0" x2="0" y1="0" y2="10"/>
<line stroke="black" stroke-width="1" x1="98.51941826611885" x2="98.51941826611885" y1="0" y2="10"/>
<line stroke="black" stroke-width="1" x1="197.0388365322377" x2="197.0388365322377" y1="0" y2="10"/>
<line stroke="black" stroke-width="1" x1="295.55825479835653" x2="295.55825479835653" y1="0" y2="10"/>
<line stroke="black" stroke-width="1" x1="394.0776730644754" x2="394.0776730644754" y1="0" y2="10"/>
</g>
<line stroke="black" stroke-width="1" x1="0" x2="480" y1="0" y2="0"/>
<g>
<text font-size="12" text-anchor="middle" x="0" y="20">
0
</text>
<text font-size="12" text-anchor="middle" x="98.51941826611885" y="20">
5
</text>
<text font-size="12" text-anchor="middle" x="197.0388365322377" y="20">
10
</text>
<text font-size="12" text-anchor="middle" x="295.55825479835653" y="20">
15
</text>
<text font-size="12" text-anchor="middle" x="394.0776730644754" y="20">
20
</text>
</g>
<text font-size="12" text-anchor="middle" x="240" y="30">
City x coordinate. Cities: 500, temperature: 10
</text>
</g>
<g>
<g>
<line stroke="black" stroke-width="1" x1="0" x2="-10" y1="0" y2="0"/>
<line stroke="black" stroke-width="1" x1="0" x2="-10" y1="-69.78458793850085" y2="-69.78458793850085"/>
<line stroke="black" stroke-width="1" x1="0" x2="-10" y1="-139.5691758770017" y2="-139.5691758770017"/>
<line stroke="black" stroke-width="1" x1="0" x2="-10" y1="-209.35376381550256" y2="-209.35376381550256"/>
<line stroke="black" stroke-width="1" x1="0" x2="-10" y1="-279.1383517540034" y2="-279.1383517540034"/>
</g>
<line stroke="black" stroke-width="1" x1="0" x2="0" y1="0" y2="-340"/>
<g>
<text dominant-baseline="middle" font-size="12" text-anchor="end" x="-15" y="0">
0
</text>
<text dominant-baseline="middle" font-size="12" text-anchor="end" x="-15" y="-69.78458793850085">
5
</text>
<text dominant-baseline="middle" font-size="12" text-anchor="end" x="-15" y="-139.5691758770017">
10
</text>
<text dominant-baseline="middle" font-size="12" text-anchor="end" x="-15" y="-209.35376381550256">
15
</text>
<text dominant-baseline="middle" font-size="12" text-anchor="end" x="-15" y="-279.1383517540034">
20
</text>
</g>
<text font-size="12" text-anchor="middle" transform="rotate(-90 -24 -170)" x="-24" y="-182">
City y coordinate. Cities: 500, temperature: 10
</text>
</g>
</g>
</svg>