<svg viewBox="0 0 600 400" xmlns="http://www.w3.org/2000/svg">
<g transform="translate(72, 364)">
<g>
<g>
<circle cx="109.0909090909091" cy="-92.72727272727273" fill="#35C788" r="5"/>
<circle cx="109.0909090909091" cy="-77.27272727272727" fill="#35C788" r="5"/>
<circle cx="130.9090909090909" cy="-77.27272727272727" fill="#35C788" r="5"/>
<circle cx="130.9090909090909" cy="-77.27272727272727" fill="#35C788" r="5"/>
<circle cx="130.9090909090909" cy="-77.27272727272727" fill="#35C788" r="5"/>
<circle cx="130.9090909090909" cy="-77.27272727272727" fill="#35C788" r="5"/>
<circle cx="130.9090909090909" cy="-61.81818181818182" fill="#35C788" r="5"/>
<circle cx="109.0909090909091" cy="-61.81818181818182" fill="#35C788" r="5"/>
<circle cx="65.45454545454545" cy="-61.81818181818182" fill="#35C788" r="5"/>
<circle cx="65.45454545454545" cy="-46.36363636363637" fill="#35C788" r="5"/>
<circle cx="87.27272727272727" cy="-30.90909090909091" fill="#35C788" r="5"/>
<circle cx="87.27272727272727" cy="-30.90909090909091" fill="#35C788" r="5"/>
<circle cx="87.27272727272727" cy="-30.90909090909091" fill="#35C788" r="5"/>
<circle cx="87.27272727272727" cy="-30.90909090909091" fill="#35C788" r="5"/>
<circle cx="87.27272727272727" cy="-30.90909090909091" fill="#35C788" r="5"/>
<circle cx="87.27272727272727" cy="-30.90909090909091" fill="#35C788" r="5"/>
<circle cx="87.27272727272727" cy="-15.454545454545455" fill="#35C788" r="5"/>
<circle cx="65.45454545454545" cy="-15.454545454545455" fill="#35C788" r="5"/>
<circle cx="43.63636363636363" cy="-30.90909090909091" fill="#35C788" r="5"/>
<circle cx="21.818181818181817" cy="-15.454545454545455" fill="#35C788" r="5"/>
<circle cx="21.818181818181817" cy="-15.454545454545455" fill="#35C788" r="5"/>
<circle cx="21.818181818181817" cy="-30.90909090909091" fill="#35C788" r="5"/>
<circle cx="21.818181818181817" cy="-46.36363636363637" fill="#35C788" r="5"/>
<circle cx="43.63636363636363" cy="-46.36363636363637" fill="#35C788" r="5"/>
<circle cx="43.63636363636363" cy="-61.81818181818182" fill="#35C788" r="5"/>
<circle cx="43.63636363636363" cy="-77.27272727272727" fill="#35C788" r="5"/>
<circle cx="43.63636363636363" cy="-77.27272727272727" fill="#35C788" r="5"/>
<circle cx="65.45454545454545" cy="-77.27272727272727" fill="#35C788" r="5"/>
<circle cx="65.45454545454545" cy="-77.27272727272727" fill="#35C788" r="5"/>
<circle cx="65.45454545454545" cy="-92.72727272727273" fill="#35C788" r="5"/>
<circle cx="65.45454545454545" cy="-123.63636363636364" fill="#35C788" r="5"/>
<circle cx="65.45454545454545" cy="-108.18181818181819" fill="#35C788" r="5"/>
<circle cx="65.45454545454545" cy="-108.18181818181819" fill="#35C788" r="5"/>
<circle cx="65.45454545454545" cy="-108.18181818181819" fill="#35C788" r="5"/>
<circle cx="65.45454545454545" cy="-92.72727272727273" fill="#35C788" r="5"/>
<circle cx="65.45454545454545" cy="-92.72727272727273" fill="#35C788" r="5"/>
<circle cx="65.45454545454545" cy="-92.72727272727273" fill="#35C788" r="5"/>
<circle cx="43.63636363636363" cy="-92.72727272727273" fill="#35C788" r="5"/>
<circle cx="43.63636363636363" cy="-108.18181818181819" fill="#35C788" r="5"/>
<circle cx="21.818181818181817" cy="-108.18181818181819" fill="#35C788" r="5"/>
<circle cx="21.818181818181817" cy="-139.0909090909091" fill="#35C788" r="5"/>
<circle cx="43.63636363636363" cy="-123.63636363636364" fill="#35C788" r="5"/>
<circle cx="43.63636363636363" cy="-139.0909090909091" fill="#35C788" r="5"/>
<circle cx="65.45454545454545" cy="-139.0909090909091" fill="#35C788" r="5"/>
<circle cx="87.27272727272727" cy="-139.0909090909091" fill="#35C788" r="5"/>
<circle cx="109.0909090909091" cy="-139.0909090909091" fill="#35C788" r="5"/>
<circle cx="109.0909090909091" cy="-139.0909090909091" fill="#35C788" r="5"/>
<circle cx="109.0909090909091" cy="-139.0909090909091" fill="#35C788" r="5"/>
<circle cx="109.0909090909091" cy="-123.63636363636364" fill="#35C788" r="5"/>
<circle cx="109.0909090909091" cy="-108.18181818181819" fill="#35C788" r="5"/>
<circle cx="87.27272727272727" cy="-123.63636363636364" fill="#35C788" r="5"/>
<circle cx="87.27272727272727" cy="-108.18181818181819" fill="#35C788" r="5"/>
<circle cx="87.27272727272727" cy="-108.18181818181819" fill="#35C788" r="5"/>
<circle cx="87.27272727272727" cy="-92.72727272727273" fill="#35C788" r="5"/>
<circle cx="109.0909090909091" cy="-77.27272727272727" fill="#35C788" r="5"/>
<circle cx="109.0909090909091" cy="-77.27272727272727" fill="#35C788" r="5"/>
<circle cx="109.0909090909091" cy="-77.27272727272727" fill="#35C788" r="5"/>
<circle cx="109.0909090909091" cy="-46.36363636363637" fill="#35C788" r="5"/>
<circle cx="109.0909090909091" cy="-15.454545454545455" fill="#35C788" r="5"/>
<circle cx="130.9090909090909" cy="-15.454545454545455" fill="#35C788" r="5"/>
<circle cx="130.9090909090909" cy="-30.90909090909091" fill="#35C788" r="5"/>
<circle cx="174.54545454545453" cy="-30.90909090909091" fill="#35C788" r="5"/>
<circle cx="174.54545454545453" cy="-15.454545454545455" fill="#35C788" r="5"/>
<circle cx="174.54545454545453" cy="-30.90909090909091" fill="#35C788" r="5"/>
<circle cx="174.54545454545453" cy="-30.90909090909091" fill="#35C788" r="5"/>
<circle cx="152.72727272727272" cy="-30.90909090909091" fill="#35C788" r="5"/>
<circle cx="152.72727272727272" cy="-46.36363636363637" fill="#35C788" r="5"/>
<circle cx="152.72727272727272" cy="-46.36363636363637" fill="#35C788" r="5"/>
<circle cx="152.72727272727272" cy="-77.27272727272727" fill="#35C788" r="5"/>
<circle cx="174.54545454545453" cy="-61.81818181818182" fill="#35C788" r="5"/>
<circle cx="196.36363636363637" cy="-46.36363636363637" fill="#35C788" r="5"/>
<circle cx="218.1818181818182" cy="-61.81818181818182" fill="#35C788" r="5"/>
<circle cx="218.1818181818182" cy="-61.81818181818182" fill="#35C788" r="5"/>
<circle cx="240" cy="-61.81818181818182" fill="#35C788" r="5"/>
<circle cx="240" cy="-46.36363636363637" fill="#35C788" r="5"/>
<circle cx="240" cy="-30.90909090909091" fill="#35C788" r="5"/>
<circle cx="218.1818181818182" cy="-15.454545454545455" fill="#35C788" r="5"/>
<circle cx="218.1818181818182" cy="-30.90909090909091" fill="#35C788" r="5"/>
<circle cx="218.1818181818182" cy="-30.90909090909091" fill="#35C788" r="5"/>
<circle cx="261.8181818181818" cy="-30.90909090909091" fill="#35C788" r="5"/>
<circle cx="261.8181818181818" cy="-46.36363636363637" fill="#35C788" r="5"/>
<circle cx="261.8181818181818" cy="-61.81818181818182" fill="#35C788" r="5"/>
<circle cx="283.6363636363636" cy="-61.81818181818182" fill="#35C788" r="5"/>
<circle cx="305.45454545454544" cy="-61.81818181818182" fill="#35C788" r="5"/>
<circle cx="305.45454545454544" cy="-77.27272727272727" fill="#35C788" r="5"/>
<circle cx="305.45454545454544" cy="-77.27272727272727" fill="#35C788" r="5"/>
<circle cx="327.27272727272725" cy="-61.81818181818182" fill="#35C788" r="5"/>
<circle cx="327.27272727272725" cy="-77.27272727272727" fill="#35C788" r="5"/>
<circle cx="349.09090909090907" cy="-77.27272727272727" fill="#35C788" r="5"/>
<circle cx="349.09090909090907" cy="-77.27272727272727" fill="#35C788" r="5"/>
<circle cx="349.09090909090907" cy="-61.81818181818182" fill="#35C788" r="5"/>
<circle cx="327.27272727272725" cy="-46.36363636363637" fill="#35C788" r="5"/>
<circle cx="327.27272727272725" cy="-46.36363636363637" fill="#35C788" r="5"/>
<circle cx="327.27272727272725" cy="-46.36363636363637" fill="#35C788" r="5"/>
<circle cx="327.27272727272725" cy="-30.90909090909091" fill="#35C788" r="5"/>
<circle cx="349.09090909090907" cy="-30.90909090909091" fill="#35C788" r="5"/>
<circle cx="327.27272727272725" cy="-30.90909090909091" fill="#35C788" r="5"/>
<circle cx="305.45454545454544" cy="-30.90909090909091" fill="#35C788" r="5"/>
<circle cx="305.45454545454544" cy="-30.90909090909091" fill="#35C788" r="5"/>
<circle cx="283.6363636363636" cy="-30.90909090909091" fill="#35C788" r="5"/>
<circle cx="283.6363636363636" cy="-15.454545454545455" fill="#35C788" r="5"/>
<circle cx="305.45454545454544" cy="-15.454545454545455" fill="#35C788" r="5"/>
<circle cx="305.45454545454544" cy="-15.454545454545455" fill="#35C788" r="5"/>
<circle cx="327.27272727272725" cy="-15.454545454545455" fill="#35C788" r="5"/>
<circle cx="370.90909090909093" cy="-15.454545454545455" fill="#35C788" r="5"/>
<circle cx="370.90909090909093" cy="-15.454545454545455" fill="#35C788" r="5"/>
<circle cx="370.90909090909093" cy="-15.454545454545455" fill="#35C788" r="5"/>
<circle cx="392.72727272727275" cy="-15.454545454545455" fill="#35C788" r="5"/>
<circle cx="392.72727272727275" cy="-15.454545454545455" fill="#35C788" r="5"/>
<circle cx="392.72727272727275" cy="-30.90909090909091" fill="#35C788" r="5"/>
<circle cx="370.90909090909093" cy="-30.90909090909091" fill="#35C788" r="5"/>
<circle cx="370.90909090909093" cy="-46.36363636363637" fill="#35C788" r="5"/>
<circle cx="392.72727272727275" cy="-46.36363636363637" fill="#35C788" r="5"/>
<circle cx="392.72727272727275" cy="-46.36363636363637" fill="#35C788" r="5"/>
<circle cx="414.54545454545456" cy="-46.36363636363637" fill="#35C788" r="5"/>
<circle cx="414.54545454545456" cy="-30.90909090909091" fill="#35C788" r="5"/>
<circle cx="414.54545454545456" cy="-15.454545454545455" fill="#35C788" r="5"/>
<circle cx="414.54545454545456" cy="-15.454545454545455" fill="#35C788" r="5"/>
<circle cx="436.3636363636364" cy="-15.454545454545455" fill="#35C788" r="5"/>
<circle cx="436.3636363636364" cy="-15.454545454545455" fill="#35C788" r="5"/>
<circle cx="458.1818181818182" cy="-15.454545454545455" fill="#35C788" r="5"/>
<circle cx="458.1818181818182" cy="-30.90909090909091" fill="#35C788" r="5"/>
<circle cx="458.1818181818182" cy="-61.81818181818182" fill="#35C788" r="5"/>
<circle cx="436.3636363636364" cy="-61.81818181818182" fill="#35C788" r="5"/>
<circle cx="392.72727272727275" cy="-77.27272727272727" fill="#35C788" r="5"/>
<circle cx="370.90909090909093" cy="-77.27272727272727" fill="#35C788" r="5"/>
<circle cx="370.90909090909093" cy="-92.72727272727273" fill="#35C788" r="5"/>
<circle cx="327.27272727272725" cy="-92.72727272727273" fill="#35C788" r="5"/>
<circle cx="327.27272727272725" cy="-92.72727272727273" fill="#35C788" r="5"/>
<circle cx="327.27272727272725" cy="-108.18181818181819" fill="#35C788" r="5"/>
<circle cx="305.45454545454544" cy="-108.18181818181819" fill="#35C788" r="5"/>
<circle cx="327.27272727272725" cy="-123.63636363636364" fill="#35C788" r="5"/>
<circle cx="349.09090909090907" cy="-123.63636363636364" fill="#35C788" r="5"/>
<circle cx="349.09090909090907" cy="-139.0909090909091" fill="#35C788" r="5"/>
<circle cx="370.90909090909093" cy="-139.0909090909091" fill="#35C788" r="5"/>
<circle cx="392.72727272727275" cy="-139.0909090909091" fill="#35C788" r="5"/>
<circle cx="392.72727272727275" cy="-123.63636363636364" fill="#35C788" r="5"/>
<circle cx="392.72727272727275" cy="-123.63636363636364" fill="#35C788" r="5"/>
<circle cx="436.3636363636364" cy="-123.63636363636364" fill="#35C788" r="5"/>
<circle cx="436.3636363636364" cy="-123.63636363636364" fill="#35C788" r="5"/>
<circle cx="436.3636363636364" cy="-108.18181818181819" fill="#35C788" r="5"/>
<circle cx="414.54545454545456" cy="-108.18181818181819" fill="#35C788" r="5"/>
<circle cx="414.54545454545456" cy="-92.72727272727273" fill="#35C788" r="5"/>
<circle cx="414.54545454545456" cy="-92.72727272727273" fill="#35C788" r="5"/>
<circle cx="436.3636363636364" cy="-92.72727272727273" fill="#35C788" r="5"/>
<circle cx="436.3636363636364" cy="-92.72727272727273" fill="#35C788" r="5"/>
<circle cx="458.1818181818182" cy="-92.72727272727273" fill="#35C788" r="5"/>
<circle cx="458.1818181818182" cy="-139.0909090909091" fill="#35C788" r="5"/>
<circle cx="436.3636363636364" cy="-139.0909090909091" fill="#35C788" r="5"/>
<circle cx="414.54545454545456" cy="-139.0909090909091" fill="#35C788" r="5"/>
<circle cx="414.54545454545456" cy="-139.0909090909091" fill="#35C788" r="5"/>
<circle cx="414.54545454545456" cy="-154.54545454545453" fill="#35C788" r="5"/>
<circle cx="436.3636363636364" cy="-170" fill="#35C788" r="5"/>
<circle cx="436.3636363636364" cy="-185.45454545454547" fill="#35C788" r="5"/>
<circle cx="436.3636363636364" cy="-185.45454545454547" fill="#35C788" r="5"/>
<circle cx="458.1818181818182" cy="-185.45454545454547" fill="#35C788" r="5"/>
<circle cx="436.3636363636364" cy="-200.9090909090909" fill="#35C788" r="5"/>
<circle cx="436.3636363636364" cy="-231.8181818181818" fill="#35C788" r="5"/>
<circle cx="414.54545454545456" cy="-216.36363636363637" fill="#35C788" r="5"/>
<circle cx="414.54545454545456" cy="-216.36363636363637" fill="#35C788" r="5"/>
<circle cx="392.72727272727275" cy="-216.36363636363637" fill="#35C788" r="5"/>
<circle cx="370.90909090909093" cy="-231.8181818181818" fill="#35C788" r="5"/>
<circle cx="370.90909090909093" cy="-262.72727272727275" fill="#35C788" r="5"/>
<circle cx="370.90909090909093" cy="-262.72727272727275" fill="#35C788" r="5"/>
<circle cx="370.90909090909093" cy="-278.1818181818182" fill="#35C788" r="5"/>
<circle cx="370.90909090909093" cy="-247.27272727272728" fill="#35C788" r="5"/>
<circle cx="370.90909090909093" cy="-247.27272727272728" fill="#35C788" r="5"/>
<circle cx="392.72727272727275" cy="-247.27272727272728" fill="#35C788" r="5"/>
<circle cx="392.72727272727275" cy="-262.72727272727275" fill="#35C788" r="5"/>
<circle cx="414.54545454545456" cy="-262.72727272727275" fill="#35C788" r="5"/>
<circle cx="436.3636363636364" cy="-278.1818181818182" fill="#35C788" r="5"/>
<circle cx="436.3636363636364" cy="-262.72727272727275" fill="#35C788" r="5"/>
<circle cx="436.3636363636364" cy="-247.27272727272728" fill="#35C788" r="5"/>
<circle cx="458.1818181818182" cy="-231.8181818181818" fill="#35C788" r="5"/>
<circle cx="458.1818181818182" cy="-247.27272727272728" fill="#35C788" r="5"/>
<circle cx="458.1818181818182" cy="-247.27272727272728" fill="#35C788" r="5"/>
<circle cx="458.1818181818182" cy="-262.72727272727275" fill="#35C788" r="5"/>
<circle cx="458.1818181818182" cy="-262.72727272727275" fill="#35C788" r="5"/>
<circle cx="458.1818181818182" cy="-278.1818181818182" fill="#35C788" r="5"/>
<circle cx="458.1818181818182" cy="-278.1818181818182" fill="#35C788" r="5"/>
<circle cx="458.1818181818182" cy="-293.6363636363636" fill="#35C788" r="5"/>
<circle cx="414.54545454545456" cy="-293.6363636363636" fill="#35C788" r="5"/>
<circle cx="414.54545454545456" cy="-324.54545454545456" fill="#35C788" r="5"/>
<circle cx="414.54545454545456" cy="-324.54545454545456" fill="#35C788" r="5"/>
<circle cx="392.72727272727275" cy="-324.54545454545456" fill="#35C788" r="5"/>
<circle cx="392.72727272727275" cy="-309.09090909090907" fill="#35C788" r="5"/>
<circle cx="370.90909090909093" cy="-309.09090909090907" fill="#35C788" r="5"/>
<circle cx="370.90909090909093" cy="-309.09090909090907" fill="#35C788" r="5"/>
<circle cx="370.90909090909093" cy="-309.09090909090907" fill="#35C788" r="5"/>
<circle cx="349.09090909090907" cy="-278.1818181818182" fill="#35C788" r="5"/>
<circle cx="349.09090909090907" cy="-278.1818181818182" fill="#35C788" r="5"/>
<circle cx="349.09090909090907" cy="-293.6363636363636" fill="#35C788" r="5"/>
<circle cx="349.09090909090907" cy="-324.54545454545456" fill="#35C788" r="5"/>
<circle cx="327.27272727272725" cy="-324.54545454545456" fill="#35C788" r="5"/>
<circle cx="261.8181818181818" cy="-324.54545454545456" fill="#35C788" r="5"/>
<circle cx="261.8181818181818" cy="-324.54545454545456" fill="#35C788" r="5"/>
<circle cx="283.6363636363636" cy="-324.54545454545456" fill="#35C788" r="5"/>
<circle cx="283.6363636363636" cy="-309.09090909090907" fill="#35C788" r="5"/>
<circle cx="261.8181818181818" cy="-309.09090909090907" fill="#35C788" r="5"/>
<circle cx="240" cy="-309.09090909090907" fill="#35C788" r="5"/>
<circle cx="240" cy="-293.6363636363636" fill="#35C788" r="5"/>
<circle cx="240" cy="-278.1818181818182" fill="#35C788" r="5"/>
<circle cx="261.8181818181818" cy="-278.1818181818182" fill="#35C788" r="5"/>
<circle cx="261.8181818181818" cy="-278.1818181818182" fill="#35C788" r="5"/>
<circle cx="305.45454545454544" cy="-278.1818181818182" fill="#35C788" r="5"/>
<circle cx="305.45454545454544" cy="-293.6363636363636" fill="#35C788" r="5"/>
<circle cx="305.45454545454544" cy="-293.6363636363636" fill="#35C788" r="5"/>
<circle cx="305.45454545454544" cy="-293.6363636363636" fill="#35C788" r="5"/>
<circle cx="327.27272727272725" cy="-278.1818181818182" fill="#35C788" r="5"/>
<circle cx="327.27272727272725" cy="-262.72727272727275" fill="#35C788" r="5"/>
<circle cx="349.09090909090907" cy="-262.72727272727275" fill="#35C788" r="5"/>
<circle cx="349.09090909090907" cy="-262.72727272727275" fill="#35C788" r="5"/>
<circle cx="349.09090909090907" cy="-247.27272727272728" fill="#35C788" r="5"/>
<circle cx="349.09090909090907" cy="-247.27272727272728" fill="#35C788" r="5"/>
<circle cx="349.09090909090907" cy="-247.27272727272728" fill="#35C788" r="5"/>
<circle cx="349.09090909090907" cy="-231.8181818181818" fill="#35C788" r="5"/>
<circle cx="349.09090909090907" cy="-216.36363636363637" fill="#35C788" r="5"/>
<circle cx="349.09090909090907" cy="-216.36363636363637" fill="#35C788" r="5"/>
<circle cx="349.09090909090907" cy="-200.9090909090909" fill="#35C788" r="5"/>
<circle cx="349.09090909090907" cy="-200.9090909090909" fill="#35C788" r="5"/>
<circle cx="370.90909090909093" cy="-200.9090909090909" fill="#35C788" r="5"/>
<circle cx="370.90909090909093" cy="-185.45454545454547" fill="#35C788" r="5"/>
<circle cx="392.72727272727275" cy="-170" fill="#35C788" r="5"/>
<circle cx="370.90909090909093" cy="-154.54545454545453" fill="#35C788" r="5"/>
<circle cx="392.72727272727275" cy="-154.54545454545453" fill="#35C788" r="5"/>
<circle cx="370.90909090909093" cy="-154.54545454545453" fill="#35C788" r="5"/>
<circle cx="349.09090909090907" cy="-154.54545454545453" fill="#35C788" r="5"/>
<circle cx="327.27272727272725" cy="-170" fill="#35C788" r="5"/>
<circle cx="327.27272727272725" cy="-154.54545454545453" fill="#35C788" r="5"/>
<circle cx="327.27272727272725" cy="-139.0909090909091" fill="#35C788" r="5"/>
<circle cx="327.27272727272725" cy="-139.0909090909091" fill="#35C788" r="5"/>
<circle cx="305.45454545454544" cy="-139.0909090909091" fill="#35C788" r="5"/>
<circle cx="305.45454545454544" cy="-154.54545454545453" fill="#35C788" r="5"/>
<circle cx="305.45454545454544" cy="-154.54545454545453" fill="#35C788" r="5"/>
<circle cx="283.6363636363636" cy="-154.54545454545453" fill="#35C788" r="5"/>
<circle cx="283.6363636363636" cy="-154.54545454545453" fill="#35C788" r="5"/>
<circle cx="261.8181818181818" cy="-170" fill="#35C788" r="5"/>
<circle cx="240" cy="-185.45454545454547" fill="#35C788" r="5"/>
<circle cx="240" cy="-200.9090909090909" fill="#35C788" r="5"/>
<circle cx="261.8181818181818" cy="-200.9090909090909" fill="#35C788" r="5"/>
<circle cx="283.6363636363636" cy="-185.45454545454547" fill="#35C788" r="5"/>
<circle cx="305.45454545454544" cy="-185.45454545454547" fill="#35C788" r="5"/>
<circle cx="305.45454545454544" cy="-185.45454545454547" fill="#35C788" r="5"/>
<circle cx="305.45454545454544" cy="-200.9090909090909" fill="#35C788" r="5"/>
<circle cx="305.45454545454544" cy="-216.36363636363637" fill="#35C788" r="5"/>
<circle cx="283.6363636363636" cy="-216.36363636363637" fill="#35C788" r="5"/>
<circle cx="283.6363636363636" cy="-231.8181818181818" fill="#35C788" r="5"/>
<circle cx="283.6363636363636" cy="-231.8181818181818" fill="#35C788" r="5"/>
<circle cx="240" cy="-216.36363636363637" fill="#35C788" r="5"/>
<circle cx="261.8181818181818" cy="-216.36363636363637" fill="#35C788" r="5"/>
<circle cx="261.8181818181818" cy="-231.8181818181818" fill="#35C788" r="5"/>
<circle cx="261.8181818181818" cy="-231.8181818181818" fill="#35C788" r="5"/>
<circle cx="261.8181818181818" cy="-247.27272727272728" fill="#35C788" r="5"/>
<circle cx="283.6363636363636" cy="-247.27272727272728" fill="#35C788" r="5"/>
<circle cx="283.6363636363636" cy="-247.27272727272728" fill="#35C788" r="5"/>
<circle cx="283.6363636363636" cy="-262.72727272727275" fill="#35C788" r="5"/>
<circle cx="218.1818181818182" cy="-262.72727272727275" fill="#35C788" r="5"/>
<circle cx="218.1818181818182" cy="-324.54545454545456" fill="#35C788" r="5"/>
<circle cx="196.36363636363637" cy="-309.09090909090907" fill="#35C788" r="5"/>
<circle cx="196.36363636363637" cy="-309.09090909090907" fill="#35C788" r="5"/>
<circle cx="196.36363636363637" cy="-293.6363636363636" fill="#35C788" r="5"/>
<circle cx="174.54545454545453" cy="-293.6363636363636" fill="#35C788" r="5"/>
<circle cx="174.54545454545453" cy="-293.6363636363636" fill="#35C788" r="5"/>
<circle cx="174.54545454545453" cy="-278.1818181818182" fill="#35C788" r="5"/>
<circle cx="152.72727272727272" cy="-278.1818181818182" fill="#35C788" r="5"/>
<circle cx="152.72727272727272" cy="-278.1818181818182" fill="#35C788" r="5"/>
<circle cx="152.72727272727272" cy="-262.72727272727275" fill="#35C788" r="5"/>
<circle cx="130.9090909090909" cy="-262.72727272727275" fill="#35C788" r="5"/>
<circle cx="130.9090909090909" cy="-262.72727272727275" fill="#35C788" r="5"/>
<circle cx="130.9090909090909" cy="-262.72727272727275" fill="#35C788" r="5"/>
<circle cx="130.9090909090909" cy="-247.27272727272728" fill="#35C788" r="5"/>
<circle cx="109.0909090909091" cy="-247.27272727272728" fill="#35C788" r="5"/>
<circle cx="130.9090909090909" cy="-231.8181818181818" fill="#35C788" r="5"/>
<circle cx="130.9090909090909" cy="-231.8181818181818" fill="#35C788" r="5"/>
<circle cx="130.9090909090909" cy="-216.36363636363637" fill="#35C788" r="5"/>
<circle cx="174.54545454545453" cy="-231.8181818181818" fill="#35C788" r="5"/>
<circle cx="196.36363636363637" cy="-231.8181818181818" fill="#35C788" r="5"/>
<circle cx="174.54545454545453" cy="-216.36363636363637" fill="#35C788" r="5"/>
<circle cx="152.72727272727272" cy="-216.36363636363637" fill="#35C788" r="5"/>
<circle cx="152.72727272727272" cy="-200.9090909090909" fill="#35C788" r="5"/>
<circle cx="152.72727272727272" cy="-200.9090909090909" fill="#35C788" r="5"/>
<circle cx="109.0909090909091" cy="-185.45454545454547" fill="#35C788" r="5"/>
<circle cx="109.0909090909091" cy="-216.36363636363637" fill="#35C788" r="5"/>
<circle cx="87.27272727272727" cy="-216.36363636363637" fill="#35C788" r="5"/>
<circle cx="87.27272727272727" cy="-216.36363636363637" fill="#35C788" r="5"/>
<circle cx="87.27272727272727" cy="-216.36363636363637" fill="#35C788" r="5"/>
<circle cx="65.45454545454545" cy="-216.36363636363637" fill="#35C788" r="5"/>
<circle cx="65.45454545454545" cy="-231.8181818181818" fill="#35C788" r="5"/>
<circle cx="65.45454545454545" cy="-247.27272727272728" fill="#35C788" r="5"/>
<circle cx="43.63636363636363" cy="-247.27272727272728" fill="#35C788" r="5"/>
<circle cx="43.63636363636363" cy="-216.36363636363637" fill="#35C788" r="5"/>
<circle cx="43.63636363636363" cy="-200.9090909090909" fill="#35C788" r="5"/>
<circle cx="43.63636363636363" cy="-185.45454545454547" fill="#35C788" r="5"/>
<circle cx="65.45454545454545" cy="-185.45454545454547" fill="#35C788" r="5"/>
<circle cx="87.27272727272727" cy="-185.45454545454547" fill="#35C788" r="5"/>
<circle cx="87.27272727272727" cy="-170" fill="#35C788" r="5"/>
<circle cx="87.27272727272727" cy="-170" fill="#35C788" r="5"/>
<circle cx="87.27272727272727" cy="-247.27272727272728" fill="#35C788" r="5"/>
<circle cx="87.27272727272727" cy="-262.72727272727275" fill="#35C788" r="5"/>
<circle cx="87.27272727272727" cy="-262.72727272727275" fill="#35C788" r="5"/>
<circle cx="109.0909090909091" cy="-262.72727272727275" fill="#35C788" r="5"/>
<circle cx="109.0909090909091" cy="-278.1818181818182" fill="#35C788" r="5"/>
<circle cx="109.0909090909091" cy="-278.1818181818182" fill="#35C788" r="5"/>
<circle cx="109.0909090909091" cy="-293.6363636363636" fill="#35C788" r="5"/>
<circle cx="130.9090909090909" cy="-293.6363636363636" fill="#35C788" r="5"/>
<circle cx="130.9090909090909" cy="-293.6363636363636" fill="#35C788" r="5"/>
<circle cx="130.9090909090909" cy="-293.6363636363636" fill="#35C788" r="5"/>
<circle cx="130.9090909090909" cy="-293.6363636363636" fill="#35C788" r="5"/>
<circle cx="152.72727272727272" cy="-293.6363636363636" fill="#35C788" r="5"/>
<circle cx="152.72727272727272" cy="-309.09090909090907" fill="#35C788" r="5"/>
<circle cx="152.72727272727272" cy="-309.09090909090907" fill="#35C788" r="5"/>
<circle cx="174.54545454545453" cy="-309.09090909090907" fill="#35C788" r="5"/>
<circle cx="174.54545454545453" cy="-309.09090909090907" fill="#35C788" r="5"/>
<circle cx="152.72727272727272" cy="-324.54545454545456" fill="#35C788" r="5"/>
<circle cx="130.9090909090909" cy="-324.54545454545456" fill="#35C788" r="5"/>
<circle cx="130.9090909090909" cy="-309.09090909090907" fill="#35C788" r="5"/>
<circle cx="109.0909090909091" cy="-309.09090909090907" fill="#35C788" r="5"/>
<circle cx="109.0909090909091" cy="-309.09090909090907" fill="#35C788" r="5"/>
<circle cx="87.27272727272727" cy="-309.09090909090907" fill="#35C788" r="5"/>
<circle cx="87.27272727272727" cy="-309.09090909090907" fill="#35C788" r="5"/>
<circle cx="87.27272727272727" cy="-309.09090909090907" fill="#35C788" r="5"/>
<circle cx="87.27272727272727" cy="-324.54545454545456" fill="#35C788" r="5"/>
<circle cx="65.45454545454545" cy="-324.54545454545456" fill="#35C788" r="5"/>
<circle cx="65.45454545454545" cy="-309.09090909090907" fill="#35C788" r="5"/>
<circle cx="65.45454545454545" cy="-309.09090909090907" fill="#35C788" r="5"/>
<circle cx="65.45454545454545" cy="-293.6363636363636" fill="#35C788" r="5"/>
<circle cx="65.45454545454545" cy="-293.6363636363636" fill="#35C788" r="5"/>
<circle cx="65.45454545454545" cy="-278.1818181818182" fill="#35C788" r="5"/>
<circle cx="43.63636363636363" cy="-262.72727272727275" fill="#35C788" r="5"/>
<circle cx="43.63636363636363" cy="-262.72727272727275" fill="#35C788" r="5"/>
<circle cx="21.818181818181817" cy="-278.1818181818182" fill="#35C788" r="5"/>
<circle cx="21.818181818181817" cy="-293.6363636363636" fill="#35C788" r="5"/>
<circle cx="21.818181818181817" cy="-309.09090909090907" fill="#35C788" r="5"/>
<circle cx="21.818181818181817" cy="-293.6363636363636" fill="#35C788" r="5"/>
<circle cx="21.818181818181817" cy="-262.72727272727275" fill="#35C788" r="5"/>
<circle cx="21.818181818181817" cy="-262.72727272727275" fill="#35C788" r="5"/>
<circle cx="21.818181818181817" cy="-262.72727272727275" fill="#35C788" r="5"/>
<circle cx="21.818181818181817" cy="-247.27272727272728" fill="#35C788" r="5"/>
<circle cx="21.818181818181817" cy="-231.8181818181818" fill="#35C788" r="5"/>
<circle cx="21.818181818181817" cy="-216.36363636363637" fill="#35C788" r="5"/>
<circle cx="21.818181818181817" cy="-170" fill="#35C788" r="5"/>
<circle cx="65.45454545454545" cy="-170" fill="#35C788" r="5"/>
<circle cx="65.45454545454545" cy="-154.54545454545453" fill="#35C788" r="5"/>
<circle cx="87.27272727272727" cy="-154.54545454545453" fill="#35C788" r="5"/>
<circle cx="109.0909090909091" cy="-154.54545454545453" fill="#35C788" r="5"/>
<circle cx="109.0909090909091" cy="-170" fill="#35C788" r="5"/>
<circle cx="130.9090909090909" cy="-170" fill="#35C788" r="5"/>
<circle cx="130.9090909090909" cy="-170" fill="#35C788" r="5"/>
<circle cx="130.9090909090909" cy="-170" fill="#35C788" r="5"/>
<circle cx="152.72727272727272" cy="-170" fill="#35C788" r="5"/>
<circle cx="152.72727272727272" cy="-154.54545454545453" fill="#35C788" r="5"/>
<circle cx="174.54545454545453" cy="-154.54545454545453" fill="#35C788" r="5"/>
<circle cx="196.36363636363637" cy="-154.54545454545453" fill="#35C788" r="5"/>
<circle cx="196.36363636363637" cy="-170" fill="#35C788" r="5"/>
<circle cx="196.36363636363637" cy="-170" fill="#35C788" r="5"/>
<circle cx="196.36363636363637" cy="-200.9090909090909" fill="#35C788" r="5"/>
<circle cx="196.36363636363637" cy="-200.9090909090909" fill="#35C788" r="5"/>
<circle cx="196.36363636363637" cy="-185.45454545454547" fill="#35C788" r="5"/>
<circle cx="196.36363636363637" cy="-185.45454545454547" fill="#35C788" r="5"/>
<circle cx="196.36363636363637" cy="-185.45454545454547" fill="#35C788" r="5"/>
<circle cx="218.1818181818182" cy="-185.45454545454547" fill="#35C788" r="5"/>
<circle cx="218.1818181818182" cy="-185.45454545454547" fill="#35C788" r="5"/>
<circle cx="218.1818181818182" cy="-170" fill="#35C788" r="5"/>
<circle cx="218.1818181818182" cy="-170" fill="#35C788" r="5"/>
<circle cx="240" cy="-170" fill="#35C788" r="5"/>
<circle cx="240" cy="-170" fill="#35C788" r="5"/>
<circle cx="240" cy="-170" fill="#35C788" r="5"/>
<circle cx="240" cy="-170" fill="#35C788" r="5"/>
<circle cx="240" cy="-154.54545454545453" fill="#35C788" r="5"/>
<circle cx="240" cy="-154.54545454545453" fill="#35C788" r="5"/>
<circle cx="240" cy="-139.0909090909091" fill="#35C788" r="5"/>
<circle cx="261.8181818181818" cy="-139.0909090909091" fill="#35C788" r="5"/>
<circle cx="283.6363636363636" cy="-123.63636363636364" fill="#35C788" r="5"/>
<circle cx="283.6363636363636" cy="-123.63636363636364" fill="#35C788" r="5"/>
<circle cx="261.8181818181818" cy="-123.63636363636364" fill="#35C788" r="5"/>
<circle cx="261.8181818181818" cy="-92.72727272727273" fill="#35C788" r="5"/>
<circle cx="240" cy="-92.72727272727273" fill="#35C788" r="5"/>
<circle cx="240" cy="-77.27272727272727" fill="#35C788" r="5"/>
<circle cx="218.1818181818182" cy="-77.27272727272727" fill="#35C788" r="5"/>
<circle cx="218.1818181818182" cy="-77.27272727272727" fill="#35C788" r="5"/>
<circle cx="218.1818181818182" cy="-77.27272727272727" fill="#35C788" r="5"/>
<circle cx="218.1818181818182" cy="-92.72727272727273" fill="#35C788" r="5"/>
<circle cx="240" cy="-108.18181818181819" fill="#35C788" r="5"/>
<circle cx="218.1818181818182" cy="-108.18181818181819" fill="#35C788" r="5"/>
<circle cx="218.1818181818182" cy="-108.18181818181819" fill="#35C788" r="5"/>
<circle cx="218.1818181818182" cy="-108.18181818181819" fill="#35C788" r="5"/>
<circle cx="196.36363636363637" cy="-108.18181818181819" fill="#35C788" r="5"/>
<circle cx="174.54545454545453" cy="-108.18181818181819" fill="#35C788" r="5"/>
<circle cx="174.54545454545453" cy="-92.72727272727273" fill="#35C788" r="5"/>
<circle cx="174.54545454545453" cy="-92.72727272727273" fill="#35C788" r="5"/>
<circle cx="174.54545454545453" cy="-92.72727272727273" fill="#35C788" r="5"/>
<circle cx="152.72727272727272" cy="-92.72727272727273" fill="#35C788" r="5"/>
<circle cx="152.72727272727272" cy="-108.18181818181819" fill="#35C788" r="5"/>
<circle cx="152.72727272727272" cy="-108.18181818181819" fill="#35C788" r="5"/>
<circle cx="152.72727272727272" cy="-123.63636363636364" fill="#35C788" r="5"/>
<circle cx="130.9090909090909" cy="-123.63636363636364" fill="#35C788" r="5"/>
<circle cx="130.9090909090909" cy="-123.63636363636364" fill="#35C788" r="5"/>
<circle cx="130.9090909090909" cy="-108.18181818181819" fill="#35C788" r="5"/>
<circle cx="130.9090909090909" cy="-108.18181818181819" fill="#35C788" r="5"/>
<circle cx="109.0909090909091" cy="-92.72727272727273" fill="#35C788" r="5"/>
<circle cx="109.0909090909091" cy="-92.72727272727273" fill="#35C788" r="5"/>
</g>
</g>
<g>
<g>
<path d="M109.09091,-92.72727 L109.09091,-92.72727 L109.09091,-77.27273 L130.90909,-77.27273 L130.90909,-77.27273 L130.90909,-77.27273 L130.90909,-77.27273 L130.90909,-61.81818 L109.09091,-61.81818 L65.454544,-61.81818 L65.454544,-46.363636 L87.27273,-30.90909 L87.27273,-30.90909 L87.27273,-30.90909 L87.27273,-30.90909 L87.27273,-30.90909 L87.27273,-30.90909 L87.27273,-15.454545 L65.454544,-15.454545 L43.636364,-30.90909 L21.818182,-15.454545 L21.818182,-15.454545 L21.818182,-30.90909 L21.818182,-46.363636 L43.636364,-46.363636 L43.636364,-61.81818 L43.636364,-77.27273 L43.636364,-77.27273 L65.454544,-77.27273 L65.454544,-77.27273 L65.454544,-92.72727 L65.454544,-123.63636 L65.454544,-108.181816 L65.454544,-108.181816 L65.454544,-108.181816 L65.454544,-92.72727 L65.454544,-92.72727 L65.454544,-92.72727 L43.636364,-92.72727 L43.636364,-108.181816 L21.818182,-108.181816 L21.818182,-139.09091 L43.636364,-123.63636 L43.636364,-139.09091 L65.454544,-139.09091 L87.27273,-139.09091 L109.09091,-139.09091 L109.09091,-139.09091 L109.09091,-139.09091 L109.09091,-123.63636 L109.09091,-108.181816 L87.27273,-123.63636 L87.27273,-108.181816 L87.27273,-108.181816 L87.27273,-92.72727 L109.09091,-77.27273 L109.09091,-77.27273 L109.09091,-77.27273 L109.09091,-46.363636 L109.09091,-15.454545 L130.90909,-15.454545 L130.90909,-30.90909 L174.54546,-30.90909 L174.54546,-15.454545 L174.54546,-30.90909 L174.54546,-30.90909 L152.72728,-30.90909 L152.72728,-46.363636 L152.72728,-46.363636 L152.72728,-77.27273 L174.54546,-61.81818 L196.36363,-46.363636 L218.18182,-61.81818 L218.18182,-61.81818 L240,-61.81818 L240,-46.363636 L240,-30.90909 L218.18182,-15.454545 L218.18182,-30.90909 L218.18182,-30.90909 L261.81818,-30.90909 L261.81818,-46.363636 L261.81818,-61.81818 L283.63635,-61.81818 L305.45456,-61.81818 L305.45456,-77.27273 L305.45456,-77.27273 L327.27274,-61.81818 L327.27274,-77.27273 L349.0909,-77.27273 L349.0909,-77.27273 L349.0909,-61.81818 L327.27274,-46.363636 L327.27274,-46.363636 L327.27274,-46.363636 L327.27274,-30.90909 L349.0909,-30.90909 L327.27274,-30.90909 L305.45456,-30.90909 L305.45456,-30.90909 L283.63635,-30.90909 L283.63635,-15.454545 L305.45456,-15.454545 L305.45456,-15.454545 L327.27274,-15.454545 L370.9091,-15.454545 L370.9091,-15.454545 L370.9091,-15.454545 L392.72726,-15.454545 L392.72726,-15.454545 L392.72726,-30.90909 L370.9091,-30.90909 L370.9091,-46.363636 L392.72726,-46.363636 L392.72726,-46.363636 L414.54544,-46.363636 L414.54544,-30.90909 L414.54544,-15.454545 L414.54544,-15.454545 L436.36365,-15.454545 L436.36365,-15.454545 L458.18182,-15.454545 L458.18182,-30.90909 L458.18182,-61.81818 L436.36365,-61.81818 L392.72726,-77.27273 L370.9091,-77.27273 L370.9091,-92.72727 L327.27274,-92.72727 L327.27274,-92.72727 L327.27274,-108.181816 L305.45456,-108.181816 L327.27274,-123.63636 L349.0909,-123.63636 L349.0909,-139.09091 L370.9091,-139.09091 L392.72726,-139.09091 L392.72726,-123.63636 L392.72726,-123.63636 L436.36365,-123.63636 L436.36365,-123.63636 L436.36365,-108.181816 L414.54544,-108.181816 L414.54544,-92.72727 L414.54544,-92.72727 L436.36365,-92.72727 L436.36365,-92.72727 L458.18182,-92.72727 L458.18182,-139.09091 L436.36365,-139.09091 L414.54544,-139.09091 L414.54544,-139.09091 L414.54544,-154.54546 L436.36365,-170 L436.36365,-185.45454 L436.36365,-185.45454 L458.18182,-185.45454 L436.36365,-200.90909 L436.36365,-231.81818 L414.54544,-216.36363 L414.54544,-216.36363 L392.72726,-216.36363 L370.9091,-231.81818 L370.9091,-262.72726 L370.9091,-262.72726 L370.9091,-278.18182 L370.9091,-247.27272 L370.9091,-247.27272 L392.72726,-247.27272 L392.72726,-262.72726 L414.54544,-262.72726 L436.36365,-278.18182 L436.36365,-262.72726 L436.36365,-247.27272 L458.18182,-231.81818 L458.18182,-247.27272 L458.18182,-247.27272 L458.18182,-262.72726 L458.18182,-262.72726 L458.18182,-278.18182 L458.18182,-278.18182 L458.18182,-293.63635 L414.54544,-293.63635 L414.54544,-324.54544 L414.54544,-324.54544 L392.72726,-324.54544 L392.72726,-309.0909 L370.9091,-309.0909 L370.9091,-309.0909 L370.9091,-309.0909 L349.0909,-278.18182 L349.0909,-278.18182 L349.0909,-293.63635 L349.0909,-324.54544 L327.27274,-324.54544 L261.81818,-324.54544 L261.81818,-324.54544 L283.63635,-324.54544 L283.63635,-309.0909 L261.81818,-309.0909 L240,-309.0909 L240,-293.63635 L240,-278.18182 L261.81818,-278.18182 L261.81818,-278.18182 L305.45456,-278.18182 L305.45456,-293.63635 L305.45456,-293.63635 L305.45456,-293.63635 L327.27274,-278.18182 L327.27274,-262.72726 L349.0909,-262.72726 L349.0909,-262.72726 L349.0909,-247.27272 L349.0909,-247.27272 L349.0909,-247.27272 L349.0909,-231.81818 L349.0909,-216.36363 L349.0909,-216.36363 L349.0909,-200.90909 L349.0909,-200.90909 L370.9091,-200.90909 L370.9091,-185.45454 L392.72726,-170 L370.9091,-154.54546 L392.72726,-154.54546 L370.9091,-154.54546 L349.0909,-154.54546 L327.27274,-170 L327.27274,-154.54546 L327.27274,-139.09091 L327.27274,-139.09091 L305.45456,-139.09091 L305.45456,-154.54546 L305.45456,-154.54546 L283.63635,-154.54546 L283.63635,-154.54546 L261.81818,-170 L240,-185.45454 L240,-200.90909 L261.81818,-200.90909 L283.63635,-185.45454 L305.45456,-185.45454 L305.45456,-185.45454 L305.45456,-200.90909 L305.45456,-216.36363 L283.63635,-216.36363 L283.63635,-231.81818 L283.63635,-231.81818 L240,-216.36363 L261.81818,-216.36363 L261.81818,-231.81818 L261.81818,-231.81818 L261.81818,-247.27272 L283.63635,-247.27272 L283.63635,-247.27272 L283.63635,-262.72726 L218.18182,-262.72726 L218.18182,-324.54544 L196.36363,-309.0909 L196.36363,-309.0909 L196.36363,-293.63635 L174.54546,-293.63635 L174.54546,-293.63635 L174.54546,-278.18182 L152.72728,-278.18182 L152.72728,-278.18182 L152.72728,-262.72726 L130.90909,-262.72726 L130.90909,-262.72726 L130.90909,-262.72726 L130.90909,-247.27272 L109.09091,-247.27272 L130.90909,-231.81818 L130.90909,-231.81818 L130.90909,-216.36363 L174.54546,-231.81818 L196.36363,-231.81818 L174.54546,-216.36363 L152.72728,-216.36363 L152.72728,-200.90909 L152.72728,-200.90909 L109.09091,-185.45454 L109.09091,-216.36363 L87.27273,-216.36363 L87.27273,-216.36363 L87.27273,-216.36363 L65.454544,-216.36363 L65.454544,-231.81818 L65.454544,-247.27272 L43.636364,-247.27272 L43.636364,-216.36363 L43.636364,-200.90909 L43.636364,-185.45454 L65.454544,-185.45454 L87.27273,-185.45454 L87.27273,-170 L87.27273,-170 L87.27273,-247.27272 L87.27273,-262.72726 L87.27273,-262.72726 L109.09091,-262.72726 L109.09091,-278.18182 L109.09091,-278.18182 L109.09091,-293.63635 L130.90909,-293.63635 L130.90909,-293.63635 L130.90909,-293.63635 L130.90909,-293.63635 L152.72728,-293.63635 L152.72728,-309.0909 L152.72728,-309.0909 L174.54546,-309.0909 L174.54546,-309.0909 L152.72728,-324.54544 L130.90909,-324.54544 L130.90909,-309.0909 L109.09091,-309.0909 L109.09091,-309.0909 L87.27273,-309.0909 L87.27273,-309.0909 L87.27273,-309.0909 L87.27273,-324.54544 L65.454544,-324.54544 L65.454544,-309.0909 L65.454544,-309.0909 L65.454544,-293.63635 L65.454544,-293.63635 L65.454544,-278.18182 L43.636364,-262.72726 L43.636364,-262.72726 L21.818182,-278.18182 L21.818182,-293.63635 L21.818182,-309.0909 L21.818182,-293.63635 L21.818182,-262.72726 L21.818182,-262.72726 L21.818182,-262.72726 L21.818182,-247.27272 L21.818182,-231.81818 L21.818182,-216.36363 L21.818182,-170 L65.454544,-170 L65.454544,-154.54546 L87.27273,-154.54546 L109.09091,-154.54546 L109.09091,-170 L130.90909,-170 L130.90909,-170 L130.90909,-170 L152.72728,-170 L152.72728,-154.54546 L174.54546,-154.54546 L196.36363,-154.54546 L196.36363,-170 L196.36363,-170 L196.36363,-200.90909 L196.36363,-200.90909 L196.36363,-185.45454 L196.36363,-185.45454 L196.36363,-185.45454 L218.18182,-185.45454 L218.18182,-185.45454 L218.18182,-170 L218.18182,-170 L240,-170 L240,-170 L240,-170 L240,-170 L240,-154.54546 L240,-154.54546 L240,-139.09091 L261.81818,-139.09091 L283.63635,-123.63636 L283.63635,-123.63636 L261.81818,-123.63636 L261.81818,-92.72727 L240,-92.72727 L240,-77.27273 L218.18182,-77.27273 L218.18182,-77.27273 L218.18182,-77.27273 L218.18182,-92.72727 L240,-108.181816 L218.18182,-108.181816 L218.18182,-108.181816 L218.18182,-108.181816 L196.36363,-108.181816 L174.54546,-108.181816 L174.54546,-92.72727 L174.54546,-92.72727 L174.54546,-92.72727 L152.72728,-92.72727 L152.72728,-108.181816 L152.72728,-108.181816 L152.72728,-123.63636 L130.90909,-123.63636 L130.90909,-123.63636 L130.90909,-108.181816 L130.90909,-108.181816 L109.09091,-92.72727 L109.09091,-92.72727" fill="none" stroke="#35C788" stroke-linejoin="round" stroke-width="2"/>
</g>
</g>
<g>
<g>
<line stroke="black" stroke-width="1" x1="0" x2="0" y1="0" y2="10"/>
<line stroke="black" stroke-width="1" x1="87.27272727272727" x2="87.27272727272727" y1="0" y2="10"/>
<line stroke="black" stroke-width="1" x1="174.54545454545453" x2="174.54545454545453" y1="0" y2="10"/>
<line stroke="black" stroke-width="1" x1="261.8181818181818" x2="261.8181818181818" y1="0" y2="10"/>
<line stroke="black" stroke-width="1" x1="349.09090909090907" x2="349.09090909090907" y1="0" y2="10"/>
<line stroke="black" stroke-width="1" x1="436.3636363636364" x2="436.3636363636364" y1="0" y2="10"/>
</g>
<line stroke="black" stroke-width="1" x1="0" x2="480" y1="0" y2="0"/>
<g>
<text font-size="12" text-anchor="middle" x="0" y="20">
0
</text>
<text font-size="12" text-anchor="middle" x="87.27272727272727" y="20">
4
</text>
<text font-size="12" text-anchor="middle" x="174.54545454545453" y="20">
8
</text>
<text font-size="12" text-anchor="middle" x="261.8181818181818" y="20">
12
</text>
<text font-size="12" text-anchor="middle" x="349.09090909090907" y="20">
16
</text>
<text font-size="12" text-anchor="middle" x="436.3636363636364" y="20">
20
</text>
</g>
<text font-size="12" text-anchor="middle" x="240" y="30">
City x coordinate. Cities: 400, temperature: 0.09900000000010267
</text>
</g>
<g>
<g>
<line stroke="black" stroke-width="1" x1="0" x2="-10" y1="0" y2="0"/>
<line stroke="black" stroke-width="1" x1="0" x2="-10" y1="-61.81818181818182" y2="-61.81818181818182"/>
<line stroke="black" stroke-width="1" x1="0" x2="-10" y1="-123.63636363636364" y2="-123.63636363636364"/>
<line stroke="black" stroke-width="1" x1="0" x2="-10" y1="-185.45454545454547" y2="-185.45454545454547"/>
<line stroke="black" stroke-width="1" x1="0" x2="-10" y1="-247.27272727272728" y2="-247.27272727272728"/>
<line stroke="black" stroke-width="1" x1="0" x2="-10" y1="-309.09090909090907" y2="-309.09090909090907"/>
</g>
<line stroke="black" stroke-width="1" x1="0" x2="0" y1="0" y2="-340"/>
<g>
<text dominant-baseline="middle" font-size="12" text-anchor="end" x="-15" y="0">
0
</text>
<text dominant-baseline="middle" font-size="12" text-anchor="end" x="-15" y="-61.81818181818182">
4
</text>
<text dominant-baseline="middle" font-size="12" text-anchor="end" x="-15" y="-123.63636363636364">
8
</text>
<text dominant-baseline="middle" font-size="12" text-anchor="end" x="-15" y="-185.45454545454547">
12
</text>
<text dominant-baseline="middle" font-size="12" text-anchor="end" x="-15" y="-247.27272727272728">
16
</text>
<text dominant-baseline="middle" font-size="12" text-anchor="end" x="-15" y="-309.09090909090907">
20
</text>
</g>
<text font-size="12" text-anchor="middle" transform="rotate(-90 -24 -170)" x="-24" y="-182">
City y coordinate. Cities: 400, temperature: 0.09900000000010267
</text>
</g>
</g>
</svg>