<svg viewBox="0 0 600 400" xmlns="http://www.w3.org/2000/svg">
<g transform="translate(72, 364)">
<g>
<g>
<circle cx="322.97287294695246" cy="-158.38092807975553" fill="#35C788" r="5"/>
<circle cx="149.06440289859344" cy="-228.77245167075802" fill="#35C788" r="5"/>
<circle cx="124.22033574882788" cy="-87.98940448875308" fill="#35C788" r="5"/>
<circle cx="149.06440289859344" cy="-193.5766898752568" fill="#35C788" r="5"/>
<circle cx="372.6610072464836" cy="-263.9682134662592" fill="#35C788" r="5"/>
<circle cx="74.53220144929672" cy="-246.37033256850862" fill="#35C788" r="5"/>
<circle cx="322.97287294695246" cy="-87.98940448875308" fill="#35C788" r="5"/>
<circle cx="99.3762685990623" cy="-263.9682134662592" fill="#35C788" r="5"/>
<circle cx="24.844067149765575" cy="-228.77245167075802" fill="#35C788" r="5"/>
<circle cx="49.68813429953115" cy="-175.97880897750616" fill="#35C788" r="5"/>
<circle cx="347.81694009671804" cy="-87.98940448875308" fill="#35C788" r="5"/>
<circle cx="322.97287294695246" cy="-140.78304718200494" fill="#35C788" r="5"/>
<circle cx="397.5050743962492" cy="-70.39152359100247" fill="#35C788" r="5"/>
<circle cx="273.2847386474213" cy="-35.195761795501234" fill="#35C788" r="5"/>
<circle cx="347.81694009671804" cy="-175.97880897750616" fill="#35C788" r="5"/>
<circle cx="347.81694009671804" cy="-246.37033256850862" fill="#35C788" r="5"/>
<circle cx="223.59660434789018" cy="-193.5766898752568" fill="#35C788" r="5"/>
<circle cx="298.1288057971869" cy="-228.77245167075802" fill="#35C788" r="5"/>
<circle cx="447.19320869578036" cy="-263.9682134662592" fill="#35C788" r="5"/>
<circle cx="24.844067149765575" cy="-246.37033256850862" fill="#35C788" r="5"/>
<circle cx="173.90847004835902" cy="-17.597880897750617" fill="#35C788" r="5"/>
<circle cx="447.19320869578036" cy="-299.16397526176047" fill="#35C788" r="5"/>
<circle cx="397.5050743962492" cy="-263.9682134662592" fill="#35C788" r="5"/>
<circle cx="124.22033574882788" cy="-123.18516628425431" fill="#35C788" r="5"/>
<circle cx="298.1288057971869" cy="-228.77245167075802" fill="#35C788" r="5"/>
<circle cx="74.53220144929672" cy="-175.97880897750616" fill="#35C788" r="5"/>
<circle cx="248.44067149765576" cy="-158.38092807975553" fill="#35C788" r="5"/>
<circle cx="397.5050743962492" cy="-281.56609436400987" fill="#35C788" r="5"/>
<circle cx="447.19320869578036" cy="-158.38092807975553" fill="#35C788" r="5"/>
<circle cx="322.97287294695246" cy="-52.79364269325185" fill="#35C788" r="5"/>
<circle cx="298.1288057971869" cy="-140.78304718200494" fill="#35C788" r="5"/>
<circle cx="74.53220144929672" cy="-123.18516628425431" fill="#35C788" r="5"/>
<circle cx="173.90847004835902" cy="-158.38092807975553" fill="#35C788" r="5"/>
<circle cx="223.59660434789018" cy="-316.76185615951107" fill="#35C788" r="5"/>
<circle cx="24.844067149765575" cy="-17.597880897750617" fill="#35C788" r="5"/>
<circle cx="248.44067149765576" cy="-70.39152359100247" fill="#35C788" r="5"/>
<circle cx="24.844067149765575" cy="-52.79364269325185" fill="#35C788" r="5"/>
<circle cx="347.81694009671804" cy="-70.39152359100247" fill="#35C788" r="5"/>
<circle cx="24.844067149765575" cy="-228.77245167075802" fill="#35C788" r="5"/>
<circle cx="24.844067149765575" cy="-263.9682134662592" fill="#35C788" r="5"/>
<circle cx="124.22033574882788" cy="-263.9682134662592" fill="#35C788" r="5"/>
<circle cx="273.2847386474213" cy="-52.79364269325185" fill="#35C788" r="5"/>
<circle cx="74.53220144929672" cy="-281.56609436400987" fill="#35C788" r="5"/>
<circle cx="74.53220144929672" cy="-158.38092807975553" fill="#35C788" r="5"/>
<circle cx="74.53220144929672" cy="-70.39152359100247" fill="#35C788" r="5"/>
<circle cx="49.68813429953115" cy="-263.9682134662592" fill="#35C788" r="5"/>
<circle cx="49.68813429953115" cy="-105.5872853865037" fill="#35C788" r="5"/>
<circle cx="248.44067149765576" cy="-228.77245167075802" fill="#35C788" r="5"/>
<circle cx="24.844067149765575" cy="-193.5766898752568" fill="#35C788" r="5"/>
<circle cx="74.53220144929672" cy="-158.38092807975553" fill="#35C788" r="5"/>
<circle cx="422.3491415460148" cy="-52.79364269325185" fill="#35C788" r="5"/>
<circle cx="149.06440289859344" cy="-228.77245167075802" fill="#35C788" r="5"/>
<circle cx="273.2847386474213" cy="-105.5872853865037" fill="#35C788" r="5"/>
<circle cx="322.97287294695246" cy="-316.76185615951107" fill="#35C788" r="5"/>
<circle cx="372.6610072464836" cy="-52.79364269325185" fill="#35C788" r="5"/>
<circle cx="124.22033574882788" cy="-87.98940448875308" fill="#35C788" r="5"/>
<circle cx="273.2847386474213" cy="-299.16397526176047" fill="#35C788" r="5"/>
<circle cx="74.53220144929672" cy="-263.9682134662592" fill="#35C788" r="5"/>
<circle cx="422.3491415460148" cy="-70.39152359100247" fill="#35C788" r="5"/>
<circle cx="422.3491415460148" cy="-211.1745707730074" fill="#35C788" r="5"/>
<circle cx="173.90847004835902" cy="-17.597880897750617" fill="#35C788" r="5"/>
<circle cx="124.22033574882788" cy="-246.37033256850862" fill="#35C788" r="5"/>
<circle cx="347.81694009671804" cy="-281.56609436400987" fill="#35C788" r="5"/>
<circle cx="149.06440289859344" cy="-70.39152359100247" fill="#35C788" r="5"/>
<circle cx="422.3491415460148" cy="-299.16397526176047" fill="#35C788" r="5"/>
<circle cx="322.97287294695246" cy="-263.9682134662592" fill="#35C788" r="5"/>
<circle cx="347.81694009671804" cy="-316.76185615951107" fill="#35C788" r="5"/>
<circle cx="124.22033574882788" cy="-70.39152359100247" fill="#35C788" r="5"/>
<circle cx="24.844067149765575" cy="-52.79364269325185" fill="#35C788" r="5"/>
<circle cx="223.59660434789018" cy="-246.37033256850862" fill="#35C788" r="5"/>
<circle cx="124.22033574882788" cy="-281.56609436400987" fill="#35C788" r="5"/>
<circle cx="99.3762685990623" cy="-193.5766898752568" fill="#35C788" r="5"/>
<circle cx="223.59660434789018" cy="-263.9682134662592" fill="#35C788" r="5"/>
<circle cx="273.2847386474213" cy="-246.37033256850862" fill="#35C788" r="5"/>
<circle cx="24.844067149765575" cy="-175.97880897750616" fill="#35C788" r="5"/>
<circle cx="447.19320869578036" cy="-175.97880897750616" fill="#35C788" r="5"/>
<circle cx="347.81694009671804" cy="-316.76185615951107" fill="#35C788" r="5"/>
<circle cx="248.44067149765576" cy="-70.39152359100247" fill="#35C788" r="5"/>
<circle cx="322.97287294695246" cy="-281.56609436400987" fill="#35C788" r="5"/>
<circle cx="49.68813429953115" cy="-52.79364269325185" fill="#35C788" r="5"/>
<circle cx="173.90847004835902" cy="-17.597880897750617" fill="#35C788" r="5"/>
<circle cx="74.53220144929672" cy="-316.76185615951107" fill="#35C788" r="5"/>
<circle cx="124.22033574882788" cy="-281.56609436400987" fill="#35C788" r="5"/>
<circle cx="322.97287294695246" cy="-228.77245167075802" fill="#35C788" r="5"/>
<circle cx="198.7525371981246" cy="-35.195761795501234" fill="#35C788" r="5"/>
<circle cx="347.81694009671804" cy="-123.18516628425431" fill="#35C788" r="5"/>
<circle cx="223.59660434789018" cy="-158.38092807975553" fill="#35C788" r="5"/>
<circle cx="223.59660434789018" cy="-263.9682134662592" fill="#35C788" r="5"/>
<circle cx="372.6610072464836" cy="-105.5872853865037" fill="#35C788" r="5"/>
<circle cx="149.06440289859344" cy="-70.39152359100247" fill="#35C788" r="5"/>
<circle cx="223.59660434789018" cy="-175.97880897750616" fill="#35C788" r="5"/>
<circle cx="74.53220144929672" cy="-316.76185615951107" fill="#35C788" r="5"/>
<circle cx="397.5050743962492" cy="-281.56609436400987" fill="#35C788" r="5"/>
<circle cx="173.90847004835902" cy="-263.9682134662592" fill="#35C788" r="5"/>
<circle cx="99.3762685990623" cy="-211.1745707730074" fill="#35C788" r="5"/>
<circle cx="298.1288057971869" cy="-52.79364269325185" fill="#35C788" r="5"/>
<circle cx="149.06440289859344" cy="-105.5872853865037" fill="#35C788" r="5"/>
<circle cx="298.1288057971869" cy="-175.97880897750616" fill="#35C788" r="5"/>
<circle cx="248.44067149765576" cy="-123.18516628425431" fill="#35C788" r="5"/>
<circle cx="24.844067149765575" cy="-316.76185615951107" fill="#35C788" r="5"/>
<circle cx="149.06440289859344" cy="-299.16397526176047" fill="#35C788" r="5"/>
<circle cx="74.53220144929672" cy="-299.16397526176047" fill="#35C788" r="5"/>
<circle cx="99.3762685990623" cy="-175.97880897750616" fill="#35C788" r="5"/>
<circle cx="99.3762685990623" cy="-246.37033256850862" fill="#35C788" r="5"/>
<circle cx="124.22033574882788" cy="-263.9682134662592" fill="#35C788" r="5"/>
<circle cx="447.19320869578036" cy="-228.77245167075802" fill="#35C788" r="5"/>
<circle cx="49.68813429953115" cy="-211.1745707730074" fill="#35C788" r="5"/>
<circle cx="322.97287294695246" cy="-35.195761795501234" fill="#35C788" r="5"/>
<circle cx="298.1288057971869" cy="-316.76185615951107" fill="#35C788" r="5"/>
<circle cx="223.59660434789018" cy="-123.18516628425431" fill="#35C788" r="5"/>
<circle cx="49.68813429953115" cy="-316.76185615951107" fill="#35C788" r="5"/>
<circle cx="372.6610072464836" cy="-299.16397526176047" fill="#35C788" r="5"/>
<circle cx="422.3491415460148" cy="-123.18516628425431" fill="#35C788" r="5"/>
<circle cx="49.68813429953115" cy="-246.37033256850862" fill="#35C788" r="5"/>
<circle cx="49.68813429953115" cy="-246.37033256850862" fill="#35C788" r="5"/>
<circle cx="347.81694009671804" cy="-17.597880897750617" fill="#35C788" r="5"/>
<circle cx="273.2847386474213" cy="-52.79364269325185" fill="#35C788" r="5"/>
<circle cx="322.97287294695246" cy="-70.39152359100247" fill="#35C788" r="5"/>
<circle cx="422.3491415460148" cy="-246.37033256850862" fill="#35C788" r="5"/>
<circle cx="149.06440289859344" cy="-211.1745707730074" fill="#35C788" r="5"/>
<circle cx="273.2847386474213" cy="-105.5872853865037" fill="#35C788" r="5"/>
<circle cx="74.53220144929672" cy="-175.97880897750616" fill="#35C788" r="5"/>
<circle cx="347.81694009671804" cy="-158.38092807975553" fill="#35C788" r="5"/>
<circle cx="347.81694009671804" cy="-299.16397526176047" fill="#35C788" r="5"/>
<circle cx="273.2847386474213" cy="-299.16397526176047" fill="#35C788" r="5"/>
<circle cx="347.81694009671804" cy="-140.78304718200494" fill="#35C788" r="5"/>
<circle cx="422.3491415460148" cy="-299.16397526176047" fill="#35C788" r="5"/>
<circle cx="397.5050743962492" cy="-158.38092807975553" fill="#35C788" r="5"/>
<circle cx="273.2847386474213" cy="-17.597880897750617" fill="#35C788" r="5"/>
<circle cx="422.3491415460148" cy="-87.98940448875308" fill="#35C788" r="5"/>
<circle cx="49.68813429953115" cy="-105.5872853865037" fill="#35C788" r="5"/>
<circle cx="149.06440289859344" cy="-263.9682134662592" fill="#35C788" r="5"/>
<circle cx="322.97287294695246" cy="-140.78304718200494" fill="#35C788" r="5"/>
<circle cx="273.2847386474213" cy="-87.98940448875308" fill="#35C788" r="5"/>
<circle cx="422.3491415460148" cy="-246.37033256850862" fill="#35C788" r="5"/>
<circle cx="99.3762685990623" cy="-123.18516628425431" fill="#35C788" r="5"/>
<circle cx="99.3762685990623" cy="-175.97880897750616" fill="#35C788" r="5"/>
<circle cx="198.7525371981246" cy="-228.77245167075802" fill="#35C788" r="5"/>
<circle cx="74.53220144929672" cy="-246.37033256850862" fill="#35C788" r="5"/>
<circle cx="372.6610072464836" cy="-70.39152359100247" fill="#35C788" r="5"/>
<circle cx="298.1288057971869" cy="-246.37033256850862" fill="#35C788" r="5"/>
<circle cx="99.3762685990623" cy="-228.77245167075802" fill="#35C788" r="5"/>
<circle cx="124.22033574882788" cy="-87.98940448875308" fill="#35C788" r="5"/>
<circle cx="298.1288057971869" cy="-316.76185615951107" fill="#35C788" r="5"/>
<circle cx="173.90847004835902" cy="-281.56609436400987" fill="#35C788" r="5"/>
<circle cx="124.22033574882788" cy="-123.18516628425431" fill="#35C788" r="5"/>
<circle cx="124.22033574882788" cy="-228.77245167075802" fill="#35C788" r="5"/>
<circle cx="347.81694009671804" cy="-193.5766898752568" fill="#35C788" r="5"/>
<circle cx="149.06440289859344" cy="-123.18516628425431" fill="#35C788" r="5"/>
<circle cx="397.5050743962492" cy="-281.56609436400987" fill="#35C788" r="5"/>
<circle cx="422.3491415460148" cy="-175.97880897750616" fill="#35C788" r="5"/>
<circle cx="248.44067149765576" cy="-316.76185615951107" fill="#35C788" r="5"/>
<circle cx="273.2847386474213" cy="-228.77245167075802" fill="#35C788" r="5"/>
<circle cx="248.44067149765576" cy="-193.5766898752568" fill="#35C788" r="5"/>
<circle cx="422.3491415460148" cy="-123.18516628425431" fill="#35C788" r="5"/>
<circle cx="223.59660434789018" cy="-211.1745707730074" fill="#35C788" r="5"/>
<circle cx="397.5050743962492" cy="-17.597880897750617" fill="#35C788" r="5"/>
<circle cx="447.19320869578036" cy="-123.18516628425431" fill="#35C788" r="5"/>
<circle cx="74.53220144929672" cy="-281.56609436400987" fill="#35C788" r="5"/>
<circle cx="49.68813429953115" cy="-105.5872853865037" fill="#35C788" r="5"/>
<circle cx="24.844067149765575" cy="-70.39152359100247" fill="#35C788" r="5"/>
<circle cx="322.97287294695246" cy="-299.16397526176047" fill="#35C788" r="5"/>
<circle cx="422.3491415460148" cy="-281.56609436400987" fill="#35C788" r="5"/>
<circle cx="223.59660434789018" cy="-123.18516628425431" fill="#35C788" r="5"/>
<circle cx="273.2847386474213" cy="-211.1745707730074" fill="#35C788" r="5"/>
<circle cx="447.19320869578036" cy="-211.1745707730074" fill="#35C788" r="5"/>
<circle cx="49.68813429953115" cy="-35.195761795501234" fill="#35C788" r="5"/>
<circle cx="372.6610072464836" cy="-175.97880897750616" fill="#35C788" r="5"/>
<circle cx="248.44067149765576" cy="-299.16397526176047" fill="#35C788" r="5"/>
<circle cx="124.22033574882788" cy="-246.37033256850862" fill="#35C788" r="5"/>
<circle cx="447.19320869578036" cy="-263.9682134662592" fill="#35C788" r="5"/>
<circle cx="248.44067149765576" cy="-263.9682134662592" fill="#35C788" r="5"/>
<circle cx="149.06440289859344" cy="-246.37033256850862" fill="#35C788" r="5"/>
<circle cx="223.59660434789018" cy="-228.77245167075802" fill="#35C788" r="5"/>
<circle cx="49.68813429953115" cy="-87.98940448875308" fill="#35C788" r="5"/>
<circle cx="397.5050743962492" cy="-158.38092807975553" fill="#35C788" r="5"/>
<circle cx="74.53220144929672" cy="-263.9682134662592" fill="#35C788" r="5"/>
<circle cx="24.844067149765575" cy="-246.37033256850862" fill="#35C788" r="5"/>
<circle cx="322.97287294695246" cy="-316.76185615951107" fill="#35C788" r="5"/>
<circle cx="99.3762685990623" cy="-70.39152359100247" fill="#35C788" r="5"/>
<circle cx="248.44067149765576" cy="-52.79364269325185" fill="#35C788" r="5"/>
<circle cx="322.97287294695246" cy="-52.79364269325185" fill="#35C788" r="5"/>
<circle cx="74.53220144929672" cy="-211.1745707730074" fill="#35C788" r="5"/>
<circle cx="74.53220144929672" cy="-175.97880897750616" fill="#35C788" r="5"/>
<circle cx="74.53220144929672" cy="-281.56609436400987" fill="#35C788" r="5"/>
<circle cx="24.844067149765575" cy="-35.195761795501234" fill="#35C788" r="5"/>
<circle cx="298.1288057971869" cy="-17.597880897750617" fill="#35C788" r="5"/>
<circle cx="173.90847004835902" cy="-263.9682134662592" fill="#35C788" r="5"/>
<circle cx="198.7525371981246" cy="-52.79364269325185" fill="#35C788" r="5"/>
<circle cx="447.19320869578036" cy="-228.77245167075802" fill="#35C788" r="5"/>
<circle cx="173.90847004835902" cy="-35.195761795501234" fill="#35C788" r="5"/>
<circle cx="149.06440289859344" cy="-211.1745707730074" fill="#35C788" r="5"/>
<circle cx="372.6610072464836" cy="-158.38092807975553" fill="#35C788" r="5"/>
<circle cx="149.06440289859344" cy="-175.97880897750616" fill="#35C788" r="5"/>
<circle cx="347.81694009671804" cy="-35.195761795501234" fill="#35C788" r="5"/>
<circle cx="273.2847386474213" cy="-35.195761795501234" fill="#35C788" r="5"/>
<circle cx="124.22033574882788" cy="-281.56609436400987" fill="#35C788" r="5"/>
<circle cx="248.44067149765576" cy="-281.56609436400987" fill="#35C788" r="5"/>
<circle cx="74.53220144929672" cy="-87.98940448875308" fill="#35C788" r="5"/>
<circle cx="173.90847004835902" cy="-228.77245167075802" fill="#35C788" r="5"/>
<circle cx="397.5050743962492" cy="-211.1745707730074" fill="#35C788" r="5"/>
<circle cx="173.90847004835902" cy="-105.5872853865037" fill="#35C788" r="5"/>
<circle cx="372.6610072464836" cy="-35.195761795501234" fill="#35C788" r="5"/>
<circle cx="322.97287294695246" cy="-299.16397526176047" fill="#35C788" r="5"/>
<circle cx="49.68813429953115" cy="-35.195761795501234" fill="#35C788" r="5"/>
<circle cx="372.6610072464836" cy="-299.16397526176047" fill="#35C788" r="5"/>
<circle cx="273.2847386474213" cy="-246.37033256850862" fill="#35C788" r="5"/>
<circle cx="24.844067149765575" cy="-175.97880897750616" fill="#35C788" r="5"/>
<circle cx="124.22033574882788" cy="-35.195761795501234" fill="#35C788" r="5"/>
<circle cx="49.68813429953115" cy="-263.9682134662592" fill="#35C788" r="5"/>
<circle cx="372.6610072464836" cy="-123.18516628425431" fill="#35C788" r="5"/>
<circle cx="74.53220144929672" cy="-299.16397526176047" fill="#35C788" r="5"/>
<circle cx="322.97287294695246" cy="-281.56609436400987" fill="#35C788" r="5"/>
<circle cx="248.44067149765576" cy="-246.37033256850862" fill="#35C788" r="5"/>
<circle cx="273.2847386474213" cy="-105.5872853865037" fill="#35C788" r="5"/>
<circle cx="273.2847386474213" cy="-228.77245167075802" fill="#35C788" r="5"/>
<circle cx="74.53220144929672" cy="-281.56609436400987" fill="#35C788" r="5"/>
<circle cx="149.06440289859344" cy="-87.98940448875308" fill="#35C788" r="5"/>
<circle cx="248.44067149765576" cy="-175.97880897750616" fill="#35C788" r="5"/>
<circle cx="49.68813429953115" cy="-193.5766898752568" fill="#35C788" r="5"/>
<circle cx="74.53220144929672" cy="-281.56609436400987" fill="#35C788" r="5"/>
<circle cx="322.97287294695246" cy="-123.18516628425431" fill="#35C788" r="5"/>
<circle cx="298.1288057971869" cy="-316.76185615951107" fill="#35C788" r="5"/>
<circle cx="149.06440289859344" cy="-299.16397526176047" fill="#35C788" r="5"/>
<circle cx="273.2847386474213" cy="-228.77245167075802" fill="#35C788" r="5"/>
<circle cx="124.22033574882788" cy="-228.77245167075802" fill="#35C788" r="5"/>
<circle cx="24.844067149765575" cy="-17.597880897750617" fill="#35C788" r="5"/>
<circle cx="99.3762685990623" cy="-193.5766898752568" fill="#35C788" r="5"/>
<circle cx="248.44067149765576" cy="-52.79364269325185" fill="#35C788" r="5"/>
<circle cx="322.97287294695246" cy="-70.39152359100247" fill="#35C788" r="5"/>
<circle cx="347.81694009671804" cy="-123.18516628425431" fill="#35C788" r="5"/>
<circle cx="322.97287294695246" cy="-246.37033256850862" fill="#35C788" r="5"/>
<circle cx="99.3762685990623" cy="-281.56609436400987" fill="#35C788" r="5"/>
<circle cx="74.53220144929672" cy="-158.38092807975553" fill="#35C788" r="5"/>
<circle cx="322.97287294695246" cy="-299.16397526176047" fill="#35C788" r="5"/>
<circle cx="223.59660434789018" cy="-17.597880897750617" fill="#35C788" r="5"/>
<circle cx="347.81694009671804" cy="-211.1745707730074" fill="#35C788" r="5"/>
<circle cx="124.22033574882788" cy="-211.1745707730074" fill="#35C788" r="5"/>
<circle cx="322.97287294695246" cy="-35.195761795501234" fill="#35C788" r="5"/>
<circle cx="422.3491415460148" cy="-263.9682134662592" fill="#35C788" r="5"/>
<circle cx="298.1288057971869" cy="-299.16397526176047" fill="#35C788" r="5"/>
<circle cx="422.3491415460148" cy="-105.5872853865037" fill="#35C788" r="5"/>
<circle cx="223.59660434789018" cy="-228.77245167075802" fill="#35C788" r="5"/>
<circle cx="49.68813429953115" cy="-87.98940448875308" fill="#35C788" r="5"/>
<circle cx="198.7525371981246" cy="-35.195761795501234" fill="#35C788" r="5"/>
<circle cx="99.3762685990623" cy="-87.98940448875308" fill="#35C788" r="5"/>
<circle cx="74.53220144929672" cy="-52.79364269325185" fill="#35C788" r="5"/>
<circle cx="322.97287294695246" cy="-158.38092807975553" fill="#35C788" r="5"/>
<circle cx="322.97287294695246" cy="-123.18516628425431" fill="#35C788" r="5"/>
<circle cx="347.81694009671804" cy="-193.5766898752568" fill="#35C788" r="5"/>
<circle cx="347.81694009671804" cy="-70.39152359100247" fill="#35C788" r="5"/>
<circle cx="223.59660434789018" cy="-87.98940448875308" fill="#35C788" r="5"/>
<circle cx="322.97287294695246" cy="-211.1745707730074" fill="#35C788" r="5"/>
<circle cx="149.06440289859344" cy="-35.195761795501234" fill="#35C788" r="5"/>
<circle cx="223.59660434789018" cy="-246.37033256850862" fill="#35C788" r="5"/>
<circle cx="198.7525371981246" cy="-17.597880897750617" fill="#35C788" r="5"/>
<circle cx="322.97287294695246" cy="-17.597880897750617" fill="#35C788" r="5"/>
<circle cx="124.22033574882788" cy="-158.38092807975553" fill="#35C788" r="5"/>
<circle cx="223.59660434789018" cy="-316.76185615951107" fill="#35C788" r="5"/>
<circle cx="223.59660434789018" cy="-70.39152359100247" fill="#35C788" r="5"/>
<circle cx="74.53220144929672" cy="-123.18516628425431" fill="#35C788" r="5"/>
<circle cx="99.3762685990623" cy="-158.38092807975553" fill="#35C788" r="5"/>
<circle cx="173.90847004835902" cy="-281.56609436400987" fill="#35C788" r="5"/>
<circle cx="24.844067149765575" cy="-158.38092807975553" fill="#35C788" r="5"/>
<circle cx="74.53220144929672" cy="-17.597880897750617" fill="#35C788" r="5"/>
<circle cx="298.1288057971869" cy="-105.5872853865037" fill="#35C788" r="5"/>
<circle cx="347.81694009671804" cy="-228.77245167075802" fill="#35C788" r="5"/>
<circle cx="24.844067149765575" cy="-281.56609436400987" fill="#35C788" r="5"/>
<circle cx="422.3491415460148" cy="-228.77245167075802" fill="#35C788" r="5"/>
<circle cx="397.5050743962492" cy="-175.97880897750616" fill="#35C788" r="5"/>
<circle cx="347.81694009671804" cy="-175.97880897750616" fill="#35C788" r="5"/>
<circle cx="447.19320869578036" cy="-105.5872853865037" fill="#35C788" r="5"/>
<circle cx="173.90847004835902" cy="-299.16397526176047" fill="#35C788" r="5"/>
<circle cx="322.97287294695246" cy="-211.1745707730074" fill="#35C788" r="5"/>
<circle cx="74.53220144929672" cy="-140.78304718200494" fill="#35C788" r="5"/>
<circle cx="273.2847386474213" cy="-35.195761795501234" fill="#35C788" r="5"/>
<circle cx="248.44067149765576" cy="-228.77245167075802" fill="#35C788" r="5"/>
<circle cx="149.06440289859344" cy="-17.597880897750617" fill="#35C788" r="5"/>
<circle cx="99.3762685990623" cy="-193.5766898752568" fill="#35C788" r="5"/>
<circle cx="24.844067149765575" cy="-281.56609436400987" fill="#35C788" r="5"/>
<circle cx="322.97287294695246" cy="-140.78304718200494" fill="#35C788" r="5"/>
<circle cx="223.59660434789018" cy="-228.77245167075802" fill="#35C788" r="5"/>
<circle cx="24.844067149765575" cy="-281.56609436400987" fill="#35C788" r="5"/>
<circle cx="372.6610072464836" cy="-87.98940448875308" fill="#35C788" r="5"/>
<circle cx="422.3491415460148" cy="-299.16397526176047" fill="#35C788" r="5"/>
<circle cx="397.5050743962492" cy="-158.38092807975553" fill="#35C788" r="5"/>
<circle cx="322.97287294695246" cy="-87.98940448875308" fill="#35C788" r="5"/>
<circle cx="298.1288057971869" cy="-316.76185615951107" fill="#35C788" r="5"/>
<circle cx="372.6610072464836" cy="-299.16397526176047" fill="#35C788" r="5"/>
<circle cx="74.53220144929672" cy="-35.195761795501234" fill="#35C788" r="5"/>
<circle cx="173.90847004835902" cy="-299.16397526176047" fill="#35C788" r="5"/>
<circle cx="322.97287294695246" cy="-17.597880897750617" fill="#35C788" r="5"/>
<circle cx="149.06440289859344" cy="-316.76185615951107" fill="#35C788" r="5"/>
<circle cx="347.81694009671804" cy="-105.5872853865037" fill="#35C788" r="5"/>
<circle cx="248.44067149765576" cy="-175.97880897750616" fill="#35C788" r="5"/>
<circle cx="223.59660434789018" cy="-17.597880897750617" fill="#35C788" r="5"/>
<circle cx="149.06440289859344" cy="-140.78304718200494" fill="#35C788" r="5"/>
<circle cx="24.844067149765575" cy="-158.38092807975553" fill="#35C788" r="5"/>
<circle cx="397.5050743962492" cy="-263.9682134662592" fill="#35C788" r="5"/>
<circle cx="397.5050743962492" cy="-35.195761795501234" fill="#35C788" r="5"/>
<circle cx="322.97287294695246" cy="-158.38092807975553" fill="#35C788" r="5"/>
</g>
</g>
<g>
<g>
<path d="M322.97287,-158.38094 L322.97287,-158.38094 L149.0644,-228.77245 L124.22034,-87.9894 L149.0644,-193.57669 L372.661,-263.9682 L74.5322,-246.37033 L322.97287,-87.9894 L99.37627,-263.9682 L24.844067,-228.77245 L49.688133,-175.9788 L347.81693,-87.9894 L322.97287,-140.78305 L397.50507,-70.391525 L273.28473,-35.195763 L347.81693,-175.9788 L347.81693,-246.37033 L223.5966,-193.57669 L298.1288,-228.77245 L447.1932,-263.9682 L24.844067,-246.37033 L173.90846,-17.597881 L447.1932,-299.16397 L397.50507,-263.9682 L124.22034,-123.185165 L298.1288,-228.77245 L74.5322,-175.9788 L248.44067,-158.38094 L397.50507,-281.5661 L447.1932,-158.38094 L322.97287,-52.793644 L298.1288,-140.78305 L74.5322,-123.185165 L173.90846,-158.38094 L223.5966,-316.76187 L24.844067,-17.597881 L248.44067,-70.391525 L24.844067,-52.793644 L347.81693,-70.391525 L24.844067,-228.77245 L24.844067,-263.9682 L124.22034,-263.9682 L273.28473,-52.793644 L74.5322,-281.5661 L74.5322,-158.38094 L74.5322,-70.391525 L49.688133,-263.9682 L49.688133,-105.58729 L248.44067,-228.77245 L24.844067,-193.57669 L74.5322,-158.38094 L422.34915,-52.793644 L149.0644,-228.77245 L273.28473,-105.58729 L322.97287,-316.76187 L372.661,-52.793644 L124.22034,-87.9894 L273.28473,-299.16397 L74.5322,-263.9682 L422.34915,-70.391525 L422.34915,-211.17458 L173.90846,-17.597881 L124.22034,-246.37033 L347.81693,-281.5661 L149.0644,-70.391525 L422.34915,-299.16397 L322.97287,-263.9682 L347.81693,-316.76187 L124.22034,-70.391525 L24.844067,-52.793644 L223.5966,-246.37033 L124.22034,-281.5661 L99.37627,-193.57669 L223.5966,-263.9682 L273.28473,-246.37033 L24.844067,-175.9788 L447.1932,-175.9788 L347.81693,-316.76187 L248.44067,-70.391525 L322.97287,-281.5661 L49.688133,-52.793644 L173.90846,-17.597881 L74.5322,-316.76187 L124.22034,-281.5661 L322.97287,-228.77245 L198.75253,-35.195763 L347.81693,-123.185165 L223.5966,-158.38094 L223.5966,-263.9682 L372.661,-105.58729 L149.0644,-70.391525 L223.5966,-175.9788 L74.5322,-316.76187 L397.50507,-281.5661 L173.90846,-263.9682 L99.37627,-211.17458 L298.1288,-52.793644 L149.0644,-105.58729 L298.1288,-175.9788 L248.44067,-123.185165 L24.844067,-316.76187 L149.0644,-299.16397 L74.5322,-299.16397 L99.37627,-175.9788 L99.37627,-246.37033 L124.22034,-263.9682 L447.1932,-228.77245 L49.688133,-211.17458 L322.97287,-35.195763 L298.1288,-316.76187 L223.5966,-123.185165 L49.688133,-316.76187 L372.661,-299.16397 L422.34915,-123.185165 L49.688133,-246.37033 L49.688133,-246.37033 L347.81693,-17.597881 L273.28473,-52.793644 L322.97287,-70.391525 L422.34915,-246.37033 L149.0644,-211.17458 L273.28473,-105.58729 L74.5322,-175.9788 L347.81693,-158.38094 L347.81693,-299.16397 L273.28473,-299.16397 L347.81693,-140.78305 L422.34915,-299.16397 L397.50507,-158.38094 L273.28473,-17.597881 L422.34915,-87.9894 L49.688133,-105.58729 L149.0644,-263.9682 L322.97287,-140.78305 L273.28473,-87.9894 L422.34915,-246.37033 L99.37627,-123.185165 L99.37627,-175.9788 L198.75253,-228.77245 L74.5322,-246.37033 L372.661,-70.391525 L298.1288,-246.37033 L99.37627,-228.77245 L124.22034,-87.9894 L298.1288,-316.76187 L173.90846,-281.5661 L124.22034,-123.185165 L124.22034,-228.77245 L347.81693,-193.57669 L149.0644,-123.185165 L397.50507,-281.5661 L422.34915,-175.9788 L248.44067,-316.76187 L273.28473,-228.77245 L248.44067,-193.57669 L422.34915,-123.185165 L223.5966,-211.17458 L397.50507,-17.597881 L447.1932,-123.185165 L74.5322,-281.5661 L49.688133,-105.58729 L24.844067,-70.391525 L322.97287,-299.16397 L422.34915,-281.5661 L223.5966,-123.185165 L273.28473,-211.17458 L447.1932,-211.17458 L49.688133,-35.195763 L372.661,-175.9788 L248.44067,-299.16397 L124.22034,-246.37033 L447.1932,-263.9682 L248.44067,-263.9682 L149.0644,-246.37033 L223.5966,-228.77245 L49.688133,-87.9894 L397.50507,-158.38094 L74.5322,-263.9682 L24.844067,-246.37033 L322.97287,-316.76187 L99.37627,-70.391525 L248.44067,-52.793644 L322.97287,-52.793644 L74.5322,-211.17458 L74.5322,-175.9788 L74.5322,-281.5661 L24.844067,-35.195763 L298.1288,-17.597881 L173.90846,-263.9682 L198.75253,-52.793644 L447.1932,-228.77245 L173.90846,-35.195763 L149.0644,-211.17458 L372.661,-158.38094 L149.0644,-175.9788 L347.81693,-35.195763 L273.28473,-35.195763 L124.22034,-281.5661 L248.44067,-281.5661 L74.5322,-87.9894 L173.90846,-228.77245 L397.50507,-211.17458 L173.90846,-105.58729 L372.661,-35.195763 L322.97287,-299.16397 L49.688133,-35.195763 L372.661,-299.16397 L273.28473,-246.37033 L24.844067,-175.9788 L124.22034,-35.195763 L49.688133,-263.9682 L372.661,-123.185165 L74.5322,-299.16397 L322.97287,-281.5661 L248.44067,-246.37033 L273.28473,-105.58729 L273.28473,-228.77245 L74.5322,-281.5661 L149.0644,-87.9894 L248.44067,-175.9788 L49.688133,-193.57669 L74.5322,-281.5661 L322.97287,-123.185165 L298.1288,-316.76187 L149.0644,-299.16397 L273.28473,-228.77245 L124.22034,-228.77245 L24.844067,-17.597881 L99.37627,-193.57669 L248.44067,-52.793644 L322.97287,-70.391525 L347.81693,-123.185165 L322.97287,-246.37033 L99.37627,-281.5661 L74.5322,-158.38094 L322.97287,-299.16397 L223.5966,-17.597881 L347.81693,-211.17458 L124.22034,-211.17458 L322.97287,-35.195763 L422.34915,-263.9682 L298.1288,-299.16397 L422.34915,-105.58729 L223.5966,-228.77245 L49.688133,-87.9894 L198.75253,-35.195763 L99.37627,-87.9894 L74.5322,-52.793644 L322.97287,-158.38094 L322.97287,-123.185165 L347.81693,-193.57669 L347.81693,-70.391525 L223.5966,-87.9894 L322.97287,-211.17458 L149.0644,-35.195763 L223.5966,-246.37033 L198.75253,-17.597881 L322.97287,-17.597881 L124.22034,-158.38094 L223.5966,-316.76187 L223.5966,-70.391525 L74.5322,-123.185165 L99.37627,-158.38094 L173.90846,-281.5661 L24.844067,-158.38094 L74.5322,-17.597881 L298.1288,-105.58729 L347.81693,-228.77245 L24.844067,-281.5661 L422.34915,-228.77245 L397.50507,-175.9788 L347.81693,-175.9788 L447.1932,-105.58729 L173.90846,-299.16397 L322.97287,-211.17458 L74.5322,-140.78305 L273.28473,-35.195763 L248.44067,-228.77245 L149.0644,-17.597881 L99.37627,-193.57669 L24.844067,-281.5661 L322.97287,-140.78305 L223.5966,-228.77245 L24.844067,-281.5661 L372.661,-87.9894 L422.34915,-299.16397 L397.50507,-158.38094 L322.97287,-87.9894 L298.1288,-316.76187 L372.661,-299.16397 L74.5322,-35.195763 L173.90846,-299.16397 L322.97287,-17.597881 L149.0644,-316.76187 L347.81693,-105.58729 L248.44067,-175.9788 L223.5966,-17.597881 L149.0644,-140.78305 L24.844067,-158.38094 L397.50507,-263.9682 L397.50507,-35.195763 L322.97287,-158.38094" fill="none" stroke="#35C788" stroke-linejoin="round" stroke-width="2"/>
</g>
</g>
<g>
<g>
<line stroke="black" stroke-width="1" x1="0" x2="0" y1="0" y2="10"/>
<line stroke="black" stroke-width="1" x1="99.3762685990623" x2="99.3762685990623" y1="0" y2="10"/>
<line stroke="black" stroke-width="1" x1="198.7525371981246" x2="198.7525371981246" y1="0" y2="10"/>
<line stroke="black" stroke-width="1" x1="298.1288057971869" x2="298.1288057971869" y1="0" y2="10"/>
<line stroke="black" stroke-width="1" x1="397.5050743962492" x2="397.5050743962492" y1="0" y2="10"/>
</g>
<line stroke="black" stroke-width="1" x1="0" x2="480" y1="0" y2="0"/>
<g>
<text font-size="12" text-anchor="middle" x="0" y="20">
0
</text>
<text font-size="12" text-anchor="middle" x="99.3762685990623" y="20">
4
</text>
<text font-size="12" text-anchor="middle" x="198.7525371981246" y="20">
8
</text>
<text font-size="12" text-anchor="middle" x="298.1288057971869" y="20">
12
</text>
<text font-size="12" text-anchor="middle" x="397.5050743962492" y="20">
16
</text>
</g>
<text font-size="12" text-anchor="middle" x="240" y="30">
City x coordinate. Cities: 300, temperature: 10
</text>
</g>
<g>
<g>
<line stroke="black" stroke-width="1" x1="0" x2="-10" y1="0" y2="0"/>
<line stroke="black" stroke-width="1" x1="0" x2="-10" y1="-70.39152359100247" y2="-70.39152359100247"/>
<line stroke="black" stroke-width="1" x1="0" x2="-10" y1="-140.78304718200494" y2="-140.78304718200494"/>
<line stroke="black" stroke-width="1" x1="0" x2="-10" y1="-211.1745707730074" y2="-211.1745707730074"/>
<line stroke="black" stroke-width="1" x1="0" x2="-10" y1="-281.56609436400987" y2="-281.56609436400987"/>
</g>
<line stroke="black" stroke-width="1" x1="0" x2="0" y1="0" y2="-340"/>
<g>
<text dominant-baseline="middle" font-size="12" text-anchor="end" x="-15" y="0">
0
</text>
<text dominant-baseline="middle" font-size="12" text-anchor="end" x="-15" y="-70.39152359100247">
4
</text>
<text dominant-baseline="middle" font-size="12" text-anchor="end" x="-15" y="-140.78304718200494">
8
</text>
<text dominant-baseline="middle" font-size="12" text-anchor="end" x="-15" y="-211.1745707730074">
12
</text>
<text dominant-baseline="middle" font-size="12" text-anchor="end" x="-15" y="-281.56609436400987">
16
</text>
</g>
<text font-size="12" text-anchor="middle" transform="rotate(-90 -24 -170)" x="-24" y="-182">
City y coordinate. Cities: 300, temperature: 10
</text>
</g>
</g>
</svg>