<svg viewBox="0 0 600 400" xmlns="http://www.w3.org/2000/svg">
<g transform="translate(72, 364)">
<g>
<g>
<circle cx="144.09799579299036" cy="-295.486145699494" fill="#35C788" r="5"/>
<circle cx="151.29276159243207" cy="-294.32630663335897" fill="#35C788" r="5"/>
<circle cx="160.05364804485046" cy="-293.1499487944915" fill="#35C788" r="5"/>
<circle cx="159.3237656359622" cy="-291.4159098981887" fill="#35C788" r="5"/>
<circle cx="169.8024247948292" cy="-287.9199964968815" fill="#35C788" r="5"/>
<circle cx="182.62051381916993" cy="-293.7824607284434" fill="#35C788" r="5"/>
<circle cx="172.77414322958802" cy="-302.6058886850543" fill="#35C788" r="5"/>
<circle cx="192.12949533733018" cy="-306.956839204698" fill="#35C788" r="5"/>
<circle cx="218.84701332501564" cy="-291.7630622306523" fill="#35C788" r="5"/>
<circle cx="232.54318450810612" cy="-288.68193770251344" fill="#35C788" r="5"/>
<circle cx="249.15988956899605" cy="-294.02916534869354" fill="#35C788" r="5"/>
<circle cx="259.24928044733736" cy="-311.2069190088447" fill="#35C788" r="5"/>
<circle cx="263.601953785986" cy="-303.3669583663399" fill="#35C788" r="5"/>
<circle cx="275.2168437216812" cy="-301.19320500657153" fill="#35C788" r="5"/>
<circle cx="275.8501781086743" cy="-286.1295067550146" fill="#35C788" r="5"/>
<circle cx="272.1119662799931" cy="-280.3153293174214" fill="#35C788" r="5"/>
<circle cx="286.7476638614792" cy="-272.14478281665816" fill="#35C788" r="5"/>
<circle cx="292.73015109807864" cy="-279.0223887784424" fill="#35C788" r="5"/>
<circle cx="303.7209395916075" cy="-278.92796708273903" fill="#35C788" r="5"/>
<circle cx="304.62008176247355" cy="-272.67482661520984" fill="#35C788" r="5"/>
<circle cx="302.1770245533963" cy="-268.9856843801238" fill="#35C788" r="5"/>
<circle cx="302.4484143474131" cy="-261.7660293731586" fill="#35C788" r="5"/>
<circle cx="309.76443162981093" cy="-268.0943109528397" fill="#35C788" r="5"/>
<circle cx="317.83042558784916" cy="-268.4654661520011" fill="#35C788" r="5"/>
<circle cx="320.04705858305726" cy="-276.74108042546635" fill="#35C788" r="5"/>
<circle cx="311.75893511556325" cy="-288.5757182276222" fill="#35C788" r="5"/>
<circle cx="285.0841167295351" cy="-293.68970371602654" fill="#35C788" r="5"/>
<circle cx="285.5025433801771" cy="-303.3545680850289" fill="#35C788" r="5"/>
<circle cx="294.235676010841" cy="-307.3211794826967" fill="#35C788" r="5"/>
<circle cx="309.7757630980439" cy="-307.51889268581886" fill="#35C788" r="5"/>
<circle cx="308.2686444724848" cy="-303.15311740549225" fill="#35C788" r="5"/>
<circle cx="316.513540930397" cy="-299.6980425476818" fill="#35C788" r="5"/>
<circle cx="322.58910562085316" cy="-308.6128576297503" fill="#35C788" r="5"/>
<circle cx="340.9502739164778" cy="-311.60224044211844" fill="#35C788" r="5"/>
<circle cx="373.7254452001125" cy="-302.0558929135789" fill="#35C788" r="5"/>
<circle cx="372.33338112494664" cy="-299.6051970011826" fill="#35C788" r="5"/>
<circle cx="375.92515796817224" cy="-297.50288189324334" fill="#35C788" r="5"/>
<circle cx="376.5517365940781" cy="-290.53451350691347" fill="#35C788" r="5"/>
<circle cx="386.78729993163125" cy="-282.5588748961319" fill="#35C788" r="5"/>
<circle cx="391.31511492949954" cy="-292.36405027333933" fill="#35C788" r="5"/>
<circle cx="389.73950200700455" cy="-298.9499533848207" fill="#35C788" r="5"/>
<circle cx="381.01395177868017" cy="-307.5896839326806" fill="#35C788" r="5"/>
<circle cx="430.29467990537563" cy="-306.97536489511697" fill="#35C788" r="5"/>
<circle cx="416.0857106656594" cy="-290.5036562163032" fill="#35C788" r="5"/>
<circle cx="404.7976248470494" cy="-289.5672508733433" fill="#35C788" r="5"/>
<circle cx="411.5271618237331" cy="-286.12327940139596" fill="#35C788" r="5"/>
<circle cx="429.63600922542554" cy="-285.95725781625924" fill="#35C788" r="5"/>
<circle cx="425.65437745329035" cy="-283.2981941513544" fill="#35C788" r="5"/>
<circle cx="423.98615374869615" cy="-279.16614850549115" fill="#35C788" r="5"/>
<circle cx="423.92620006983725" cy="-277.0327617518872" fill="#35C788" r="5"/>
<circle cx="424.99613286424704" cy="-268.99536586852315" fill="#35C788" r="5"/>
<circle cx="415.7665944163634" cy="-264.8888223757867" fill="#35C788" r="5"/>
<circle cx="413.6885063137581" cy="-273.9572059258394" fill="#35C788" r="5"/>
<circle cx="406.90047165250326" cy="-271.4792766331206" fill="#35C788" r="5"/>
<circle cx="367.6026886432219" cy="-270.0117971913579" fill="#35C788" r="5"/>
<circle cx="362.7943619500101" cy="-268.3561173907731" fill="#35C788" r="5"/>
<circle cx="359.78808987949685" cy="-273.03382006324665" fill="#35C788" r="5"/>
<circle cx="342.7844605287002" cy="-284.68582758931063" fill="#35C788" r="5"/>
<circle cx="337.93284659096395" cy="-280.9035772986816" fill="#35C788" r="5"/>
<circle cx="342.1375315949485" cy="-273.98115441348625" fill="#35C788" r="5"/>
<circle cx="342.8355331658658" cy="-254.55006935490434" fill="#35C788" r="5"/>
<circle cx="344.6278131784682" cy="-239.02625489904688" fill="#35C788" r="5"/>
<circle cx="358.7778575793387" cy="-251.3250238997506" fill="#35C788" r="5"/>
<circle cx="367.14683887216444" cy="-243.6524719595548" fill="#35C788" r="5"/>
<circle cx="362.90368420782534" cy="-235.66530486118884" fill="#35C788" r="5"/>
<circle cx="382.3226914737607" cy="-236.64317704521966" fill="#35C788" r="5"/>
<circle cx="372.88844177067546" cy="-225.96436859204294" fill="#35C788" r="5"/>
<circle cx="382.776492828775" cy="-223.41122050075785" fill="#35C788" r="5"/>
<circle cx="389.1300424611234" cy="-223.1840016294443" fill="#35C788" r="5"/>
<circle cx="400.9287343945293" cy="-214.14260741311162" fill="#35C788" r="5"/>
<circle cx="413.97775247107876" cy="-214.74777233058262" fill="#35C788" r="5"/>
<circle cx="412.7255419626146" cy="-220.99795031884474" fill="#35C788" r="5"/>
<circle cx="415.88688687065536" cy="-219.81324093465864" fill="#35C788" r="5"/>
<circle cx="419.40926945558545" cy="-224.0642157339112" fill="#35C788" r="5"/>
<circle cx="419.54483382237555" cy="-227.69292774483392" fill="#35C788" r="5"/>
<circle cx="409.06939676783037" cy="-244.92921616280935" fill="#35C788" r="5"/>
<circle cx="414.2344698998628" cy="-244.20772291904265" fill="#35C788" r="5"/>
<circle cx="420.7822342765282" cy="-247.69603965756892" fill="#35C788" r="5"/>
<circle cx="418.1564721341689" cy="-259.3925885940247" fill="#35C788" r="5"/>
<circle cx="427.5017275591251" cy="-254.1872790159974" fill="#35C788" r="5"/>
<circle cx="424.8824438080753" cy="-244.60998333048138" fill="#35C788" r="5"/>
<circle cx="429.4867695194304" cy="-239.6436697289339" fill="#35C788" r="5"/>
<circle cx="429.0708516855833" cy="-217.36056212443032" fill="#35C788" r="5"/>
<circle cx="436.64149699135356" cy="-187.98667917779994" fill="#35C788" r="5"/>
<circle cx="416.60486894233577" cy="-202.26015558648" fill="#35C788" r="5"/>
<circle cx="411.05850090524035" cy="-198.0836121432687" fill="#35C788" r="5"/>
<circle cx="411.51109019524887" cy="-181.75507187597486" fill="#35C788" r="5"/>
<circle cx="390.3175079735187" cy="-180.28788653983563" fill="#35C788" r="5"/>
<circle cx="433.21787700881345" cy="-181.3646249020948" fill="#35C788" r="5"/>
<circle cx="429.7134116491388" cy="-171.8522642576905" fill="#35C788" r="5"/>
<circle cx="434.4561342090318" cy="-169.42102878991975" fill="#35C788" r="5"/>
<circle cx="435.99854684799277" cy="-169.10924106596696" fill="#35C788" r="5"/>
<circle cx="431.90909616297347" cy="-160.24263476745546" fill="#35C788" r="5"/>
<circle cx="433.4219937190001" cy="-154.73918364269727" fill="#35C788" r="5"/>
<circle cx="430.05610996249067" cy="-152.2738163732579" fill="#35C788" r="5"/>
<circle cx="436.5283489867027" cy="-142.29904900015075" fill="#35C788" r="5"/>
<circle cx="421.83519421239436" cy="-134.02892877982217" fill="#35C788" r="5"/>
<circle cx="406.5569703031632" cy="-149.75868980443124" fill="#35C788" r="5"/>
<circle cx="390.8063846813015" cy="-152.92284213327292" fill="#35C788" r="5"/>
<circle cx="381.2465833105759" cy="-154.72439889838566" fill="#35C788" r="5"/>
<circle cx="379.31569324174654" cy="-158.8865766946205" fill="#35C788" r="5"/>
<circle cx="381.06875853396804" cy="-165.09349961686192" fill="#35C788" r="5"/>
<circle cx="374.35761907377463" cy="-165.74103743554716" fill="#35C788" r="5"/>
<circle cx="365.6849187421716" cy="-168.6223637403329" fill="#35C788" r="5"/>
<circle cx="361.1181905202275" cy="-170.3302386424658" fill="#35C788" r="5"/>
<circle cx="358.28436863120714" cy="-180.61211881175296" fill="#35C788" r="5"/>
<circle cx="356.3512323591947" cy="-188.08695354826398" fill="#35C788" r="5"/>
<circle cx="351.97122605152487" cy="-202.89992564870207" fill="#35C788" r="5"/>
<circle cx="339.45044074186075" cy="-203.07645986642535" fill="#35C788" r="5"/>
<circle cx="339.7729365215185" cy="-218.88644631300133" fill="#35C788" r="5"/>
<circle cx="326.71636654572046" cy="-234.11901573718427" fill="#35C788" r="5"/>
<circle cx="315.3634066202071" cy="-242.79729077465709" fill="#35C788" r="5"/>
<circle cx="293.5143492811746" cy="-243.16449616305408" fill="#35C788" r="5"/>
<circle cx="288.1293838436008" cy="-232.33286478635634" fill="#35C788" r="5"/>
<circle cx="303.80131063772205" cy="-235.65631415815747" fill="#35C788" r="5"/>
<circle cx="309.1024955162347" cy="-218.96556300726905" fill="#35C788" r="5"/>
<circle cx="314.8686342692901" cy="-218.62667098647717" fill="#35C788" r="5"/>
<circle cx="312.40822158853183" cy="-198.89091328899065" fill="#35C788" r="5"/>
<circle cx="299.6353010615956" cy="-194.35263356747194" fill="#35C788" r="5"/>
<circle cx="297.2327791922462" cy="-193.19292514065557" fill="#35C788" r="5"/>
<circle cx="296.6585443497656" cy="-199.49655282058552" fill="#35C788" r="5"/>
<circle cx="301.4662442410772" cy="-202.9854238433279" fill="#35C788" r="5"/>
<circle cx="304.62014821490914" cy="-212.49056806364177" fill="#35C788" r="5"/>
<circle cx="305.89759476356414" cy="-210.78895720809945" fill="#35C788" r="5"/>
<circle cx="290.08826147028725" cy="-208.22593149136404" fill="#35C788" r="5"/>
<circle cx="281.66306867470604" cy="-202.33118728386512" fill="#35C788" r="5"/>
<circle cx="271.1421456466025" cy="-208.45545815361518" fill="#35C788" r="5"/>
<circle cx="251.08437193864515" cy="-209.88132703061646" fill="#35C788" r="5"/>
<circle cx="245.81679219218384" cy="-217.2620444904347" fill="#35C788" r="5"/>
<circle cx="245.68328823461692" cy="-219.63205418541907" fill="#35C788" r="5"/>
<circle cx="260.57715314172884" cy="-217.94094947847663" fill="#35C788" r="5"/>
<circle cx="252.98772705191573" cy="-234.08971069988962" fill="#35C788" r="5"/>
<circle cx="264.55130828220496" cy="-237.50631335235462" fill="#35C788" r="5"/>
<circle cx="258.4919650188605" cy="-246.5644105609937" fill="#35C788" r="5"/>
<circle cx="240.38860756489052" cy="-249.40736547277808" fill="#35C788" r="5"/>
<circle cx="239.08485270252882" cy="-241.8207767097322" fill="#35C788" r="5"/>
<circle cx="219.7706978221093" cy="-243.410481521346" fill="#35C788" r="5"/>
<circle cx="221.39316852839318" cy="-246.8544740183513" fill="#35C788" r="5"/>
<circle cx="227.34051861756728" cy="-250.09204987846778" fill="#35C788" r="5"/>
<circle cx="229.12868663176226" cy="-273.66042607044307" fill="#35C788" r="5"/>
<circle cx="231.36110469129076" cy="-279.7270352525274" fill="#35C788" r="5"/>
<circle cx="211.95829337760438" cy="-270.70953439672337" fill="#35C788" r="5"/>
<circle cx="200.83137807221678" cy="-274.34689967468074" fill="#35C788" r="5"/>
<circle cx="188.0030507219676" cy="-271.66289865122553" fill="#35C788" r="5"/>
<circle cx="177.12621456956376" cy="-267.9366059483111" fill="#35C788" r="5"/>
<circle cx="170.53559789030584" cy="-261.07656367717067" fill="#35C788" r="5"/>
<circle cx="176.21255640791895" cy="-256.84097244999475" fill="#35C788" r="5"/>
<circle cx="185.6122001620168" cy="-248.76501335462476" fill="#35C788" r="5"/>
<circle cx="191.20951351372744" cy="-246.98165999450214" fill="#35C788" r="5"/>
<circle cx="195.10072192802627" cy="-255.83187768531758" fill="#35C788" r="5"/>
<circle cx="202.9907396199661" cy="-258.18561641823965" fill="#35C788" r="5"/>
<circle cx="203.31266757287304" cy="-246.22795606408255" fill="#35C788" r="5"/>
<circle cx="199.8181992876261" cy="-239.74681162826965" fill="#35C788" r="5"/>
<circle cx="210.0868221993419" cy="-235.99262508802317" fill="#35C788" r="5"/>
<circle cx="176.408235678228" cy="-236.23716091358452" fill="#35C788" r="5"/>
<circle cx="189.05318447108453" cy="-226.9359202343779" fill="#35C788" r="5"/>
<circle cx="201.6444170516198" cy="-224.9277418377585" fill="#35C788" r="5"/>
<circle cx="216.18734906160378" cy="-227.98915740642926" fill="#35C788" r="5"/>
<circle cx="223.55923300206322" cy="-223.5618068972475" fill="#35C788" r="5"/>
<circle cx="228.82941672088523" cy="-219.91008854536088" fill="#35C788" r="5"/>
<circle cx="233.91172243622282" cy="-208.87041571844273" fill="#35C788" r="5"/>
<circle cx="215.90345426885847" cy="-209.6286618490854" fill="#35C788" r="5"/>
<circle cx="210.30800000841532" cy="-210.67166941643487" fill="#35C788" r="5"/>
<circle cx="200.98795753287536" cy="-204.25638706251846" fill="#35C788" r="5"/>
<circle cx="191.08394230712946" cy="-203.34174867061068" fill="#35C788" r="5"/>
<circle cx="165.6802486302552" cy="-205.70411639822615" fill="#35C788" r="5"/>
<circle cx="174.21095974760868" cy="-191.50400267350102" fill="#35C788" r="5"/>
<circle cx="189.9845103764006" cy="-188.46662449999098" fill="#35C788" r="5"/>
<circle cx="192.16127479405685" cy="-177.80106907949474" fill="#35C788" r="5"/>
<circle cx="195.74749488276103" cy="-175.88160557354942" fill="#35C788" r="5"/>
<circle cx="190.89937925851012" cy="-174.49146904289626" fill="#35C788" r="5"/>
<circle cx="178.0873621054952" cy="-175.98958857611774" fill="#35C788" r="5"/>
<circle cx="177.26939057003048" cy="-178.0412345845039" fill="#35C788" r="5"/>
<circle cx="176.60522838292812" cy="-171.61356324798112" fill="#35C788" r="5"/>
<circle cx="193.42870187536684" cy="-168.8997235837772" fill="#35C788" r="5"/>
<circle cx="203.17210453286384" cy="-163.25777689272147" fill="#35C788" r="5"/>
<circle cx="203.6057787949834" cy="-189.12428112366104" fill="#35C788" r="5"/>
<circle cx="200.9570961802824" cy="-196.68098660785228" fill="#35C788" r="5"/>
<circle cx="210.95465866776004" cy="-199.16083944684118" fill="#35C788" r="5"/>
<circle cx="215.13649801710824" cy="-197.1138347424262" fill="#35C788" r="5"/>
<circle cx="239.54500819841527" cy="-196.193511252027" fill="#35C788" r="5"/>
<circle cx="243.1408175413853" cy="-194.90875520576455" fill="#35C788" r="5"/>
<circle cx="236.33785639682338" cy="-181.61484802454498" fill="#35C788" r="5"/>
<circle cx="239.9719891153748" cy="-178.48981829662276" fill="#35C788" r="5"/>
<circle cx="247.43198309253683" cy="-169.2908433469348" fill="#35C788" r="5"/>
<circle cx="237.93016730937555" cy="-165.47507390777065" fill="#35C788" r="5"/>
<circle cx="224.38556518857328" cy="-150.5649189692258" fill="#35C788" r="5"/>
<circle cx="237.2578211261221" cy="-142.75107597639183" fill="#35C788" r="5"/>
<circle cx="266.40066177467924" cy="-143.47537665897326" fill="#35C788" r="5"/>
<circle cx="262.4637412007982" cy="-152.36300809632115" fill="#35C788" r="5"/>
<circle cx="262.8218614268217" cy="-157.97730021834758" fill="#35C788" r="5"/>
<circle cx="262.7917730115598" cy="-174.00251410120964" fill="#35C788" r="5"/>
<circle cx="259.4709821167634" cy="-174.92497622598282" fill="#35C788" r="5"/>
<circle cx="258.5056565730178" cy="-176.3713015224077" fill="#35C788" r="5"/>
<circle cx="263.13390660165555" cy="-175.7411261041683" fill="#35C788" r="5"/>
<circle cx="314.2197720670261" cy="-176.2765808264365" fill="#35C788" r="5"/>
<circle cx="319.45272565196177" cy="-185.73440305306713" fill="#35C788" r="5"/>
<circle cx="328.8788121316105" cy="-192.3445215487214" fill="#35C788" r="5"/>
<circle cx="331.8727135142936" cy="-181.9111905059036" fill="#35C788" r="5"/>
<circle cx="336.0500198574418" cy="-168.11045042857248" fill="#35C788" r="5"/>
<circle cx="325.41847963405104" cy="-166.41933533645266" fill="#35C788" r="5"/>
<circle cx="324.7236336833704" cy="-164.30745837103802" fill="#35C788" r="5"/>
<circle cx="325.47489552501025" cy="-153.4639827814256" fill="#35C788" r="5"/>
<circle cx="326.67993046647894" cy="-151.9051769110243" fill="#35C788" r="5"/>
<circle cx="348.7428789339213" cy="-152.1076663836725" fill="#35C788" r="5"/>
<circle cx="355.5414161823914" cy="-151.4933275728723" fill="#35C788" r="5"/>
<circle cx="361.73263774944957" cy="-136.2954682020832" fill="#35C788" r="5"/>
<circle cx="375.6545506391953" cy="-143.6715478765057" fill="#35C788" r="5"/>
<circle cx="394.46515211579856" cy="-127.34721444578163" fill="#35C788" r="5"/>
<circle cx="413.84080246633533" cy="-123.58706860112771" fill="#35C788" r="5"/>
<circle cx="418.6799701910403" cy="-118.57340757352871" fill="#35C788" r="5"/>
<circle cx="422.588822501125" cy="-111.55632266881163" fill="#35C788" r="5"/>
<circle cx="422.4525673887183" cy="-109.2740887529687" fill="#35C788" r="5"/>
<circle cx="396.5188168158998" cy="-107.67676640374883" fill="#35C788" r="5"/>
<circle cx="404.6928745816432" cy="-94.00009950426723" fill="#35C788" r="5"/>
<circle cx="405.4095620445578" cy="-88.92729024832208" fill="#35C788" r="5"/>
<circle cx="411.3820585469643" cy="-85.4666724471839" fill="#35C788" r="5"/>
<circle cx="423.05654016261116" cy="-90.01752765534383" fill="#35C788" r="5"/>
<circle cx="430.9444228234892" cy="-99.31747151033625" fill="#35C788" r="5"/>
<circle cx="432.32002330327816" cy="-94.0160539360432" fill="#35C788" r="5"/>
<circle cx="435.7190836043555" cy="-88.94920787366785" fill="#35C788" r="5"/>
<circle cx="423.8515083298341" cy="-75.3886518841771" fill="#35C788" r="5"/>
<circle cx="415.1881322638038" cy="-65.06446985762597" fill="#35C788" r="5"/>
<circle cx="410.8872178256725" cy="-64.45717141078687" fill="#35C788" r="5"/>
<circle cx="398.096205869999" cy="-66.01645980133227" fill="#35C788" r="5"/>
<circle cx="393.03252980777006" cy="-63.46855843033662" fill="#35C788" r="5"/>
<circle cx="385.24487160363543" cy="-74.45365764351051" fill="#35C788" r="5"/>
<circle cx="380.6914550473125" cy="-56.60956051875625" fill="#35C788" r="5"/>
<circle cx="397.7610585675127" cy="-55.44643211064953" fill="#35C788" r="5"/>
<circle cx="389.7406866669833" cy="-42.44388284466447" fill="#35C788" r="5"/>
<circle cx="397.31151409858023" cy="-46.95976435159351" fill="#35C788" r="5"/>
<circle cx="414.61697465365694" cy="-48.98101934212366" fill="#35C788" r="5"/>
<circle cx="413.13742061182114" cy="-40.70272409931338" fill="#35C788" r="5"/>
<circle cx="410.04834602265186" cy="-26.518757366023614" fill="#35C788" r="5"/>
<circle cx="424.528804387055" cy="-18.012046119566996" fill="#35C788" r="5"/>
<circle cx="439.93989707295225" cy="-14.869835936357553" fill="#35C788" r="5"/>
<circle cx="386.03019658327116" cy="-18.940867701314605" fill="#35C788" r="5"/>
<circle cx="383.8159287654248" cy="-27.104735133371648" fill="#35C788" r="5"/>
<circle cx="369.41212023146295" cy="-24.802169480850623" fill="#35C788" r="5"/>
<circle cx="377.86878628464603" cy="-38.625348692521996" fill="#35C788" r="5"/>
<circle cx="368.3849700059115" cy="-42.222304458735096" fill="#35C788" r="5"/>
<circle cx="364.23356479589853" cy="-47.12517492646588" fill="#35C788" r="5"/>
<circle cx="351.5973703016728" cy="-35.58216480751007" fill="#35C788" r="5"/>
<circle cx="333.09613994888474" cy="-36.50501601577882" fill="#35C788" r="5"/>
<circle cx="333.8238480034475" cy="-39.1884628453976" fill="#35C788" r="5"/>
<circle cx="334.68031099747213" cy="-17.885625088341204" fill="#35C788" r="5"/>
<circle cx="339.3036769909009" cy="-14.43597529650886" fill="#35C788" r="5"/>
<circle cx="280.59859718685254" cy="-15.725837049760473" fill="#35C788" r="5"/>
<circle cx="292.04253668131133" cy="-25.71566106382782" fill="#35C788" r="5"/>
<circle cx="306.11735169688853" cy="-26.149949065153447" fill="#35C788" r="5"/>
<circle cx="317.4495513402544" cy="-36.423182666805545" fill="#35C788" r="5"/>
<circle cx="318.08528374151626" cy="-47.94346327546751" fill="#35C788" r="5"/>
<circle cx="314.56692061320024" cy="-59.273887544354096" fill="#35C788" r="5"/>
<circle cx="295.98512622210427" cy="-70.85936554144197" fill="#35C788" r="5"/>
<circle cx="297.19235409677" cy="-78.86066656623352" fill="#35C788" r="5"/>
<circle cx="303.026479948626" cy="-75.30051604059649" fill="#35C788" r="5"/>
<circle cx="305.83812464501005" cy="-77.04611020400546" fill="#35C788" r="5"/>
<circle cx="331.3705599942777" cy="-65.08779691116837" fill="#35C788" r="5"/>
<circle cx="340.1796028118943" cy="-62.06266282461772" fill="#35C788" r="5"/>
<circle cx="350.38677989152825" cy="-64.1765762449813" fill="#35C788" r="5"/>
<circle cx="349.1903510310722" cy="-78.91748388329594" fill="#35C788" r="5"/>
<circle cx="347.7863675272089" cy="-88.57809921504668" fill="#35C788" r="5"/>
<circle cx="377.4823832021482" cy="-96.19598233007669" fill="#35C788" r="5"/>
<circle cx="380.8392003604161" cy="-98.35893412064964" fill="#35C788" r="5"/>
<circle cx="374.7467377077884" cy="-110.99970310630292" fill="#35C788" r="5"/>
<circle cx="368.4515502504754" cy="-115.84805490690871" fill="#35C788" r="5"/>
<circle cx="375.5150824694892" cy="-120.47121022411123" fill="#35C788" r="5"/>
<circle cx="366.27034541313077" cy="-119.80403746915533" fill="#35C788" r="5"/>
<circle cx="352.90617407824567" cy="-120.81289335571431" fill="#35C788" r="5"/>
<circle cx="349.99439779735206" cy="-125.9793017254494" fill="#35C788" r="5"/>
<circle cx="337.53631480175477" cy="-134.59199065966493" fill="#35C788" r="5"/>
<circle cx="329.6919872066896" cy="-135.76212305385405" fill="#35C788" r="5"/>
<circle cx="324.6373109320209" cy="-138.64089877922206" fill="#35C788" r="5"/>
<circle cx="318.8852053620893" cy="-137.42075468924511" fill="#35C788" r="5"/>
<circle cx="309.47421441541354" cy="-147.46009399117045" fill="#35C788" r="5"/>
<circle cx="285.11577858100964" cy="-142.76017058253245" fill="#35C788" r="5"/>
<circle cx="274.4431279703841" cy="-136.86009546925354" fill="#35C788" r="5"/>
<circle cx="267.83084942455974" cy="-135.90668890907673" fill="#35C788" r="5"/>
<circle cx="253.5667943873511" cy="-126.35697391220111" fill="#35C788" r="5"/>
<circle cx="261.459275445479" cy="-124.49676244325794" fill="#35C788" r="5"/>
<circle cx="268.235548268346" cy="-121.58370205365672" fill="#35C788" r="5"/>
<circle cx="280.18548253642825" cy="-119.56289862244388" fill="#35C788" r="5"/>
<circle cx="294.00663311487824" cy="-128.52368842246213" fill="#35C788" r="5"/>
<circle cx="299.9563583623488" cy="-129.31785501179402" fill="#35C788" r="5"/>
<circle cx="306.0869643031954" cy="-126.2249585381787" fill="#35C788" r="5"/>
<circle cx="319.6990313867217" cy="-123.5619293486089" fill="#35C788" r="5"/>
<circle cx="330.2378206685969" cy="-113.8273682692732" fill="#35C788" r="5"/>
<circle cx="328.8425882977444" cy="-112.77815720604538" fill="#35C788" r="5"/>
<circle cx="337.33893347270146" cy="-107.83863987601704" fill="#35C788" r="5"/>
<circle cx="311.1983110034249" cy="-108.18216944173415" fill="#35C788" r="5"/>
<circle cx="305.6480873461365" cy="-104.52232672330511" fill="#35C788" r="5"/>
<circle cx="311.1500183263259" cy="-102.43972932793808" fill="#35C788" r="5"/>
<circle cx="314.80751730277177" cy="-102.18115148175606" fill="#35C788" r="5"/>
<circle cx="312.38375111767675" cy="-98.38148444771392" fill="#35C788" r="5"/>
<circle cx="312.238879647908" cy="-95.33995053092039" fill="#35C788" r="5"/>
<circle cx="301.81844632907973" cy="-90.50964933754419" fill="#35C788" r="5"/>
<circle cx="287.0347492081558" cy="-92.13569811906565" fill="#35C788" r="5"/>
<circle cx="270.2896160946447" cy="-84.66643286266455" fill="#35C788" r="5"/>
<circle cx="260.47643887502227" cy="-72.93525636741296" fill="#35C788" r="5"/>
<circle cx="256.7489591749587" cy="-68.95993306629859" fill="#35C788" r="5"/>
<circle cx="270.24173702901936" cy="-67.4667751106999" fill="#35C788" r="5"/>
<circle cx="268.74406192948635" cy="-57.3098568919878" fill="#35C788" r="5"/>
<circle cx="257.3478870166691" cy="-58.30980180454607" fill="#35C788" r="5"/>
<circle cx="224.36112646723637" cy="-57.377126575433735" fill="#35C788" r="5"/>
<circle cx="247.99157031058144" cy="-32.34681202458123" fill="#35C788" r="5"/>
<circle cx="253.80933633088534" cy="-30.34399798488128" fill="#35C788" r="5"/>
<circle cx="253.5843359913266" cy="-16.408642038412296" fill="#35C788" r="5"/>
<circle cx="205.96133254412422" cy="-15.603332901755506" fill="#35C788" r="5"/>
<circle cx="214.36610715253394" cy="-26.833898305892163" fill="#35C788" r="5"/>
<circle cx="185.90395907165518" cy="-28.601120061778314" fill="#35C788" r="5"/>
<circle cx="186.83377528164968" cy="-29.963602176615048" fill="#35C788" r="5"/>
<circle cx="183.31589936177912" cy="-41.35457584128758" fill="#35C788" r="5"/>
<circle cx="173.18741988480872" cy="-34.177724837430006" fill="#35C788" r="5"/>
<circle cx="165.85835041868012" cy="-38.50835351124057" fill="#35C788" r="5"/>
<circle cx="160.52954952036762" cy="-50.01281405108986" fill="#35C788" r="5"/>
<circle cx="140.59723192176895" cy="-50.796910777291686" fill="#35C788" r="5"/>
<circle cx="130.01171575157755" cy="-51.26970814392243" fill="#35C788" r="5"/>
<circle cx="116.58918473272682" cy="-34.40201701947462" fill="#35C788" r="5"/>
<circle cx="134.61783345437811" cy="-31.839394333840268" fill="#35C788" r="5"/>
<circle cx="127.85743824857836" cy="-25.66406438223641" fill="#35C788" r="5"/>
<circle cx="126.6031433688436" cy="-15.253830373677793" fill="#35C788" r="5"/>
<circle cx="97.19789691231877" cy="-16.176019374595672" fill="#35C788" r="5"/>
<circle cx="100.75470325190409" cy="-26.897219815738325" fill="#35C788" r="5"/>
<circle cx="73.85455940203192" cy="-24.01194159430635" fill="#35C788" r="5"/>
<circle cx="69.59126450454355" cy="-19.01521361947617" fill="#35C788" r="5"/>
<circle cx="65.38253324218745" cy="-20.690245186626285" fill="#35C788" r="5"/>
<circle cx="52.224906823946256" cy="-31.004863338273523" fill="#35C788" r="5"/>
<circle cx="41.37484179024759" cy="-25.321728013005778" fill="#35C788" r="5"/>
<circle cx="45.91210662618646" cy="-21.555456543582316" fill="#35C788" r="5"/>
<circle cx="34.84588788666421" cy="-21.817921741887652" fill="#35C788" r="5"/>
<circle cx="30.200524303553923" cy="-30.407291668901355" fill="#35C788" r="5"/>
<circle cx="24.05716228755054" cy="-32.34192074705449" fill="#35C788" r="5"/>
<circle cx="24.050339443928692" cy="-41.52132872087514" fill="#35C788" r="5"/>
<circle cx="41.84952374791256" cy="-62.07148579653257" fill="#35C788" r="5"/>
<circle cx="39.08090178558368" cy="-67.33204466752866" fill="#35C788" r="5"/>
<circle cx="31.716315292992192" cy="-68.944108083889" fill="#35C788" r="5"/>
<circle cx="33.174839134362074" cy="-88.19152784306141" fill="#35C788" r="5"/>
<circle cx="54.32572213151529" cy="-90.73294948950785" fill="#35C788" r="5"/>
<circle cx="51.52335902007562" cy="-57.92070303159328" fill="#35C788" r="5"/>
<circle cx="60.59288632786595" cy="-57.44834380142847" fill="#35C788" r="5"/>
<circle cx="61.43837879530626" cy="-47.294081276917446" fill="#35C788" r="5"/>
<circle cx="69.68439908371953" cy="-43.045886840310324" fill="#35C788" r="5"/>
<circle cx="73.16314991137997" cy="-47.02054653683907" fill="#35C788" r="5"/>
<circle cx="86.26969670277218" cy="-52.43834239400794" fill="#35C788" r="5"/>
<circle cx="83.22792481256813" cy="-64.24370201888418" fill="#35C788" r="5"/>
<circle cx="81.98275432318296" cy="-69.52216896610992" fill="#35C788" r="5"/>
<circle cx="82.09631035081084" cy="-77.73370594752741" fill="#35C788" r="5"/>
<circle cx="80.21531095167697" cy="-80.41356377359173" fill="#35C788" r="5"/>
<circle cx="80.77119656561919" cy="-94.94692488227278" fill="#35C788" r="5"/>
<circle cx="86.08718246313306" cy="-95.65485530225531" fill="#35C788" r="5"/>
<circle cx="90.53365027780512" cy="-94.62720878699376" fill="#35C788" r="5"/>
<circle cx="91.59341883015983" cy="-95.04146481749302" fill="#35C788" r="5"/>
<circle cx="105.97886242564374" cy="-94.47306038273352" fill="#35C788" r="5"/>
<circle cx="104.64320747592524" cy="-99.09105185447717" fill="#35C788" r="5"/>
<circle cx="106.03864813861725" cy="-99.4515710535947" fill="#35C788" r="5"/>
<circle cx="116.67604936531255" cy="-108.1687548308355" fill="#35C788" r="5"/>
<circle cx="114.78382412743072" cy="-98.2000596380045" fill="#35C788" r="5"/>
<circle cx="122.73045777406095" cy="-94.69263227640562" fill="#35C788" r="5"/>
<circle cx="121.90425290823624" cy="-81.46623438150168" fill="#35C788" r="5"/>
<circle cx="116.00201566826107" cy="-75.2512570675547" fill="#35C788" r="5"/>
<circle cx="95.40534683328639" cy="-74.77356468960691" fill="#35C788" r="5"/>
<circle cx="100.80766762741796" cy="-72.14172122915294" fill="#35C788" r="5"/>
<circle cx="105.08191219388202" cy="-69.73852639204024" fill="#35C788" r="5"/>
<circle cx="111.39861089557104" cy="-61.99908564732115" fill="#35C788" r="5"/>
<circle cx="113.35745070639106" cy="-60.67239261362073" fill="#35C788" r="5"/>
<circle cx="118.27520986857377" cy="-61.91990479847951" fill="#35C788" r="5"/>
<circle cx="123.03545008885666" cy="-60.58746964461161" fill="#35C788" r="5"/>
<circle cx="134.52063031223875" cy="-66.56138305003797" fill="#35C788" r="5"/>
<circle cx="195.61639762356472" cy="-65.41317170533947" fill="#35C788" r="5"/>
<circle cx="193.79931793586934" cy="-78.66673399695901" fill="#35C788" r="5"/>
<circle cx="209.41500593319884" cy="-82.08873420728762" fill="#35C788" r="5"/>
<circle cx="218.42588070145047" cy="-86.80731416047531" fill="#35C788" r="5"/>
<circle cx="229.4897954440587" cy="-76.93503749865008" fill="#35C788" r="5"/>
<circle cx="240.05506172867584" cy="-89.74317385214584" fill="#35C788" r="5"/>
<circle cx="252.59831368026857" cy="-90.98202250247216" fill="#35C788" r="5"/>
<circle cx="267.3509797151852" cy="-94.50472114921477" fill="#35C788" r="5"/>
<circle cx="264.60367379817785" cy="-98.41430942671713" fill="#35C788" r="5"/>
<circle cx="264.7999095160034" cy="-110.26809491782517" fill="#35C788" r="5"/>
<circle cx="256.4055087517444" cy="-111.67609072461322" fill="#35C788" r="5"/>
<circle cx="244.87795485151264" cy="-110.30152011192158" fill="#35C788" r="5"/>
<circle cx="239.10165659153276" cy="-109.69909692697165" fill="#35C788" r="5"/>
<circle cx="230.51295486158344" cy="-98.14909673329701" fill="#35C788" r="5"/>
<circle cx="221.1268549797081" cy="-102.48837097729766" fill="#35C788" r="5"/>
<circle cx="213.9349188384937" cy="-98.00913391519848" fill="#35C788" r="5"/>
<circle cx="211.91342933999508" cy="-95.20582656783654" fill="#35C788" r="5"/>
<circle cx="211.7153214934603" cy="-109.8717927137565" fill="#35C788" r="5"/>
<circle cx="216.69570956180812" cy="-110.04539014501037" fill="#35C788" r="5"/>
<circle cx="218.01288618492356" cy="-121.98700924539601" fill="#35C788" r="5"/>
<circle cx="213.1187716926897" cy="-122.7021767208131" fill="#35C788" r="5"/>
<circle cx="206.4329074027736" cy="-124.81802716751284" fill="#35C788" r="5"/>
<circle cx="219.52570740741803" cy="-128.08802973015648" fill="#35C788" r="5"/>
<circle cx="223.57209086639298" cy="-130.82179522420745" fill="#35C788" r="5"/>
<circle cx="206.48465248975074" cy="-137.78457622733782" fill="#35C788" r="5"/>
<circle cx="204.76240441385394" cy="-142.0544205647787" fill="#35C788" r="5"/>
<circle cx="207.71914607601866" cy="-152.10081698287544" fill="#35C788" r="5"/>
<circle cx="190.27628015634582" cy="-150.32188347491956" fill="#35C788" r="5"/>
<circle cx="190.12999970081506" cy="-129.99840143491093" fill="#35C788" r="5"/>
<circle cx="183.46787715309333" cy="-115.50057701779367" fill="#35C788" r="5"/>
<circle cx="181.71075816229566" cy="-115.372519832198" fill="#35C788" r="5"/>
<circle cx="177.69962685738747" cy="-89.97724481137693" fill="#35C788" r="5"/>
<circle cx="168.1298649090069" cy="-94.18062823755311" fill="#35C788" r="5"/>
<circle cx="161.38555335948382" cy="-97.07026804929176" fill="#35C788" r="5"/>
<circle cx="142.42336810698097" cy="-96.28696266908398" fill="#35C788" r="5"/>
<circle cx="144.4302406176358" cy="-112.46015680205639" fill="#35C788" r="5"/>
<circle cx="144.36194180725423" cy="-130.60428048131405" fill="#35C788" r="5"/>
<circle cx="159.5058317724419" cy="-141.88633498624887" fill="#35C788" r="5"/>
<circle cx="153.55951358049023" cy="-151.01831438129082" fill="#35C788" r="5"/>
<circle cx="159.5663763111588" cy="-175.04395788546006" fill="#35C788" r="5"/>
<circle cx="152.38065779651444" cy="-173.68558970747327" fill="#35C788" r="5"/>
<circle cx="137.85513997036364" cy="-182.07044484095678" fill="#35C788" r="5"/>
<circle cx="114.25490140855084" cy="-176.35461378243707" fill="#35C788" r="5"/>
<circle cx="107.00757097724504" cy="-179.5278127021148" fill="#35C788" r="5"/>
<circle cx="104.75159605310438" cy="-173.2742085048427" fill="#35C788" r="5"/>
<circle cx="97.69211371334053" cy="-173.1729481035739" fill="#35C788" r="5"/>
<circle cx="90.70759929055225" cy="-171.46700541134257" fill="#35C788" r="5"/>
<circle cx="80.54946099142612" cy="-161.70083107112632" fill="#35C788" r="5"/>
<circle cx="101.44010296970697" cy="-163.451298176186" fill="#35C788" r="5"/>
<circle cx="106.01528386878829" cy="-159.9419029967251" fill="#35C788" r="5"/>
<circle cx="128.97665259901694" cy="-159.25713343215952" fill="#35C788" r="5"/>
<circle cx="124.46922801369148" cy="-153.8459198809408" fill="#35C788" r="5"/>
<circle cx="113.08738547565719" cy="-157.06538286878785" fill="#35C788" r="5"/>
<circle cx="109.08027720717473" cy="-144.4423949655154" fill="#35C788" r="5"/>
<circle cx="128.52675535316675" cy="-127.52557262364552" fill="#35C788" r="5"/>
<circle cx="119.03365157555838" cy="-118.43704318284759" fill="#35C788" r="5"/>
<circle cx="107.4118674881955" cy="-118.59356863433312" fill="#35C788" r="5"/>
<circle cx="79.50268088187502" cy="-120.04295756066416" fill="#35C788" r="5"/>
<circle cx="79.09101303002338" cy="-116.2052903742548" fill="#35C788" r="5"/>
<circle cx="64.75647233261688" cy="-116.62593413587848" fill="#35C788" r="5"/>
<circle cx="68.18889447186534" cy="-120.73949317615254" fill="#35C788" r="5"/>
<circle cx="67.56301996987492" cy="-127.5738800960405" fill="#35C788" r="5"/>
<circle cx="69.97692544099128" cy="-131.25999980538302" fill="#35C788" r="5"/>
<circle cx="53.76765231372049" cy="-133.04264764472123" fill="#35C788" r="5"/>
<circle cx="53.71265654097316" cy="-124.01111381531942" fill="#35C788" r="5"/>
<circle cx="37.69848570315557" cy="-114.71288007214207" fill="#35C788" r="5"/>
<circle cx="23.859029866363393" cy="-115.37149609880315" fill="#35C788" r="5"/>
<circle cx="21.41528775717904" cy="-143.75703712025478" fill="#35C788" r="5"/>
<circle cx="27.122293056144017" cy="-139.43491291907642" fill="#35C788" r="5"/>
<circle cx="47.082180259842936" cy="-139.3799661656105" fill="#35C788" r="5"/>
<circle cx="55.90261734397623" cy="-140.49855096889019" fill="#35C788" r="5"/>
<circle cx="46.23494823374492" cy="-162.4192081471845" fill="#35C788" r="5"/>
<circle cx="59.05342728931858" cy="-161.31501915600546" fill="#35C788" r="5"/>
<circle cx="64.78715511892678" cy="-186.82629838604683" fill="#35C788" r="5"/>
<circle cx="37.22293311082315" cy="-185.98409917610215" fill="#35C788" r="5"/>
<circle cx="33.414241589192414" cy="-186.0558550765086" fill="#35C788" r="5"/>
<circle cx="36.761041511974696" cy="-190.5942583761593" fill="#35C788" r="5"/>
<circle cx="31.818069839714042" cy="-192.79992859258715" fill="#35C788" r="5"/>
<circle cx="27.69748519055721" cy="-190.51964012957373" fill="#35C788" r="5"/>
<circle cx="23.751169212826024" cy="-200.097302475564" fill="#35C788" r="5"/>
<circle cx="29.502050488968028" cy="-212.13882069328002" fill="#35C788" r="5"/>
<circle cx="49.357599108093815" cy="-206.01625735365982" fill="#35C788" r="5"/>
<circle cx="40.2000938381425" cy="-232.4349071017669" fill="#35C788" r="5"/>
<circle cx="48.576762419880225" cy="-240.46508386188" fill="#35C788" r="5"/>
<circle cx="51.96720531867877" cy="-242.30087395692107" fill="#35C788" r="5"/>
<circle cx="58.83295143083194" cy="-243.34958719156126" fill="#35C788" r="5"/>
<circle cx="64.71803420250443" cy="-232.69099554552378" fill="#35C788" r="5"/>
<circle cx="68.94259440471157" cy="-216.86354731147085" fill="#35C788" r="5"/>
<circle cx="86.59605682839924" cy="-213.05658927949244" fill="#35C788" r="5"/>
<circle cx="90.91092585914402" cy="-212.98910820139034" fill="#35C788" r="5"/>
<circle cx="92.56424589841882" cy="-203.64112427304866" fill="#35C788" r="5"/>
<circle cx="111.59169919951698" cy="-200.9885160376297" fill="#35C788" r="5"/>
<circle cx="117.65091387689154" cy="-206.09612990608827" fill="#35C788" r="5"/>
<circle cx="118.25287328906424" cy="-218.65667293697183" fill="#35C788" r="5"/>
<circle cx="108.80733503514749" cy="-214.01865416118085" fill="#35C788" r="5"/>
<circle cx="108.20749018752684" cy="-227.55804985518077" fill="#35C788" r="5"/>
<circle cx="163.7646929469673" cy="-225.54449462032056" fill="#35C788" r="5"/>
<circle cx="151.58701648962057" cy="-223.9764091941456" fill="#35C788" r="5"/>
<circle cx="148.99939574405184" cy="-232.66818332933343" fill="#35C788" r="5"/>
<circle cx="147.29732376289553" cy="-255.9002139837282" fill="#35C788" r="5"/>
<circle cx="141.6166217347418" cy="-256.0367679343547" fill="#35C788" r="5"/>
<circle cx="133.95667297809484" cy="-257.6736234408792" fill="#35C788" r="5"/>
<circle cx="138.0232839291193" cy="-265.31968788015314" fill="#35C788" r="5"/>
<circle cx="130.95825899736727" cy="-282.8297743647475" fill="#35C788" r="5"/>
<circle cx="119.85389590097024" cy="-281.1764674871787" fill="#35C788" r="5"/>
<circle cx="120.55936156103041" cy="-261.75756338056453" fill="#35C788" r="5"/>
<circle cx="121.31267639431297" cy="-245.91256913250126" fill="#35C788" r="5"/>
<circle cx="115.28986659451093" cy="-241.65155376392872" fill="#35C788" r="5"/>
<circle cx="116.32281328304586" cy="-251.0514177296106" fill="#35C788" r="5"/>
<circle cx="94.66671993855068" cy="-258.03466340116165" fill="#35C788" r="5"/>
<circle cx="86.13683639565575" cy="-272.07943736220477" fill="#35C788" r="5"/>
<circle cx="84.96647109627607" cy="-266.31127151765656" fill="#35C788" r="5"/>
<circle cx="67.24647263164184" cy="-259.17133257092445" fill="#35C788" r="5"/>
<circle cx="63.99640247223086" cy="-258.998102612541" fill="#35C788" r="5"/>
<circle cx="55.07338774835737" cy="-267.38851785388044" fill="#35C788" r="5"/>
<circle cx="46.82624685135013" cy="-258.9804590537392" fill="#35C788" r="5"/>
<circle cx="32.81927322263746" cy="-253.40150567162402" fill="#35C788" r="5"/>
<circle cx="27.732074960381027" cy="-252.8431118847051" fill="#35C788" r="5"/>
<circle cx="25.659229391322416" cy="-264.8946594339141" fill="#35C788" r="5"/>
<circle cx="37.48565820955661" cy="-265.3932338026417" fill="#35C788" r="5"/>
<circle cx="39.61883985896022" cy="-284.19797846557117" fill="#35C788" r="5"/>
<circle cx="39.35348272325737" cy="-297.24686572661784" fill="#35C788" r="5"/>
<circle cx="56.88270783815907" cy="-299.9281832252724" fill="#35C788" r="5"/>
<circle cx="67.15680314054696" cy="-300.36861422430474" fill="#35C788" r="5"/>
<circle cx="60.94799895207543" cy="-288.7886340503743" fill="#35C788" r="5"/>
<circle cx="80.19538486933496" cy="-288.34203264088296" fill="#35C788" r="5"/>
<circle cx="100.17769257370198" cy="-286.6509498018844" fill="#35C788" r="5"/>
<circle cx="105.31819629335934" cy="-294.1700741209829" fill="#35C788" r="5"/>
<circle cx="128.10987087558271" cy="-311.6254406581166" fill="#35C788" r="5"/>
<circle cx="137.78292900136594" cy="-304.1659980092178" fill="#35C788" r="5"/>
<circle cx="134.75694447300162" cy="-301.3655994390804" fill="#35C788" r="5"/>
<circle cx="147.39477066205941" cy="-301.4911667019016" fill="#35C788" r="5"/>
<circle cx="144.09799579299036" cy="-295.486145699494" fill="#35C788" r="5"/>
</g>
</g>
<g>
<g>
<path d="M144.09799,-295.48615 L144.09799,-295.48615 L151.29276,-294.3263 L160.05365,-293.14996 L159.32376,-291.41592 L169.80243,-287.91998 L182.62051,-293.78247 L172.77414,-302.6059 L192.1295,-306.95685 L218.84702,-291.76306 L232.54318,-288.68195 L249.1599,-294.02917 L259.24927,-311.2069 L263.60196,-303.36694 L275.21686,-301.1932 L275.8502,-286.12952 L272.11197,-280.31534 L286.74765,-272.14478 L292.73016,-279.0224 L303.72095,-278.92798 L304.6201,-272.67484 L302.17703,-268.9857 L302.44843,-261.76602 L309.76443,-268.0943 L317.8304,-268.46545 L320.04706,-276.7411 L311.75894,-288.5757 L285.0841,-293.6897 L285.50253,-303.35455 L294.2357,-307.32117 L309.77576,-307.5189 L308.26865,-303.1531 L316.51355,-299.69803 L322.5891,-308.61285 L340.9503,-311.60223 L373.72543,-302.05588 L372.33337,-299.6052 L375.92517,-297.50287 L376.55173,-290.53452 L386.7873,-282.55887 L391.31512,-292.36404 L389.7395,-298.94995 L381.01395,-307.5897 L430.29468,-306.97537 L416.08572,-290.50366 L404.79764,-289.56726 L411.52716,-286.1233 L429.63602,-285.95724 L425.6544,-283.2982 L423.98615,-279.16614 L423.9262,-277.03278 L424.99612,-268.99536 L415.7666,-264.88882 L413.6885,-273.9572 L406.90048,-271.47928 L367.6027,-270.0118 L362.79437,-268.3561 L359.7881,-273.0338 L342.78445,-284.68582 L337.93286,-280.90356 L342.13754,-273.98114 L342.83554,-254.55006 L344.6278,-239.02626 L358.77786,-251.32503 L367.14685,-243.65247 L362.9037,-235.6653 L382.3227,-236.64317 L372.88843,-225.96437 L382.7765,-223.41122 L389.13004,-223.184 L400.92874,-214.14261 L413.97775,-214.74777 L412.72556,-220.99796 L415.8869,-219.81325 L419.40927,-224.06421 L419.54483,-227.69293 L409.0694,-244.92921 L414.23447,-244.20772 L420.78223,-247.69604 L418.15646,-259.39258 L427.50174,-254.18729 L424.88245,-244.60999 L429.48676,-239.64368 L429.07086,-217.36057 L436.6415,-187.98668 L416.60486,-202.26016 L411.0585,-198.08362 L411.51108,-181.75507 L390.3175,-180.28789 L433.21786,-181.36462 L429.7134,-171.85226 L434.45615,-169.42104 L435.99854,-169.10924 L431.9091,-160.24263 L433.422,-154.73918 L430.05612,-152.27382 L436.52835,-142.29904 L421.8352,-134.02893 L406.55698,-149.75868 L390.8064,-152.92284 L381.24658,-154.7244 L379.3157,-158.88658 L381.06876,-165.0935 L374.3576,-165.74104 L365.6849,-168.62236 L361.1182,-170.33025 L358.28436,-180.61212 L356.35123,-188.08696 L351.97122,-202.89993 L339.45044,-203.07646 L339.77295,-218.88644 L326.71637,-234.11902 L315.3634,-242.79729 L293.51434,-243.16449 L288.1294,-232.33287 L303.8013,-235.65631 L309.1025,-218.96556 L314.86862,-218.62668 L312.40823,-198.89091 L299.6353,-194.35263 L297.2328,-193.19293 L296.65854,-199.49655 L301.46625,-202.98543 L304.62015,-212.49057 L305.89758,-210.78896 L290.08826,-208.22594 L281.66306,-202.33119 L271.14215,-208.45546 L251.08437,-209.88133 L245.81679,-217.26204 L245.68329,-219.63205 L260.57715,-217.94095 L252.98773,-234.0897 L264.5513,-237.50632 L258.49197,-246.5644 L240.38861,-249.40736 L239.08485,-241.82077 L219.77069,-243.41048 L221.39317,-246.85448 L227.34052,-250.09206 L229.1287,-273.66043 L231.3611,-279.72702 L211.9583,-270.70953 L200.83138,-274.3469 L188.00305,-271.6629 L177.12622,-267.9366 L170.5356,-261.07657 L176.21255,-256.84097 L185.6122,-248.76501 L191.20952,-246.98166 L195.10072,-255.83188 L202.99074,-258.1856 L203.31267,-246.22795 L199.8182,-239.74681 L210.08682,-235.99263 L176.40823,-236.23717 L189.05318,-226.93591 L201.64442,-224.92773 L216.18735,-227.98915 L223.55923,-223.56181 L228.82942,-219.9101 L233.91173,-208.87042 L215.90346,-209.62866 L210.308,-210.67168 L200.98796,-204.2564 L191.08394,-203.34175 L165.68025,-205.70412 L174.21095,-191.504 L189.98451,-188.46663 L192.16127,-177.80107 L195.7475,-175.8816 L190.89938,-174.49147 L178.08736,-175.9896 L177.2694,-178.04123 L176.60522,-171.61356 L193.4287,-168.89972 L203.1721,-163.25778 L203.60577,-189.12428 L200.95709,-196.68098 L210.95467,-199.16084 L215.1365,-197.11383 L239.54501,-196.19351 L243.14082,-194.90875 L236.33786,-181.61485 L239.97198,-178.48982 L247.43198,-169.29085 L237.93016,-165.47507 L224.38556,-150.56493 L237.25783,-142.75108 L266.40067,-143.47537 L262.46375,-152.363 L262.82187,-157.9773 L262.79178,-174.00252 L259.47098,-174.92497 L258.50565,-176.3713 L263.1339,-175.74112 L314.21976,-176.27658 L319.45273,-185.7344 L328.8788,-192.34453 L331.8727,-181.9112 L336.05002,-168.11044 L325.4185,-166.41934 L324.72363,-164.30746 L325.47488,-153.46399 L326.67993,-151.90518 L348.7429,-152.10767 L355.5414,-151.49333 L361.73264,-136.29547 L375.65454,-143.67155 L394.46515,-127.34721 L413.8408,-123.58707 L418.67996,-118.57341 L422.58884,-111.55632 L422.45258,-109.274086 L396.51883,-107.676765 L404.69287,-94.0001 L405.40958,-88.92729 L411.38205,-85.466675 L423.05655,-90.017525 L430.94443,-99.317474 L432.32004,-94.01605 L435.7191,-88.94921 L423.8515,-75.38865 L415.18814,-65.06447 L410.8872,-64.45717 L398.0962,-66.01646 L393.03253,-63.46856 L385.24487,-74.45366 L380.69147,-56.609562 L397.76105,-55.44643 L389.7407,-42.443882 L397.31152,-46.959763 L414.61697,-48.981018 L413.13742,-40.702724 L410.04834,-26.518757 L424.5288,-18.012047 L439.9399,-14.869836 L386.03018,-18.940868 L383.81592,-27.104734 L369.4121,-24.80217 L377.86877,-38.625347 L368.38498,-42.222305 L364.23355,-47.125175 L351.59738,-35.582165 L333.09613,-36.505016 L333.82385,-39.18846 L334.6803,-17.885626 L339.30368,-14.435975 L280.5986,-15.725837 L292.04254,-25.715662 L306.11734,-26.149948 L317.44955,-36.423183 L318.0853,-47.943462 L314.56693,-59.273888 L295.98514,-70.85937 L297.19235,-78.860664 L303.0265,-75.300514 L305.83813,-77.04611 L331.37057,-65.0878 L340.1796,-62.062664 L350.38678,-64.176575 L349.19034,-78.91748 L347.78638,-88.5781 L377.4824,-96.195984 L380.8392,-98.35893 L374.74673,-110.9997 L368.45154,-115.84805 L375.51508,-120.47121 L366.27036,-119.80404 L352.9062,-120.8129 L349.9944,-125.9793 L337.53632,-134.592 L329.692,-135.76212 L324.6373,-138.6409 L318.8852,-137.42076 L309.4742,-147.4601 L285.11578,-142.76018 L274.4431,-136.86009 L267.83084,-135.9067 L253.56679,-126.35697 L261.4593,-124.496765 L268.23553,-121.5837 L280.1855,-119.5629 L294.00662,-128.52368 L299.95636,-129.31786 L306.08698,-126.22496 L319.69904,-123.56193 L330.23782,-113.82737 L328.8426,-112.77816 L337.33893,-107.83864 L311.1983,-108.18217 L305.6481,-104.52232 L311.15002,-102.43973 L314.80753,-102.18115 L312.38376,-98.381485 L312.2389,-95.33995 L301.81845,-90.50965 L287.03476,-92.1357 L270.2896,-84.666435 L260.47644,-72.93526 L256.74896,-68.95993 L270.24173,-67.466774 L268.74405,-57.309856 L257.3479,-58.309803 L224.36113,-57.377125 L247.99158,-32.346813 L253.80934,-30.343998 L253.58434,-16.408642 L205.96133,-15.6033325 L214.3661,-26.833899 L185.90396,-28.60112 L186.83377,-29.963602 L183.3159,-41.354576 L173.18742,-34.177723 L165.85835,-38.508354 L160.52956,-50.012814 L140.59723,-50.79691 L130.01172,-51.269707 L116.58919,-34.402016 L134.61783,-31.839394 L127.85744,-25.664064 L126.60314,-15.25383 L97.1979,-16.17602 L100.7547,-26.89722 L73.85456,-24.011942 L69.59126,-19.015213 L65.38253,-20.690245 L52.224907,-31.004864 L41.374844,-25.321728 L45.912106,-21.555456 L34.845886,-21.817923 L30.200523,-30.407291 L24.057163,-32.34192 L24.050339,-41.521328 L41.849525,-62.071487 L39.080902,-67.33205 L31.716316,-68.94411 L33.17484,-88.19153 L54.32572,-90.73295 L51.523357,-57.920704 L60.592888,-57.448345 L61.438377,-47.294083 L69.6844,-43.045887 L73.16315,-47.020546 L86.2697,-52.438343 L83.22793,-64.243706 L81.98276,-69.52217 L82.09631,-77.7337 L80.21531,-80.41357 L80.771194,-94.94692 L86.08718,-95.654854 L90.53365,-94.62721 L91.59342,-95.041466 L105.97886,-94.47306 L104.6432,-99.09105 L106.03865,-99.45157 L116.67605,-108.168755 L114.78382,-98.20006 L122.73046,-94.692635 L121.90425,-81.46623 L116.002014,-75.25126 L95.40535,-74.77357 L100.80767,-72.14172 L105.08191,-69.738525 L111.39861,-61.999084 L113.35745,-60.672394 L118.27521,-61.919907 L123.03545,-60.58747 L134.52063,-66.561386 L195.6164,-65.41317 L193.79932,-78.66673 L209.41501,-82.08874 L218.42589,-86.80731 L229.48979,-76.935036 L240.05507,-89.74317 L252.59831,-90.982025 L267.35098,-94.50472 L264.60367,-98.41431 L264.7999,-110.2681 L256.40552,-111.676094 L244.87796,-110.30152 L239.10165,-109.6991 L230.51295,-98.14909 L221.12686,-102.48837 L213.93492,-98.00913 L211.91344,-95.205826 L211.71532,-109.871796 L216.69571,-110.04539 L218.0129,-121.98701 L213.11877,-122.70218 L206.4329,-124.81802 L219.52571,-128.08803 L223.5721,-130.8218 L206.48465,-137.78458 L204.7624,-142.05443 L207.71915,-152.10081 L190.27628,-150.32188 L190.13,-129.9984 L183.46788,-115.50058 L181.71075,-115.37252 L177.69963,-89.97724 L168.12987,-94.180626 L161.38556,-97.07027 L142.42337,-96.286964 L144.43024,-112.46016 L144.36194,-130.60428 L159.50583,-141.88634 L153.55951,-151.01831 L159.56638,-175.04396 L152.38066,-173.6856 L137.85513,-182.07045 L114.2549,-176.35461 L107.00757,-179.52782 L104.751595,-173.27422 L97.692116,-173.17294 L90.707596,-171.46701 L80.54946,-161.70084 L101.4401,-163.4513 L106.01528,-159.94191 L128.97665,-159.25713 L124.46923,-153.84592 L113.08739,-157.06538 L109.08028,-144.4424 L128.52675,-127.52557 L119.03365,-118.43704 L107.411865,-118.59357 L79.50268,-120.04296 L79.09101,-116.20529 L64.75647,-116.62593 L68.188896,-120.739494 L67.56302,-127.57388 L69.97693,-131.26 L53.76765,-133.04265 L53.712658,-124.011116 L37.698486,-114.71288 L23.85903,-115.3715 L21.415287,-143.75703 L27.122293,-139.4349 L47.08218,-139.37996 L55.90262,-140.49855 L46.234947,-162.4192 L59.05343,-161.31502 L64.787155,-186.8263 L37.222935,-185.9841 L33.41424,-186.05586 L36.76104,-190.59425 L31.81807,-192.79993 L27.697485,-190.51964 L23.75117,-200.0973 L29.50205,-212.13882 L49.357597,-206.01625 L40.200092,-232.4349 L48.576763,-240.46509 L51.967205,-242.30087 L58.83295,-243.3496 L64.71803,-232.691 L68.9426,-216.86354 L86.596054,-213.0566 L90.91093,-212.9891 L92.56425,-203.64113 L111.5917,-200.98851 L117.65092,-206.09613 L118.25288,-218.65668 L108.807335,-214.01866 L108.20749,-227.55804 L163.7647,-225.5445 L151.58702,-223.97641 L148.99939,-232.66818 L147.29732,-255.9002 L141.61662,-256.03677 L133.95668,-257.6736 L138.02328,-265.3197 L130.95825,-282.82977 L119.8539,-281.17645 L120.559364,-261.75757 L121.312675,-245.91257 L115.28986,-241.65155 L116.322815,-251.05142 L94.66672,-258.03467 L86.13683,-272.07944 L84.96647,-266.31128 L67.246475,-259.17133 L63.996403,-258.9981 L55.073387,-267.38852 L46.82625,-258.98047 L32.819275,-253.4015 L27.732075,-252.84311 L25.65923,-264.89465 L37.485657,-265.39322 L39.61884,-284.19797 L39.35348,-297.24686 L56.88271,-299.9282 L67.15681,-300.36862 L60.947998,-288.78864 L80.19538,-288.34204 L100.1777,-286.65094 L105.3182,-294.17007 L128.10986,-311.62543 L137.78293,-304.166 L134.75694,-301.3656 L147.39478,-301.49118 L144.09799,-295.48615" fill="none" stroke="#35C788" stroke-linejoin="round" stroke-width="2"/>
</g>
</g>
<g>
<g>
<line stroke="black" stroke-width="1" x1="0" x2="0" y1="0" y2="10"/>
<line stroke="black" stroke-width="1" x1="98.51941826611885" x2="98.51941826611885" y1="0" y2="10"/>
<line stroke="black" stroke-width="1" x1="197.0388365322377" x2="197.0388365322377" y1="0" y2="10"/>
<line stroke="black" stroke-width="1" x1="295.55825479835653" x2="295.55825479835653" y1="0" y2="10"/>
<line stroke="black" stroke-width="1" x1="394.0776730644754" x2="394.0776730644754" y1="0" y2="10"/>
</g>
<line stroke="black" stroke-width="1" x1="0" x2="480" y1="0" y2="0"/>
<g>
<text font-size="12" text-anchor="middle" x="0" y="20">
0
</text>
<text font-size="12" text-anchor="middle" x="98.51941826611885" y="20">
5
</text>
<text font-size="12" text-anchor="middle" x="197.0388365322377" y="20">
10
</text>
<text font-size="12" text-anchor="middle" x="295.55825479835653" y="20">
15
</text>
<text font-size="12" text-anchor="middle" x="394.0776730644754" y="20">
20
</text>
</g>
<text font-size="12" text-anchor="middle" x="240" y="30">
X coordinate. Cities: 500, temperature: 0.009900000009966804
</text>
</g>
<g>
<g>
<line stroke="black" stroke-width="1" x1="0" x2="-10" y1="0" y2="0"/>
<line stroke="black" stroke-width="1" x1="0" x2="-10" y1="-69.78458793850085" y2="-69.78458793850085"/>
<line stroke="black" stroke-width="1" x1="0" x2="-10" y1="-139.5691758770017" y2="-139.5691758770017"/>
<line stroke="black" stroke-width="1" x1="0" x2="-10" y1="-209.35376381550256" y2="-209.35376381550256"/>
<line stroke="black" stroke-width="1" x1="0" x2="-10" y1="-279.1383517540034" y2="-279.1383517540034"/>
</g>
<line stroke="black" stroke-width="1" x1="0" x2="0" y1="0" y2="-340"/>
<g>
<text dominant-baseline="middle" font-size="12" text-anchor="end" x="-15" y="0">
0
</text>
<text dominant-baseline="middle" font-size="12" text-anchor="end" x="-15" y="-69.78458793850085">
5
</text>
<text dominant-baseline="middle" font-size="12" text-anchor="end" x="-15" y="-139.5691758770017">
10
</text>
<text dominant-baseline="middle" font-size="12" text-anchor="end" x="-15" y="-209.35376381550256">
15
</text>
<text dominant-baseline="middle" font-size="12" text-anchor="end" x="-15" y="-279.1383517540034">
20
</text>
</g>
<text font-size="12" text-anchor="middle" transform="rotate(-90 -24 -170)" x="-24" y="-182">
Y coordinate
</text>
</g>
</g>
</svg>